<?xml version="1.0" encoding="utf-8" standalone="no"?>
<!DOCTYPE svg PUBLIC "-//W3C//DTD SVG 1.1//EN"
  "http://www.w3.org/Graphics/SVG/1.1/DTD/svg11.dtd">
<svg xmlns:xlink="http://www.w3.org/1999/xlink" width="734.586563pt" height="775.307813pt" viewBox="0 0 734.586563 775.307813" xmlns="http://www.w3.org/2000/svg" version="1.1">
 <metadata>
  <rdf:RDF xmlns:dc="http://purl.org/dc/elements/1.1/" xmlns:cc="http://creativecommons.org/ns#" xmlns:rdf="http://www.w3.org/1999/02/22-rdf-syntax-ns#">
   <cc:Work>
    <dc:type rdf:resource="http://purl.org/dc/dcmitype/StillImage"/>
    <dc:date>2025-12-21T13:28:23.007493</dc:date>
    <dc:format>image/svg+xml</dc:format>
    <dc:creator>
     <cc:Agent>
      <dc:title>Matplotlib v3.5.3, https://matplotlib.org/</dc:title>
     </cc:Agent>
    </dc:creator>
   </cc:Work>
  </rdf:RDF>
 </metadata>
 <defs>
  <style type="text/css">*{stroke-linejoin: round; stroke-linecap: butt}</style>
 </defs>
 <g id="figure_1">
  <g id="patch_1">
   <path d="M 0 775.307813 
L 734.586563 775.307813 
L 734.586563 0 
L 0 0 
z
" style="fill: #ffffff"/>
  </g>
  <g id="axes_1">
   <g id="patch_2">
    <path d="M 96.240938 688.2 
L 654.240937 688.2 
L 654.240937 133.8 
L 96.240938 133.8 
z
" style="fill: #ffffff"/>
   </g>
   <g id="PolyCollection_1">
    <defs>
     <path id="m60cfeda30e" d="M 96.240938 -308.786522 
L 96.240938 -232.5362 
L 99.030938 -247.468163 
L 101.820937 -322.058643 
L 104.610938 -353.884699 
L 107.400937 -361.633263 
L 110.190938 -368.720782 
L 112.980938 -368.990862 
L 115.770938 -387.633939 
L 118.560937 -400.856739 
L 121.350938 -402.016983 
L 124.140938 -397.007988 
L 126.930937 -392.300221 
L 129.720937 -383.299079 
L 132.510938 -375.049684 
L 135.300938 -372.670649 
L 138.090937 -367.261506 
L 140.880938 -359.882235 
L 143.670938 -358.214928 
L 146.460938 -356.095405 
L 149.250937 -352.432321 
L 152.040937 -352.957764 
L 154.830938 -353.092678 
L 157.620937 -355.076077 
L 160.410937 -359.607233 
L 163.200938 -362.36987 
L 165.990938 -366.873754 
L 168.780937 -368.703631 
L 171.570938 -370.376738 
L 174.360938 -373.335344 
L 177.150937 -376.775328 
L 179.940938 -377.80814 
L 182.730937 -377.072651 
L 185.520938 -375.483032 
L 188.310938 -377.042927 
L 191.100937 -381.628906 
L 193.890938 -384.203405 
L 196.680937 -384.966959 
L 199.470937 -383.862123 
L 202.260938 -383.5766 
L 205.050938 -380.712494 
L 207.840937 -381.445596 
L 210.630938 -382.032109 
L 213.420938 -383.965115 
L 216.210938 -382.269264 
L 219.000938 -381.677986 
L 221.790937 -380.244246 
L 224.580938 -375.883953 
L 227.370937 -373.336065 
L 230.160938 -373.194389 
L 232.950938 -371.113613 
L 235.740938 -365.941538 
L 238.530937 -360.756481 
L 241.320938 -355.257422 
L 244.110938 -352.087047 
L 246.900937 -348.777823 
L 249.690937 -349.103168 
L 252.480938 -349.522009 
L 255.270938 -353.226207 
L 258.060938 -353.632628 
L 260.850937 -350.491382 
L 263.640938 -350.385992 
L 266.430938 -348.101861 
L 269.220937 -349.317882 
L 272.010938 -351.267429 
L 274.800938 -349.404136 
L 277.590937 -349.082081 
L 280.380938 -350.318823 
L 283.170938 -352.025987 
L 285.960938 -353.163966 
L 288.750937 -356.252015 
L 291.540938 -359.239878 
L 294.330938 -361.490846 
L 297.120937 -362.82748 
L 299.910938 -365.272092 
L 302.700938 -365.413885 
L 305.490937 -366.16478 
L 308.280937 -366.450716 
L 311.070938 -365.854748 
L 313.860937 -364.246674 
L 316.650937 -362.506274 
L 319.440938 -362.882457 
L 322.230937 -363.8451 
L 325.020938 -362.961538 
L 327.810938 -358.134335 
L 330.600937 -354.928827 
L 333.390938 -354.469657 
L 336.180938 -354.561209 
L 338.970937 -353.895967 
L 341.760938 -354.725611 
L 344.550938 -354.498975 
L 347.340937 -353.499923 
L 350.130938 -352.539528 
L 352.920938 -351.815326 
L 355.710938 -351.692608 
L 358.500937 -354.067022 
L 361.290938 -352.66984 
L 364.080938 -350.568114 
L 366.870937 -351.411082 
L 369.660938 -350.668427 
L 372.450938 -351.089217 
L 375.240937 -351.304327 
L 378.030938 -354.190094 
L 380.820938 -357.564887 
L 383.610937 -361.819596 
L 386.400938 -363.183903 
L 389.190938 -365.621218 
L 391.980937 -367.133494 
L 394.770938 -370.813658 
L 397.560938 -372.696301 
L 400.350937 -374.717304 
L 403.140937 -376.571123 
L 405.930938 -378.083561 
L 408.720937 -378.792553 
L 411.510937 -379.292927 
L 414.300938 -380.094254 
L 417.090937 -380.753026 
L 419.880937 -381.061037 
L 422.670938 -381.136461 
L 425.460938 -383.115771 
L 428.250937 -382.915467 
L 431.040938 -385.839716 
L 433.830938 -387.767856 
L 436.620937 -388.454044 
L 439.410938 -389.826107 
L 442.200938 -390.191066 
L 444.990937 -391.775873 
L 447.780938 -391.97182 
L 450.570938 -392.198308 
L 453.360937 -391.845271 
L 456.150938 -393.269702 
L 458.940938 -394.192391 
L 461.730937 -393.30926 
L 464.520938 -392.86423 
L 467.310938 -392.074508 
L 470.100937 -393.211609 
L 472.890937 -392.693541 
L 475.680938 -392.65887 
L 478.470937 -393.764915 
L 481.260937 -393.252658 
L 484.050938 -395.169122 
L 486.840937 -395.400138 
L 489.630937 -393.663406 
L 492.420938 -392.779878 
L 495.210938 -392.7923 
L 498.000937 -391.361694 
L 500.790938 -391.263175 
L 503.580938 -392.023201 
L 506.370937 -391.864875 
L 509.160938 -391.331274 
L 511.950938 -392.224325 
L 514.740937 -392.803601 
L 517.530938 -391.598474 
L 520.320938 -389.92967 
L 523.110937 -390.458674 
L 525.900938 -392.587113 
L 528.690938 -394.347461 
L 531.480937 -394.260029 
L 534.270938 -392.713661 
L 537.060938 -393.109315 
L 539.850937 -392.807348 
L 542.640937 -393.18134 
L 545.430938 -393.000853 
L 548.220937 -394.001599 
L 551.010937 -393.132557 
L 553.800938 -390.156729 
L 556.590937 -388.633851 
L 559.380937 -389.336773 
L 562.170938 -388.798677 
L 564.960938 -386.998684 
L 567.750937 -386.944196 
L 570.540938 -385.444324 
L 573.330938 -383.881878 
L 576.120937 -383.015955 
L 578.910938 -380.878321 
L 581.700938 -378.096912 
L 584.490937 -375.383168 
L 587.280938 -376.165495 
L 590.070938 -377.00412 
L 592.860937 -376.284635 
L 595.650938 -374.872039 
L 598.440938 -375.14994 
L 601.230937 -378.911244 
L 604.020938 -378.418405 
L 606.810938 -377.329689 
L 609.600937 -374.261202 
L 612.390937 -374.702864 
L 615.180938 -373.107761 
L 617.970937 -372.107261 
L 620.760937 -371.998325 
L 623.550938 -372.369836 
L 626.340937 -371.593423 
L 629.130937 -369.952751 
L 631.920938 -368.924484 
L 634.710938 -369.147913 
L 637.500937 -368.370539 
L 640.290937 -364.755066 
L 643.080938 -361.138003 
L 645.870937 -361.1927 
L 648.660937 -358.685468 
L 651.450938 -355.50632 
L 654.240937 -356.911995 
L 654.240937 -432.815888 
L 654.240937 -432.815888 
L 651.450938 -433.187671 
L 648.660937 -434.117899 
L 645.870937 -432.417398 
L 643.080938 -432.533213 
L 640.290937 -433.019054 
L 637.500937 -432.460398 
L 634.710938 -431.768529 
L 631.920938 -432.05398 
L 629.130937 -432.586938 
L 626.340937 -432.704696 
L 623.550938 -434.325927 
L 620.760937 -434.77373 
L 617.970937 -433.077073 
L 615.180938 -430.893257 
L 612.390937 -428.750138 
L 609.600937 -428.74937 
L 606.810938 -428.571055 
L 604.020938 -428.612725 
L 601.230937 -430.36365 
L 598.440938 -430.562179 
L 595.650938 -427.957436 
L 592.860937 -426.541377 
L 590.070938 -425.135892 
L 587.280938 -425.592453 
L 584.490937 -426.573188 
L 581.700938 -427.016519 
L 578.910938 -427.112637 
L 576.120937 -426.370488 
L 573.330938 -426.156241 
L 570.540938 -427.109581 
L 567.750937 -427.584461 
L 564.960938 -426.134941 
L 562.170938 -423.816346 
L 559.380937 -424.374465 
L 556.590937 -423.634634 
L 553.800938 -423.541111 
L 551.010937 -423.388375 
L 548.220937 -421.213058 
L 545.430938 -421.256385 
L 542.640937 -421.314048 
L 539.850937 -419.612578 
L 537.060938 -418.958353 
L 534.270938 -422.757151 
L 531.480937 -425.180822 
L 528.690938 -426.725669 
L 525.900938 -426.190318 
L 523.110937 -428.380629 
L 520.320938 -427.341332 
L 517.530938 -427.051783 
L 514.740937 -427.83577 
L 511.950938 -427.568964 
L 509.160938 -427.999082 
L 506.370937 -430.042083 
L 503.580938 -430.205757 
L 500.790938 -429.212321 
L 498.000937 -428.82492 
L 495.210938 -428.277819 
L 492.420938 -426.378715 
L 489.630937 -426.150327 
L 486.840937 -423.807831 
L 484.050938 -423.875213 
L 481.260937 -424.192063 
L 478.470937 -423.733247 
L 475.680938 -423.921104 
L 472.890937 -423.981482 
L 470.100937 -423.247091 
L 467.310938 -423.144214 
L 464.520938 -424.939072 
L 461.730937 -425.528235 
L 458.940938 -425.141849 
L 456.150938 -422.970719 
L 453.360937 -421.832939 
L 450.570938 -422.382736 
L 447.780938 -420.369375 
L 444.990937 -418.7925 
L 442.200938 -417.482559 
L 439.410938 -416.044408 
L 436.620937 -416.929181 
L 433.830938 -417.357378 
L 431.040938 -415.840073 
L 428.250937 -416.211986 
L 425.460938 -415.147144 
L 422.670938 -414.849783 
L 419.880937 -415.629513 
L 417.090937 -415.500212 
L 414.300938 -415.928209 
L 411.510937 -414.86561 
L 408.720937 -414.466943 
L 405.930938 -413.352774 
L 403.140937 -411.283109 
L 400.350937 -409.779486 
L 397.560938 -406.897208 
L 394.770938 -405.616934 
L 391.980937 -405.163035 
L 389.190938 -404.022897 
L 386.400938 -404.181374 
L 383.610937 -403.668235 
L 380.820938 -403.551391 
L 378.030938 -404.767957 
L 375.240937 -406.527401 
L 372.450938 -404.741686 
L 369.660938 -404.286978 
L 366.870937 -403.567627 
L 364.080938 -404.550776 
L 361.290938 -406.478611 
L 358.500937 -404.28385 
L 355.710938 -404.076213 
L 352.920938 -402.03417 
L 350.130938 -400.613039 
L 347.340937 -401.816954 
L 344.550938 -402.579734 
L 341.760938 -403.617975 
L 338.970937 -406.599555 
L 336.180938 -407.936494 
L 333.390938 -408.841642 
L 330.600937 -410.011108 
L 327.810938 -411.510563 
L 325.020938 -413.520177 
L 322.230937 -415.889914 
L 319.440938 -417.428935 
L 316.650937 -419.495024 
L 313.860937 -423.612977 
L 311.070938 -428.092915 
L 308.280937 -430.230079 
L 305.490937 -430.771116 
L 302.700938 -429.30974 
L 299.910938 -428.64134 
L 297.120937 -431.011435 
L 294.330938 -432.128586 
L 291.540938 -431.909953 
L 288.750937 -434.581056 
L 285.960938 -435.356214 
L 283.170938 -436.678632 
L 280.380938 -438.724084 
L 277.590937 -438.97375 
L 274.800938 -439.393244 
L 272.010938 -440.126003 
L 269.220937 -441.589601 
L 266.430938 -444.207381 
L 263.640938 -443.775465 
L 260.850937 -444.27629 
L 258.060938 -444.550291 
L 255.270938 -443.720528 
L 252.480938 -441.759603 
L 249.690937 -440.156784 
L 246.900937 -438.154533 
L 244.110938 -435.737954 
L 241.320938 -433.855726 
L 238.530937 -432.332366 
L 235.740938 -430.434027 
L 232.950938 -426.866744 
L 230.160938 -424.619894 
L 227.370937 -422.02033 
L 224.580938 -421.788162 
L 221.790937 -423.025969 
L 219.000938 -424.531058 
L 216.210938 -423.66815 
L 213.420938 -421.36577 
L 210.630938 -419.085843 
L 207.840937 -419.729591 
L 205.050938 -421.656817 
L 202.260938 -423.505141 
L 199.470937 -428.679889 
L 196.680937 -431.434567 
L 193.890938 -434.266072 
L 191.100937 -435.468042 
L 188.310938 -437.752655 
L 185.520938 -436.649126 
L 182.730937 -436.059017 
L 179.940938 -435.907991 
L 177.150937 -433.483222 
L 174.360938 -432.899066 
L 171.570938 -431.608995 
L 168.780937 -429.63122 
L 165.990938 -428.275937 
L 163.200938 -428.357045 
L 160.410937 -427.981121 
L 157.620937 -426.144151 
L 154.830938 -424.838818 
L 152.040937 -425.843119 
L 149.250937 -424.902659 
L 146.460938 -428.853994 
L 143.670938 -427.6126 
L 140.880938 -426.71 
L 138.090937 -425.606636 
L 135.300938 -427.253344 
L 132.510938 -430.85958 
L 129.720937 -430.362547 
L 126.930937 -433.453447 
L 124.140938 -438.629739 
L 121.350938 -440.755746 
L 118.560937 -445.027412 
L 115.770938 -432.104776 
L 112.980938 -415.89072 
L 110.190938 -414.23259 
L 107.400937 -409.505561 
L 104.610938 -398.500018 
L 101.820937 -389.121686 
L 99.030938 -367.844293 
L 96.240938 -308.786522 
z
"/>
    </defs>
    <g clip-path="url(#pe7d152de76)">
     <use xlink:href="#m60cfeda30e" x="0" y="775.307813" style="fill: #17becf; fill-opacity: 0.1"/>
    </g>
   </g>
   <g id="PolyCollection_2">
    <defs>
     <path id="m95ae26963c" d="M 99.030938 -315.19406 
L 99.030938 -224.631516 
L 101.820937 -244.96922 
L 104.610938 -265.594071 
L 107.400937 -280.102678 
L 110.190938 -297.355192 
L 112.980938 -309.545049 
L 115.770938 -319.002738 
L 118.560937 -325.298564 
L 121.350938 -332.374475 
L 124.140938 -336.476569 
L 126.930937 -341.282999 
L 129.720937 -347.303577 
L 132.510938 -355.029738 
L 135.300938 -359.116479 
L 138.090937 -363.254729 
L 140.880938 -367.788379 
L 143.670938 -370.878003 
L 146.460938 -377.62274 
L 149.250937 -380.975657 
L 152.040937 -387.008201 
L 154.830938 -394.57872 
L 157.620937 -397.805677 
L 160.410937 -402.41399 
L 163.200938 -407.754285 
L 165.990938 -408.866487 
L 168.780937 -408.094057 
L 171.570938 -407.418395 
L 174.360938 -403.081409 
L 177.150937 -397.061646 
L 179.940938 -391.718837 
L 182.730937 -389.549292 
L 185.520938 -386.966673 
L 188.310938 -384.418319 
L 191.100937 -380.161836 
L 193.890938 -375.96232 
L 196.680937 -372.439849 
L 199.470937 -369.092398 
L 202.260938 -361.301681 
L 205.050938 -356.415486 
L 207.840937 -353.419165 
L 210.630938 -346.332037 
L 213.420938 -340.059987 
L 216.210938 -336.478427 
L 219.000938 -332.771272 
L 221.790937 -327.720093 
L 224.580938 -323.182861 
L 227.370937 -317.866656 
L 230.160938 -312.739826 
L 232.950938 -308.304412 
L 235.740938 -304.045303 
L 238.530937 -300.849104 
L 241.320938 -299.361664 
L 244.110938 -296.744272 
L 246.900937 -292.053552 
L 249.690937 -288.39344 
L 252.480938 -286.559443 
L 255.270938 -283.015435 
L 258.060938 -279.048338 
L 260.850937 -275.328692 
L 263.640938 -270.802792 
L 266.430938 -269.39722 
L 269.220937 -266.297364 
L 272.010938 -264.463626 
L 274.800938 -262.273555 
L 277.590937 -261.879261 
L 280.380938 -259.901103 
L 283.170938 -258.693359 
L 285.960938 -257.884252 
L 288.750937 -256.051183 
L 291.540938 -253.734179 
L 294.330938 -255.220651 
L 297.120937 -255.991343 
L 299.910938 -255.069304 
L 302.700938 -253.999104 
L 305.490937 -254.258919 
L 308.280937 -254.505339 
L 311.070938 -255.174726 
L 313.860937 -254.712542 
L 316.650937 -252.380077 
L 319.440938 -252.285057 
L 322.230937 -252.99306 
L 325.020938 -253.575702 
L 327.810938 -254.470664 
L 330.600937 -254.930593 
L 333.390938 -254.865721 
L 336.180938 -255.86991 
L 338.970937 -257.519133 
L 341.760938 -259.730011 
L 344.550938 -261.431867 
L 347.340937 -262.027363 
L 350.130938 -262.870073 
L 352.920938 -264.755639 
L 355.710938 -265.701451 
L 358.500937 -265.767283 
L 361.290938 -265.547464 
L 364.080938 -267.269267 
L 366.870937 -268.516848 
L 369.660938 -270.137021 
L 372.450938 -271.851473 
L 375.240937 -273.702508 
L 378.030938 -277.245873 
L 380.820938 -278.357288 
L 383.610937 -279.444915 
L 386.400938 -281.38293 
L 389.190938 -284.522603 
L 391.980937 -287.071877 
L 394.770938 -288.301022 
L 397.560938 -289.627223 
L 400.350937 -291.04078 
L 403.140937 -293.542513 
L 405.930938 -294.459592 
L 408.720937 -295.375508 
L 411.510937 -297.31176 
L 414.300938 -297.853958 
L 417.090937 -301.611122 
L 419.880937 -304.496207 
L 422.670938 -305.202218 
L 425.460938 -306.981264 
L 428.250937 -309.962695 
L 431.040938 -311.991784 
L 433.830938 -313.890664 
L 436.620937 -315.58336 
L 439.410938 -316.779089 
L 442.200938 -318.437569 
L 444.990937 -320.214309 
L 447.780938 -321.309878 
L 450.570938 -323.892392 
L 453.360937 -325.867834 
L 456.150938 -328.559039 
L 458.940938 -329.515859 
L 461.730937 -330.658835 
L 464.520938 -332.097224 
L 467.310938 -333.943626 
L 470.100937 -336.503492 
L 472.890937 -338.69403 
L 475.680938 -341.00471 
L 478.470937 -340.891678 
L 481.260937 -343.371114 
L 484.050938 -345.527616 
L 486.840937 -348.759778 
L 489.630937 -349.589605 
L 492.420938 -351.316743 
L 495.210938 -353.206809 
L 498.000937 -354.081447 
L 500.790938 -352.870288 
L 503.580938 -354.876558 
L 506.370937 -357.15367 
L 509.160938 -357.215047 
L 511.950938 -358.054515 
L 514.740937 -356.935971 
L 517.530938 -357.974796 
L 520.320938 -359.337855 
L 523.110937 -360.713865 
L 525.900938 -361.676761 
L 528.690938 -362.828079 
L 531.480937 -363.236852 
L 534.270938 -364.295828 
L 537.060938 -365.874118 
L 539.850937 -365.09513 
L 542.640937 -367.017121 
L 545.430938 -365.077934 
L 548.220937 -365.224981 
L 551.010937 -365.837644 
L 553.800938 -367.296768 
L 556.590937 -367.099326 
L 559.380937 -366.642997 
L 562.170938 -367.826551 
L 564.960938 -369.685056 
L 567.750937 -370.926875 
L 570.540938 -372.0032 
L 573.330938 -373.321404 
L 576.120937 -373.373796 
L 578.910938 -373.542758 
L 581.700938 -372.716499 
L 584.490937 -374.00591 
L 587.280938 -374.375349 
L 590.070938 -374.899123 
L 592.860937 -376.217985 
L 595.650938 -377.069253 
L 598.440938 -378.111779 
L 601.230937 -378.097274 
L 604.020938 -377.508295 
L 606.810938 -377.349217 
L 609.600937 -377.526938 
L 612.390937 -378.25474 
L 615.180938 -378.55281 
L 617.970937 -378.741829 
L 620.760937 -379.097488 
L 623.550938 -378.831578 
L 626.340937 -379.185411 
L 629.130937 -379.637991 
L 631.920938 -381.102902 
L 634.710938 -381.894862 
L 637.500937 -383.842727 
L 640.290937 -384.270894 
L 643.080938 -383.849452 
L 645.870937 -385.023589 
L 648.660937 -386.460246 
L 651.450938 -387.927332 
L 654.240937 -389.583108 
L 654.240937 -496.614711 
L 654.240937 -496.614711 
L 651.450938 -495.680035 
L 648.660937 -494.616283 
L 645.870937 -494.933842 
L 643.080938 -495.445915 
L 640.290937 -494.061635 
L 637.500937 -492.883866 
L 634.710938 -494.320505 
L 631.920938 -494.836981 
L 629.130937 -494.679699 
L 626.340937 -495.749182 
L 623.550938 -494.87824 
L 620.760937 -493.351427 
L 617.970937 -492.425408 
L 615.180938 -490.490041 
L 612.390937 -488.903079 
L 609.600937 -487.641977 
L 606.810938 -486.547956 
L 604.020938 -486.131459 
L 601.230937 -487.189964 
L 598.440938 -486.206298 
L 595.650938 -485.863276 
L 592.860937 -484.763575 
L 590.070938 -483.646437 
L 587.280938 -483.370857 
L 584.490937 -481.660167 
L 581.700938 -481.340932 
L 578.910938 -480.422544 
L 576.120937 -478.557442 
L 573.330938 -477.663254 
L 570.540938 -477.253586 
L 567.750937 -476.331073 
L 564.960938 -476.168676 
L 562.170938 -476.448042 
L 559.380937 -476.016628 
L 556.590937 -475.598235 
L 553.800938 -474.332277 
L 551.010937 -473.312045 
L 548.220937 -472.316064 
L 545.430938 -471.544529 
L 542.640937 -470.100311 
L 539.850937 -469.980108 
L 537.060938 -470.389765 
L 534.270938 -470.764055 
L 531.480937 -470.444708 
L 528.690938 -469.466126 
L 525.900938 -468.337703 
L 523.110937 -469.395438 
L 520.320938 -469.37777 
L 517.530938 -470.253991 
L 514.740937 -470.542235 
L 511.950938 -471.214788 
L 509.160938 -471.386771 
L 506.370937 -471.324407 
L 503.580938 -471.71739 
L 500.790938 -472.342628 
L 498.000937 -471.191984 
L 495.210938 -470.320386 
L 492.420938 -470.995915 
L 489.630937 -471.541633 
L 486.840937 -472.978427 
L 484.050938 -473.976912 
L 481.260937 -474.506705 
L 478.470937 -474.343904 
L 475.680938 -474.11827 
L 472.890937 -473.922498 
L 470.100937 -472.923746 
L 467.310938 -472.751354 
L 464.520938 -472.915648 
L 461.730937 -474.395886 
L 458.940938 -475.30854 
L 456.150938 -475.472328 
L 453.360937 -476.567533 
L 450.570938 -476.386975 
L 447.780938 -478.229446 
L 444.990937 -477.057316 
L 442.200938 -476.549797 
L 439.410938 -475.874945 
L 436.620937 -476.482974 
L 433.830938 -475.204058 
L 431.040938 -474.635024 
L 428.250937 -474.134779 
L 425.460938 -473.354877 
L 422.670938 -473.464762 
L 419.880937 -472.714472 
L 417.090937 -473.133751 
L 414.300938 -473.15457 
L 411.510937 -473.065413 
L 408.720937 -473.093752 
L 405.930938 -473.076033 
L 403.140937 -472.102059 
L 400.350937 -471.830587 
L 397.560938 -472.3641 
L 394.770938 -472.489312 
L 391.980937 -472.937469 
L 389.190938 -472.244764 
L 386.400938 -471.666157 
L 383.610937 -471.597505 
L 380.820938 -470.308144 
L 378.030938 -469.415602 
L 375.240937 -470.678924 
L 372.450938 -469.156711 
L 369.660938 -466.716926 
L 366.870937 -465.238132 
L 364.080938 -463.83053 
L 361.290938 -461.54171 
L 358.500937 -462.077589 
L 355.710938 -462.124755 
L 352.920938 -460.78119 
L 350.130938 -459.414541 
L 347.340937 -458.985208 
L 344.550938 -460.497177 
L 341.760938 -459.646517 
L 338.970937 -457.718212 
L 336.180938 -455.673242 
L 333.390938 -453.129258 
L 330.600937 -453.002365 
L 327.810938 -452.365778 
L 325.020938 -451.303149 
L 322.230937 -449.089103 
L 319.440938 -449.96902 
L 316.650937 -450.41443 
L 313.860937 -452.146481 
L 311.070938 -453.27277 
L 308.280937 -452.643318 
L 305.490937 -452.420061 
L 302.700938 -454.056392 
L 299.910938 -455.51703 
L 297.120937 -457.618089 
L 294.330938 -458.046157 
L 291.540938 -458.695037 
L 288.750937 -458.986549 
L 285.960938 -456.528449 
L 283.170938 -456.400073 
L 280.380938 -456.149748 
L 277.590937 -457.091417 
L 274.800938 -458.070328 
L 272.010938 -456.016343 
L 269.220937 -456.921186 
L 266.430938 -457.68804 
L 263.640938 -458.637478 
L 260.850937 -458.716826 
L 258.060938 -460.222642 
L 255.270938 -461.594211 
L 252.480938 -463.961214 
L 249.690937 -463.035863 
L 246.900937 -462.65988 
L 244.110938 -462.410923 
L 241.320938 -460.722047 
L 238.530937 -460.586134 
L 235.740938 -461.503225 
L 232.950938 -462.569536 
L 230.160938 -461.666035 
L 227.370937 -459.897399 
L 224.580938 -460.204678 
L 221.790937 -462.314585 
L 219.000938 -463.619708 
L 216.210938 -465.248811 
L 213.420938 -466.235466 
L 210.630938 -467.321846 
L 207.840937 -465.904116 
L 205.050938 -465.319709 
L 202.260938 -465.02446 
L 199.470937 -464.84628 
L 196.680937 -464.737496 
L 193.890938 -463.587499 
L 191.100937 -461.198047 
L 188.310938 -460.028187 
L 185.520938 -459.401899 
L 182.730937 -458.060011 
L 179.940938 -455.32339 
L 177.150937 -454.432882 
L 174.360938 -452.725571 
L 171.570938 -447.137617 
L 168.780937 -444.365267 
L 165.990938 -443.234558 
L 163.200938 -440.747254 
L 160.410937 -440.220946 
L 157.620937 -437.075368 
L 154.830938 -433.729851 
L 152.040937 -429.379668 
L 149.250937 -424.422666 
L 146.460938 -419.58367 
L 143.670938 -417.749664 
L 140.880938 -414.904388 
L 138.090937 -415.670226 
L 135.300938 -411.011715 
L 132.510938 -409.27214 
L 129.720937 -406.605142 
L 126.930937 -404.068207 
L 124.140938 -401.030545 
L 121.350938 -396.410967 
L 118.560937 -393.309461 
L 115.770938 -388.658681 
L 112.980938 -376.882578 
L 110.190938 -366.720248 
L 107.400937 -362.721291 
L 104.610938 -355.276124 
L 101.820937 -332.046591 
L 99.030938 -315.19406 
z
"/>
    </defs>
    <g clip-path="url(#pe7d152de76)">
     <use xlink:href="#m95ae26963c" x="0" y="775.307813" style="fill: #36128b; fill-opacity: 0.1"/>
    </g>
   </g>
   <g id="PolyCollection_3">
    <defs>
     <path id="m88eaabb5dd" d="M 99.030938 -147.646912 
L 99.030938 -123.906156 
L 101.820937 -117.006492 
L 104.610938 -115.29592 
L 107.400937 -132.07 
L 110.190938 -155.730897 
L 112.980938 -173.985093 
L 115.770938 -185.935859 
L 118.560937 -196.670194 
L 121.350938 -205.211177 
L 124.140938 -216.534729 
L 126.930937 -227.367507 
L 129.720937 -238.028909 
L 132.510938 -251.274565 
L 135.300938 -264.675194 
L 138.090937 -283.383277 
L 140.880938 -302.102584 
L 143.670938 -319.253849 
L 146.460938 -334.853258 
L 149.250937 -352.43404 
L 152.040937 -368.68616 
L 154.830938 -379.671113 
L 157.620937 -385.087947 
L 160.410937 -389.694529 
L 163.200938 -395.140913 
L 165.990938 -400.508737 
L 168.780937 -407.422254 
L 171.570938 -415.735727 
L 174.360938 -422.146846 
L 177.150937 -426.546336 
L 179.940938 -427.184676 
L 182.730937 -430.583397 
L 185.520938 -432.530864 
L 188.310938 -434.795511 
L 191.100937 -436.877061 
L 193.890938 -438.499479 
L 196.680937 -439.592341 
L 199.470937 -439.105822 
L 202.260938 -437.846337 
L 205.050938 -437.78717 
L 207.840937 -440.868615 
L 210.630938 -444.304018 
L 213.420938 -443.608523 
L 216.210938 -442.397475 
L 219.000938 -441.266703 
L 221.790937 -441.50463 
L 224.580938 -442.335659 
L 227.370937 -446.189629 
L 230.160938 -447.351717 
L 232.950938 -448.681845 
L 235.740938 -451.357519 
L 238.530937 -454.321236 
L 241.320938 -455.961475 
L 244.110938 -457.356731 
L 246.900937 -458.34981 
L 249.690937 -459.147188 
L 252.480938 -461.072304 
L 255.270938 -463.088864 
L 258.060938 -465.674648 
L 260.850937 -467.476634 
L 263.640938 -467.069569 
L 266.430938 -469.041369 
L 269.220937 -468.485592 
L 272.010938 -467.539144 
L 274.800938 -468.281036 
L 277.590937 -470.427875 
L 280.380938 -474.341142 
L 283.170938 -475.631576 
L 285.960938 -475.020864 
L 288.750937 -474.616004 
L 291.540938 -476.167912 
L 294.330938 -476.654893 
L 297.120937 -477.275501 
L 299.910938 -478.804512 
L 302.700938 -479.102296 
L 305.490937 -479.749926 
L 308.280937 -480.901295 
L 311.070938 -483.083414 
L 313.860937 -484.260342 
L 316.650937 -484.10397 
L 319.440938 -483.304117 
L 322.230937 -483.400744 
L 325.020938 -484.294792 
L 327.810938 -486.441782 
L 330.600937 -487.363576 
L 333.390938 -487.951988 
L 336.180938 -487.802053 
L 338.970937 -489.54031 
L 341.760938 -490.551712 
L 344.550938 -491.611532 
L 347.340937 -492.878864 
L 350.130938 -494.248239 
L 352.920938 -496.841336 
L 355.710938 -498.394817 
L 358.500937 -499.763298 
L 361.290938 -500.717926 
L 364.080938 -501.970332 
L 366.870937 -503.399223 
L 369.660938 -503.76371 
L 372.450938 -504.394172 
L 375.240937 -504.140696 
L 378.030938 -504.957943 
L 380.820938 -504.820601 
L 383.610937 -505.657902 
L 386.400938 -508.515791 
L 389.190938 -507.697866 
L 391.980937 -508.45476 
L 394.770938 -510.311501 
L 397.560938 -511.381463 
L 400.350937 -511.721664 
L 403.140937 -510.893995 
L 405.930938 -511.441723 
L 408.720937 -510.858207 
L 411.510937 -510.073682 
L 414.300938 -509.796111 
L 417.090937 -509.340854 
L 419.880937 -510.06863 
L 422.670938 -509.794268 
L 425.460938 -510.092603 
L 428.250937 -510.298451 
L 431.040938 -510.677151 
L 433.830938 -510.426073 
L 436.620937 -511.287009 
L 439.410938 -510.125463 
L 442.200938 -510.240622 
L 444.990937 -510.754178 
L 447.780938 -510.260718 
L 450.570938 -511.72618 
L 453.360937 -512.463679 
L 456.150938 -513.042029 
L 458.940938 -511.720459 
L 461.730937 -510.86704 
L 464.520938 -508.864372 
L 467.310938 -509.128616 
L 470.100937 -507.634476 
L 472.890937 -508.207133 
L 475.680938 -509.842485 
L 478.470937 -512.136282 
L 481.260937 -512.302671 
L 484.050938 -512.521022 
L 486.840937 -512.575606 
L 489.630937 -513.213747 
L 492.420938 -514.138661 
L 495.210938 -514.874999 
L 498.000937 -514.884236 
L 500.790938 -515.022986 
L 503.580938 -516.077168 
L 506.370937 -517.793264 
L 509.160938 -517.121753 
L 511.950938 -518.501599 
L 514.740937 -519.950185 
L 517.530938 -520.909499 
L 520.320938 -522.388863 
L 523.110937 -522.459797 
L 525.900938 -523.009 
L 528.690938 -524.552941 
L 531.480937 -528.174946 
L 534.270938 -528.921379 
L 537.060938 -531.773195 
L 539.850937 -532.447838 
L 542.640937 -531.456029 
L 545.430938 -530.810346 
L 548.220937 -532.388138 
L 551.010937 -533.643168 
L 553.800938 -535.109361 
L 556.590937 -536.223096 
L 559.380937 -538.00394 
L 562.170938 -539.732619 
L 564.960938 -540.208371 
L 567.750937 -540.279862 
L 570.540938 -542.103199 
L 573.330938 -542.077677 
L 576.120937 -542.656187 
L 578.910938 -543.010508 
L 581.700938 -542.217323 
L 584.490937 -541.787764 
L 587.280938 -541.157831 
L 590.070938 -541.855635 
L 592.860937 -542.255917 
L 595.650938 -541.310303 
L 598.440938 -541.675501 
L 601.230937 -540.671431 
L 604.020938 -541.197963 
L 606.810938 -540.874809 
L 609.600937 -541.427429 
L 612.390937 -540.517761 
L 615.180938 -538.640082 
L 617.970937 -536.594195 
L 620.760937 -537.205852 
L 623.550938 -537.217771 
L 626.340937 -537.789876 
L 629.130937 -538.575437 
L 631.920938 -538.69609 
L 634.710938 -538.808376 
L 637.500937 -539.686437 
L 640.290937 -539.807967 
L 643.080938 -540.570611 
L 645.870937 -542.050615 
L 648.660937 -541.363781 
L 651.450938 -542.18306 
L 654.240937 -542.60459 
L 654.240937 -575.630132 
L 654.240937 -575.630132 
L 651.450938 -575.864694 
L 648.660937 -576.037264 
L 645.870937 -575.304666 
L 643.080938 -575.516239 
L 640.290937 -574.506755 
L 637.500937 -574.47293 
L 634.710938 -573.298862 
L 631.920938 -572.431148 
L 629.130937 -571.781651 
L 626.340937 -572.227297 
L 623.550938 -573.10379 
L 620.760937 -572.70444 
L 617.970937 -571.619236 
L 615.180938 -571.41593 
L 612.390937 -572.138939 
L 609.600937 -572.749099 
L 606.810938 -572.813074 
L 604.020938 -571.944372 
L 601.230937 -571.13684 
L 598.440938 -569.946704 
L 595.650938 -568.937193 
L 592.860937 -568.322159 
L 590.070938 -568.420162 
L 587.280938 -567.774568 
L 584.490937 -566.521711 
L 581.700938 -564.671076 
L 578.910938 -562.946064 
L 576.120937 -562.705158 
L 573.330938 -562.283497 
L 570.540938 -560.39763 
L 567.750937 -559.884624 
L 564.960938 -558.993577 
L 562.170938 -558.707006 
L 559.380937 -558.538008 
L 556.590937 -558.488012 
L 553.800938 -557.588457 
L 551.010937 -557.019081 
L 548.220937 -555.450326 
L 545.430938 -554.276892 
L 542.640937 -553.446048 
L 539.850937 -551.805421 
L 537.060938 -550.089527 
L 534.270938 -549.647279 
L 531.480937 -551.076248 
L 528.690938 -552.39292 
L 525.900938 -552.939399 
L 523.110937 -552.706409 
L 520.320938 -551.66487 
L 517.530938 -552.804621 
L 514.740937 -553.680236 
L 511.950938 -554.010026 
L 509.160938 -551.289227 
L 506.370937 -550.708038 
L 503.580938 -552.417511 
L 500.790938 -553.146531 
L 498.000937 -553.590271 
L 495.210938 -553.0654 
L 492.420938 -552.695588 
L 489.630937 -552.093749 
L 486.840937 -551.67331 
L 484.050938 -551.795334 
L 481.260937 -552.1296 
L 478.470937 -552.787945 
L 475.680938 -554.174602 
L 472.890937 -554.178427 
L 470.100937 -553.208375 
L 467.310938 -554.192686 
L 464.520938 -554.870306 
L 461.730937 -555.258779 
L 458.940938 -554.449015 
L 456.150938 -555.585123 
L 453.360937 -555.282828 
L 450.570938 -554.546865 
L 447.780938 -553.338477 
L 444.990937 -553.220156 
L 442.200938 -552.519476 
L 439.410938 -553.743194 
L 436.620937 -552.807153 
L 433.830938 -552.554714 
L 431.040938 -553.961657 
L 428.250937 -554.701648 
L 425.460938 -554.884613 
L 422.670938 -556.714518 
L 419.880937 -558.970694 
L 417.090937 -560.041695 
L 414.300938 -559.957966 
L 411.510937 -559.905298 
L 408.720937 -560.60658 
L 405.930938 -561.179794 
L 403.140937 -561.753716 
L 400.350937 -562.710219 
L 397.560938 -562.881517 
L 394.770938 -565.250919 
L 391.980937 -564.829123 
L 389.190938 -565.698319 
L 386.400938 -567.536178 
L 383.610937 -568.697207 
L 380.820938 -567.878292 
L 378.030938 -569.099101 
L 375.240937 -568.451918 
L 372.450938 -568.075604 
L 369.660938 -568.055441 
L 366.870937 -567.636832 
L 364.080938 -567.622067 
L 361.290938 -568.022731 
L 358.500937 -566.990563 
L 355.710938 -564.276163 
L 352.920938 -564.889687 
L 350.130938 -563.728676 
L 347.340937 -563.356632 
L 344.550938 -563.515405 
L 341.760938 -563.256515 
L 338.970937 -561.602799 
L 336.180938 -559.927766 
L 333.390938 -558.888755 
L 330.600937 -558.740737 
L 327.810938 -558.807177 
L 325.020938 -557.308446 
L 322.230937 -556.16572 
L 319.440938 -556.311422 
L 316.650937 -556.322364 
L 313.860937 -554.873777 
L 311.070938 -554.445674 
L 308.280937 -554.557297 
L 305.490937 -554.482086 
L 302.700938 -552.697931 
L 299.910938 -552.116725 
L 297.120937 -550.486103 
L 294.330938 -549.778668 
L 291.540938 -550.169606 
L 288.750937 -550.618524 
L 285.960938 -550.205083 
L 283.170938 -550.448823 
L 280.380938 -549.053064 
L 277.590937 -548.579965 
L 274.800938 -546.935363 
L 272.010938 -545.931922 
L 269.220937 -545.177258 
L 266.430938 -544.298428 
L 263.640938 -542.738916 
L 260.850937 -541.704561 
L 258.060938 -541.741794 
L 255.270938 -541.876374 
L 252.480938 -541.367665 
L 249.690937 -541.553921 
L 246.900937 -540.145169 
L 244.110938 -540.431625 
L 241.320938 -540.612042 
L 238.530937 -540.724024 
L 235.740938 -540.197074 
L 232.950938 -539.231393 
L 230.160938 -539.05193 
L 227.370937 -538.954319 
L 224.580938 -539.049966 
L 221.790937 -536.336435 
L 219.000938 -534.674428 
L 216.210938 -532.823935 
L 213.420938 -531.212908 
L 210.630938 -531.103156 
L 207.840937 -527.599677 
L 205.050938 -524.746476 
L 202.260938 -519.696084 
L 199.470937 -517.924771 
L 196.680937 -513.426574 
L 193.890938 -507.898339 
L 191.100937 -503.603123 
L 188.310938 -496.470566 
L 185.520938 -492.191071 
L 182.730937 -487.077841 
L 179.940938 -482.360325 
L 177.150937 -479.077522 
L 174.360938 -474.010482 
L 171.570938 -466.785872 
L 168.780937 -461.898881 
L 165.990938 -456.842759 
L 163.200938 -451.46066 
L 160.410937 -443.684541 
L 157.620937 -435.75748 
L 154.830938 -426.538835 
L 152.040937 -413.991503 
L 149.250937 -399.526992 
L 146.460938 -381.466212 
L 143.670938 -360.602666 
L 140.880938 -344.678957 
L 138.090937 -329.375941 
L 135.300938 -318.777345 
L 132.510938 -310.829486 
L 129.720937 -306.781093 
L 126.930937 -300.39527 
L 124.140938 -293.83077 
L 121.350938 -285.86786 
L 118.560937 -277.676775 
L 115.770938 -267.156287 
L 112.980938 -256.861819 
L 110.190938 -244.722534 
L 107.400937 -226.230247 
L 104.610938 -205.94996 
L 101.820937 -172.451604 
L 99.030938 -147.646912 
z
"/>
    </defs>
    <g clip-path="url(#pe7d152de76)">
     <use xlink:href="#m88eaabb5dd" x="0" y="775.307813" style="fill: #d95f02; fill-opacity: 0.1"/>
    </g>
   </g>
   <g id="PolyCollection_4">
    <defs>
     <path id="m3aef9c524d" d="M 99.030938 -130.51194 
L 99.030938 -102.06283 
L 101.820937 -113.168808 
L 104.610938 -118.011892 
L 107.400937 -118.74113 
L 110.190938 -119.017214 
L 112.980938 -127.979513 
L 115.770938 -140.003177 
L 118.560937 -153.07941 
L 121.350938 -164.210243 
L 124.140938 -175.987868 
L 126.930937 -186.582733 
L 129.720937 -197.315667 
L 132.510938 -206.546205 
L 135.300938 -218.273554 
L 138.090937 -229.403809 
L 140.880938 -238.784802 
L 143.670938 -250.345306 
L 146.460938 -261.077937 
L 149.250937 -268.77296 
L 152.040937 -276.876233 
L 154.830938 -283.504857 
L 157.620937 -290.65462 
L 160.410937 -294.476239 
L 163.200938 -298.079756 
L 165.990938 -301.306995 
L 168.780937 -306.130224 
L 171.570938 -311.037111 
L 174.360938 -315.941299 
L 177.150937 -319.763734 
L 179.940938 -323.046518 
L 182.730937 -325.488962 
L 185.520938 -325.963481 
L 188.310938 -327.639463 
L 191.100937 -329.395135 
L 193.890938 -333.065835 
L 196.680937 -336.277322 
L 199.470937 -340.036546 
L 202.260938 -342.203889 
L 205.050938 -344.825094 
L 207.840937 -347.451779 
L 210.630938 -351.548155 
L 213.420938 -353.443856 
L 216.210938 -355.792649 
L 219.000938 -359.622318 
L 221.790937 -363.213852 
L 224.580938 -366.574494 
L 227.370937 -370.413227 
L 230.160938 -375.062047 
L 232.950938 -377.688222 
L 235.740938 -379.6881 
L 238.530937 -382.003988 
L 241.320938 -382.780668 
L 244.110938 -386.716789 
L 246.900937 -391.062475 
L 249.690937 -393.045433 
L 252.480938 -393.42473 
L 255.270938 -396.705467 
L 258.060938 -400.098871 
L 260.850937 -403.412833 
L 263.640938 -405.428882 
L 266.430938 -405.04446 
L 269.220937 -407.593217 
L 272.010938 -410.193212 
L 274.800938 -411.873779 
L 277.590937 -413.895926 
L 280.380938 -417.934004 
L 283.170938 -419.533171 
L 285.960938 -420.898583 
L 288.750937 -422.871322 
L 291.540938 -424.164598 
L 294.330938 -426.482369 
L 297.120937 -428.278845 
L 299.910938 -429.542344 
L 302.700938 -429.439775 
L 305.490937 -428.863974 
L 308.280937 -430.200088 
L 311.070938 -431.724413 
L 313.860937 -432.050292 
L 316.650937 -433.76486 
L 319.440938 -437.384916 
L 322.230937 -439.28698 
L 325.020938 -441.137688 
L 327.810938 -441.986118 
L 330.600937 -444.756432 
L 333.390938 -447.67175 
L 336.180938 -448.344613 
L 338.970937 -448.842188 
L 341.760938 -449.955708 
L 344.550938 -449.172629 
L 347.340937 -448.146996 
L 350.130938 -447.700507 
L 352.920938 -447.356434 
L 355.710938 -447.116071 
L 358.500937 -446.84093 
L 361.290938 -446.303268 
L 364.080938 -444.421342 
L 366.870937 -443.351933 
L 369.660938 -443.037354 
L 372.450938 -442.281546 
L 375.240937 -438.65743 
L 378.030938 -436.755551 
L 380.820938 -435.74326 
L 383.610937 -434.782708 
L 386.400938 -433.595544 
L 389.190938 -432.24882 
L 391.980937 -430.578078 
L 394.770938 -427.890805 
L 397.560938 -424.892423 
L 400.350937 -422.703236 
L 403.140937 -420.204122 
L 405.930938 -416.772626 
L 408.720937 -415.948617 
L 411.510937 -413.760964 
L 414.300938 -411.546309 
L 417.090937 -410.222199 
L 419.880937 -409.566122 
L 422.670938 -410.094641 
L 425.460938 -408.38798 
L 428.250937 -406.750834 
L 431.040938 -405.93665 
L 433.830938 -405.446944 
L 436.620937 -402.907065 
L 439.410938 -401.364137 
L 442.200938 -399.896117 
L 444.990937 -399.305466 
L 447.780938 -399.697482 
L 450.570938 -399.237877 
L 453.360937 -397.122735 
L 456.150938 -396.503285 
L 458.940938 -395.677647 
L 461.730937 -395.883429 
L 464.520938 -397.12166 
L 467.310938 -397.293247 
L 470.100937 -398.054628 
L 472.890937 -398.113352 
L 475.680938 -398.539267 
L 478.470937 -400.001851 
L 481.260937 -400.127035 
L 484.050938 -400.251609 
L 486.840937 -398.718506 
L 489.630937 -398.570184 
L 492.420938 -399.739364 
L 495.210938 -399.478057 
L 498.000937 -399.448195 
L 500.790938 -399.990478 
L 503.580938 -400.874636 
L 506.370937 -401.477224 
L 509.160938 -403.006121 
L 511.950938 -403.496675 
L 514.740937 -405.537431 
L 517.530938 -407.674191 
L 520.320938 -408.41916 
L 523.110937 -408.124582 
L 525.900938 -408.565929 
L 528.690938 -408.611231 
L 531.480937 -409.265543 
L 534.270938 -408.459196 
L 537.060938 -406.822957 
L 539.850937 -406.38511 
L 542.640937 -406.711961 
L 545.430938 -407.565672 
L 548.220937 -408.541473 
L 551.010937 -408.764825 
L 553.800938 -409.577259 
L 556.590937 -408.810835 
L 559.380937 -407.94365 
L 562.170938 -408.203242 
L 564.960938 -408.758105 
L 567.750937 -408.940424 
L 570.540938 -408.730061 
L 573.330938 -408.488244 
L 576.120937 -409.135954 
L 578.910938 -409.018634 
L 581.700938 -408.60063 
L 584.490937 -408.670287 
L 587.280938 -408.883087 
L 590.070938 -409.331027 
L 592.860937 -409.904904 
L 595.650938 -410.727438 
L 598.440938 -410.572107 
L 601.230937 -411.48776 
L 604.020938 -412.295645 
L 606.810938 -412.71918 
L 609.600937 -414.566009 
L 612.390937 -416.310013 
L 615.180938 -418.609241 
L 617.970937 -419.913922 
L 620.760937 -420.193554 
L 623.550938 -418.727637 
L 626.340937 -418.370215 
L 629.130937 -417.625038 
L 631.920938 -417.644226 
L 634.710938 -417.956822 
L 637.500937 -417.695634 
L 640.290937 -417.616385 
L 643.080938 -417.574954 
L 645.870937 -417.537796 
L 648.660937 -419.386415 
L 651.450938 -420.667318 
L 654.240937 -420.383016 
L 654.240937 -501.915835 
L 654.240937 -501.915835 
L 651.450938 -502.33063 
L 648.660937 -505.011533 
L 645.870937 -506.082173 
L 643.080938 -505.288112 
L 640.290937 -505.840703 
L 637.500937 -506.602056 
L 634.710938 -506.686201 
L 631.920938 -507.082496 
L 629.130937 -509.149899 
L 626.340937 -510.36412 
L 623.550938 -510.646784 
L 620.760937 -512.509254 
L 617.970937 -514.679638 
L 615.180938 -516.783975 
L 612.390937 -518.820064 
L 609.600937 -520.277745 
L 606.810938 -520.215154 
L 604.020938 -520.82897 
L 601.230937 -520.80137 
L 598.440938 -520.555174 
L 595.650938 -519.88109 
L 592.860937 -519.540872 
L 590.070938 -518.836986 
L 587.280938 -517.458302 
L 584.490937 -516.16422 
L 581.700938 -514.846823 
L 578.910938 -515.757164 
L 576.120937 -514.739026 
L 573.330938 -513.677532 
L 570.540938 -511.174037 
L 567.750937 -511.091631 
L 564.960938 -509.48767 
L 562.170938 -507.879308 
L 559.380937 -507.574384 
L 556.590937 -507.585436 
L 553.800938 -506.492646 
L 551.010937 -503.842412 
L 548.220937 -503.598496 
L 545.430938 -502.382469 
L 542.640937 -501.793427 
L 539.850937 -501.897181 
L 537.060938 -501.42712 
L 534.270938 -501.451311 
L 531.480937 -501.769179 
L 528.690938 -501.070157 
L 525.900938 -500.37662 
L 523.110937 -500.30072 
L 520.320938 -499.647863 
L 517.530938 -502.233004 
L 514.740937 -502.884258 
L 511.950938 -501.692972 
L 509.160938 -502.67759 
L 506.370937 -503.19939 
L 503.580938 -503.177548 
L 500.790938 -504.278481 
L 498.000937 -503.518312 
L 495.210938 -502.913095 
L 492.420938 -502.235401 
L 489.630937 -501.96243 
L 486.840937 -500.917205 
L 484.050938 -500.267457 
L 481.260937 -499.925063 
L 478.470937 -499.568526 
L 475.680938 -497.757219 
L 472.890937 -497.044767 
L 470.100937 -496.497427 
L 467.310938 -494.337173 
L 464.520938 -494.327815 
L 461.730937 -494.178992 
L 458.940938 -493.839527 
L 456.150938 -494.619824 
L 453.360937 -494.159944 
L 450.570938 -492.7165 
L 447.780938 -492.231906 
L 444.990937 -492.399321 
L 442.200938 -492.128261 
L 439.410938 -493.118671 
L 436.620937 -491.78228 
L 433.830938 -493.652552 
L 431.040938 -492.979491 
L 428.250937 -492.368683 
L 425.460938 -493.018053 
L 422.670938 -493.106403 
L 419.880937 -493.715611 
L 417.090937 -494.330974 
L 414.300938 -494.018628 
L 411.510937 -494.485801 
L 408.720937 -492.81118 
L 405.930938 -492.883472 
L 403.140937 -494.054062 
L 400.350937 -496.521637 
L 397.560938 -495.6066 
L 394.770938 -496.927744 
L 391.980937 -497.323483 
L 389.190938 -497.1253 
L 386.400938 -496.320511 
L 383.610937 -495.745132 
L 380.820938 -495.703462 
L 378.030938 -494.027902 
L 375.240937 -493.34297 
L 372.450938 -494.625928 
L 369.660938 -494.896637 
L 366.870937 -493.382874 
L 364.080938 -491.896627 
L 361.290938 -490.242464 
L 358.500937 -488.91177 
L 355.710938 -487.608156 
L 352.920938 -487.068073 
L 350.130938 -487.764968 
L 347.340937 -487.049919 
L 344.550938 -488.089663 
L 341.760938 -488.758218 
L 338.970937 -488.259931 
L 336.180938 -488.981205 
L 333.390938 -489.43609 
L 330.600937 -488.825817 
L 327.810938 -488.572131 
L 325.020938 -490.446626 
L 322.230937 -490.300602 
L 319.440938 -491.317956 
L 316.650937 -490.93597 
L 313.860937 -490.618731 
L 311.070938 -492.542717 
L 308.280937 -492.880957 
L 305.490937 -495.619178 
L 302.700938 -497.986237 
L 299.910938 -499.047324 
L 297.120937 -500.030071 
L 294.330938 -500.367535 
L 291.540938 -502.480576 
L 288.750937 -504.03413 
L 285.960938 -506.46616 
L 283.170938 -505.368325 
L 280.380938 -505.791643 
L 277.590937 -506.042796 
L 274.800938 -506.24133 
L 272.010938 -508.927036 
L 269.220937 -509.064688 
L 266.430938 -509.840412 
L 263.640938 -508.919173 
L 260.850937 -508.31376 
L 258.060938 -507.364827 
L 255.270938 -509.342545 
L 252.480938 -510.776487 
L 249.690937 -512.225805 
L 246.900937 -513.480311 
L 244.110938 -514.74946 
L 241.320938 -515.471753 
L 238.530937 -516.018622 
L 235.740938 -516.973289 
L 232.950938 -516.026392 
L 230.160938 -515.351969 
L 227.370937 -515.664613 
L 224.580938 -514.283755 
L 221.790937 -512.906797 
L 219.000938 -514.708468 
L 216.210938 -513.852593 
L 213.420938 -513.533618 
L 210.630938 -513.04396 
L 207.840937 -513.500878 
L 205.050938 -514.763873 
L 202.260938 -515.537169 
L 199.470937 -518.752916 
L 196.680937 -518.898454 
L 193.890938 -518.274874 
L 191.100937 -515.478327 
L 188.310938 -513.906936 
L 185.520938 -513.314376 
L 182.730937 -511.022404 
L 179.940938 -506.284806 
L 177.150937 -501.824175 
L 174.360938 -498.427818 
L 171.570938 -494.094204 
L 168.780937 -486.897333 
L 165.990938 -477.655093 
L 163.200938 -469.34055 
L 160.410937 -463.172146 
L 157.620937 -454.416216 
L 154.830938 -441.123351 
L 152.040937 -428.076024 
L 149.250937 -414.620205 
L 146.460938 -397.25283 
L 143.670938 -379.544533 
L 140.880938 -359.641613 
L 138.090937 -338.923187 
L 135.300938 -319.227053 
L 132.510938 -299.779185 
L 129.720937 -280.959909 
L 126.930937 -262.961637 
L 124.140938 -249.950335 
L 121.350938 -239.498228 
L 118.560937 -224.951027 
L 115.770938 -208.273998 
L 112.980938 -193.905308 
L 110.190938 -180.923624 
L 107.400937 -165.614529 
L 104.610938 -146.112732 
L 101.820937 -135.624947 
L 99.030938 -130.51194 
z
"/>
    </defs>
    <g clip-path="url(#pe7d152de76)">
     <use xlink:href="#m3aef9c524d" x="0" y="775.307813" style="fill: #3ccd10; fill-opacity: 0.1"/>
    </g>
   </g>
   <g id="matplotlib.axis_1">
    <g id="xtick_1">
     <g id="line2d_1">
      <defs>
       <path id="m2797e50589" d="M 0 0 
L 0 3.5 
" style="stroke: #000000; stroke-width: 0.8"/>
      </defs>
      <g>
       <use xlink:href="#m2797e50589" x="96.240938" y="688.2" style="stroke: #000000; stroke-width: 0.8"/>
      </g>
     </g>
     <g id="text_1">
      <!-- 0% -->
      <g transform="translate(72.444844 717.995313)scale(0.3 -0.3)">
       <defs>
        <path id="DejaVuSans-30" d="M 2034 4250 
Q 1547 4250 1301 3770 
Q 1056 3291 1056 2328 
Q 1056 1369 1301 889 
Q 1547 409 2034 409 
Q 2525 409 2770 889 
Q 3016 1369 3016 2328 
Q 3016 3291 2770 3770 
Q 2525 4250 2034 4250 
z
M 2034 4750 
Q 2819 4750 3233 4129 
Q 3647 3509 3647 2328 
Q 3647 1150 3233 529 
Q 2819 -91 2034 -91 
Q 1250 -91 836 529 
Q 422 1150 422 2328 
Q 422 3509 836 4129 
Q 1250 4750 2034 4750 
z
" transform="scale(0.015625)"/>
        <path id="DejaVuSans-25" d="M 4653 2053 
Q 4381 2053 4226 1822 
Q 4072 1591 4072 1178 
Q 4072 772 4226 539 
Q 4381 306 4653 306 
Q 4919 306 5073 539 
Q 5228 772 5228 1178 
Q 5228 1588 5073 1820 
Q 4919 2053 4653 2053 
z
M 4653 2450 
Q 5147 2450 5437 2106 
Q 5728 1763 5728 1178 
Q 5728 594 5436 251 
Q 5144 -91 4653 -91 
Q 4153 -91 3862 251 
Q 3572 594 3572 1178 
Q 3572 1766 3864 2108 
Q 4156 2450 4653 2450 
z
M 1428 4353 
Q 1159 4353 1004 4120 
Q 850 3888 850 3481 
Q 850 3069 1003 2837 
Q 1156 2606 1428 2606 
Q 1700 2606 1854 2837 
Q 2009 3069 2009 3481 
Q 2009 3884 1853 4118 
Q 1697 4353 1428 4353 
z
M 4250 4750 
L 4750 4750 
L 1831 -91 
L 1331 -91 
L 4250 4750 
z
M 1428 4750 
Q 1922 4750 2215 4408 
Q 2509 4066 2509 3481 
Q 2509 2891 2217 2550 
Q 1925 2209 1428 2209 
Q 931 2209 642 2551 
Q 353 2894 353 3481 
Q 353 4063 643 4406 
Q 934 4750 1428 4750 
z
" transform="scale(0.015625)"/>
       </defs>
       <use xlink:href="#DejaVuSans-30"/>
       <use xlink:href="#DejaVuSans-25" x="63.623047"/>
      </g>
     </g>
    </g>
    <g id="xtick_2">
     <g id="line2d_2">
      <g>
       <use xlink:href="#m2797e50589" x="165.990938" y="688.2" style="stroke: #000000; stroke-width: 0.8"/>
      </g>
     </g>
     <g id="text_2">
      <!-- 25% -->
      <g transform="translate(132.651094 717.995313)scale(0.3 -0.3)">
       <defs>
        <path id="DejaVuSans-32" d="M 1228 531 
L 3431 531 
L 3431 0 
L 469 0 
L 469 531 
Q 828 903 1448 1529 
Q 2069 2156 2228 2338 
Q 2531 2678 2651 2914 
Q 2772 3150 2772 3378 
Q 2772 3750 2511 3984 
Q 2250 4219 1831 4219 
Q 1534 4219 1204 4116 
Q 875 4013 500 3803 
L 500 4441 
Q 881 4594 1212 4672 
Q 1544 4750 1819 4750 
Q 2544 4750 2975 4387 
Q 3406 4025 3406 3419 
Q 3406 3131 3298 2873 
Q 3191 2616 2906 2266 
Q 2828 2175 2409 1742 
Q 1991 1309 1228 531 
z
" transform="scale(0.015625)"/>
        <path id="DejaVuSans-35" d="M 691 4666 
L 3169 4666 
L 3169 4134 
L 1269 4134 
L 1269 2991 
Q 1406 3038 1543 3061 
Q 1681 3084 1819 3084 
Q 2600 3084 3056 2656 
Q 3513 2228 3513 1497 
Q 3513 744 3044 326 
Q 2575 -91 1722 -91 
Q 1428 -91 1123 -41 
Q 819 9 494 109 
L 494 744 
Q 775 591 1075 516 
Q 1375 441 1709 441 
Q 2250 441 2565 725 
Q 2881 1009 2881 1497 
Q 2881 1984 2565 2268 
Q 2250 2553 1709 2553 
Q 1456 2553 1204 2497 
Q 953 2441 691 2322 
L 691 4666 
z
" transform="scale(0.015625)"/>
       </defs>
       <use xlink:href="#DejaVuSans-32"/>
       <use xlink:href="#DejaVuSans-35" x="63.623047"/>
       <use xlink:href="#DejaVuSans-25" x="127.246094"/>
      </g>
     </g>
    </g>
    <g id="xtick_3">
     <g id="line2d_3">
      <g>
       <use xlink:href="#m2797e50589" x="293.523729" y="688.2" style="stroke: #000000; stroke-width: 0.8"/>
      </g>
     </g>
     <g id="text_3">
      <!-- 50% -->
      <g transform="translate(260.183886 717.995313)scale(0.3 -0.3)">
       <use xlink:href="#DejaVuSans-35"/>
       <use xlink:href="#DejaVuSans-30" x="63.623047"/>
       <use xlink:href="#DejaVuSans-25" x="127.246094"/>
      </g>
     </g>
    </g>
    <g id="xtick_4">
     <g id="line2d_4">
      <g>
       <use xlink:href="#m2797e50589" x="458.672569" y="688.2" style="stroke: #000000; stroke-width: 0.8"/>
      </g>
     </g>
     <g id="text_4">
      <!-- 75% -->
      <g transform="translate(425.332725 717.995313)scale(0.3 -0.3)">
       <defs>
        <path id="DejaVuSans-37" d="M 525 4666 
L 3525 4666 
L 3525 4397 
L 1831 0 
L 1172 0 
L 2766 4134 
L 525 4134 
L 525 4666 
z
" transform="scale(0.015625)"/>
       </defs>
       <use xlink:href="#DejaVuSans-37"/>
       <use xlink:href="#DejaVuSans-35" x="63.623047"/>
       <use xlink:href="#DejaVuSans-25" x="127.246094"/>
      </g>
     </g>
    </g>
    <g id="xtick_5">
     <g id="line2d_5">
      <g>
       <use xlink:href="#m2797e50589" x="654.240937" y="688.2" style="stroke: #000000; stroke-width: 0.8"/>
      </g>
     </g>
     <g id="text_5">
      <!-- 100% -->
      <g transform="translate(611.357344 717.995313)scale(0.3 -0.3)">
       <defs>
        <path id="DejaVuSans-31" d="M 794 531 
L 1825 531 
L 1825 4091 
L 703 3866 
L 703 4441 
L 1819 4666 
L 2450 4666 
L 2450 531 
L 3481 531 
L 3481 0 
L 794 0 
L 794 531 
z
" transform="scale(0.015625)"/>
       </defs>
       <use xlink:href="#DejaVuSans-31"/>
       <use xlink:href="#DejaVuSans-30" x="63.623047"/>
       <use xlink:href="#DejaVuSans-30" x="127.246094"/>
       <use xlink:href="#DejaVuSans-25" x="190.869141"/>
      </g>
     </g>
    </g>
    <g id="text_6">
     <!-- Progress percent -->
     <g transform="translate(227.994844 760.828906)scale(0.35 -0.35)">
      <defs>
       <path id="DejaVuSans-50" d="M 1259 4147 
L 1259 2394 
L 2053 2394 
Q 2494 2394 2734 2622 
Q 2975 2850 2975 3272 
Q 2975 3691 2734 3919 
Q 2494 4147 2053 4147 
L 1259 4147 
z
M 628 4666 
L 2053 4666 
Q 2838 4666 3239 4311 
Q 3641 3956 3641 3272 
Q 3641 2581 3239 2228 
Q 2838 1875 2053 1875 
L 1259 1875 
L 1259 0 
L 628 0 
L 628 4666 
z
" transform="scale(0.015625)"/>
       <path id="DejaVuSans-72" d="M 2631 2963 
Q 2534 3019 2420 3045 
Q 2306 3072 2169 3072 
Q 1681 3072 1420 2755 
Q 1159 2438 1159 1844 
L 1159 0 
L 581 0 
L 581 3500 
L 1159 3500 
L 1159 2956 
Q 1341 3275 1631 3429 
Q 1922 3584 2338 3584 
Q 2397 3584 2469 3576 
Q 2541 3569 2628 3553 
L 2631 2963 
z
" transform="scale(0.015625)"/>
       <path id="DejaVuSans-6f" d="M 1959 3097 
Q 1497 3097 1228 2736 
Q 959 2375 959 1747 
Q 959 1119 1226 758 
Q 1494 397 1959 397 
Q 2419 397 2687 759 
Q 2956 1122 2956 1747 
Q 2956 2369 2687 2733 
Q 2419 3097 1959 3097 
z
M 1959 3584 
Q 2709 3584 3137 3096 
Q 3566 2609 3566 1747 
Q 3566 888 3137 398 
Q 2709 -91 1959 -91 
Q 1206 -91 779 398 
Q 353 888 353 1747 
Q 353 2609 779 3096 
Q 1206 3584 1959 3584 
z
" transform="scale(0.015625)"/>
       <path id="DejaVuSans-67" d="M 2906 1791 
Q 2906 2416 2648 2759 
Q 2391 3103 1925 3103 
Q 1463 3103 1205 2759 
Q 947 2416 947 1791 
Q 947 1169 1205 825 
Q 1463 481 1925 481 
Q 2391 481 2648 825 
Q 2906 1169 2906 1791 
z
M 3481 434 
Q 3481 -459 3084 -895 
Q 2688 -1331 1869 -1331 
Q 1566 -1331 1297 -1286 
Q 1028 -1241 775 -1147 
L 775 -588 
Q 1028 -725 1275 -790 
Q 1522 -856 1778 -856 
Q 2344 -856 2625 -561 
Q 2906 -266 2906 331 
L 2906 616 
Q 2728 306 2450 153 
Q 2172 0 1784 0 
Q 1141 0 747 490 
Q 353 981 353 1791 
Q 353 2603 747 3093 
Q 1141 3584 1784 3584 
Q 2172 3584 2450 3431 
Q 2728 3278 2906 2969 
L 2906 3500 
L 3481 3500 
L 3481 434 
z
" transform="scale(0.015625)"/>
       <path id="DejaVuSans-65" d="M 3597 1894 
L 3597 1613 
L 953 1613 
Q 991 1019 1311 708 
Q 1631 397 2203 397 
Q 2534 397 2845 478 
Q 3156 559 3463 722 
L 3463 178 
Q 3153 47 2828 -22 
Q 2503 -91 2169 -91 
Q 1331 -91 842 396 
Q 353 884 353 1716 
Q 353 2575 817 3079 
Q 1281 3584 2069 3584 
Q 2775 3584 3186 3129 
Q 3597 2675 3597 1894 
z
M 3022 2063 
Q 3016 2534 2758 2815 
Q 2500 3097 2075 3097 
Q 1594 3097 1305 2825 
Q 1016 2553 972 2059 
L 3022 2063 
z
" transform="scale(0.015625)"/>
       <path id="DejaVuSans-73" d="M 2834 3397 
L 2834 2853 
Q 2591 2978 2328 3040 
Q 2066 3103 1784 3103 
Q 1356 3103 1142 2972 
Q 928 2841 928 2578 
Q 928 2378 1081 2264 
Q 1234 2150 1697 2047 
L 1894 2003 
Q 2506 1872 2764 1633 
Q 3022 1394 3022 966 
Q 3022 478 2636 193 
Q 2250 -91 1575 -91 
Q 1294 -91 989 -36 
Q 684 19 347 128 
L 347 722 
Q 666 556 975 473 
Q 1284 391 1588 391 
Q 1994 391 2212 530 
Q 2431 669 2431 922 
Q 2431 1156 2273 1281 
Q 2116 1406 1581 1522 
L 1381 1569 
Q 847 1681 609 1914 
Q 372 2147 372 2553 
Q 372 3047 722 3315 
Q 1072 3584 1716 3584 
Q 2034 3584 2315 3537 
Q 2597 3491 2834 3397 
z
" transform="scale(0.015625)"/>
       <path id="DejaVuSans-20" transform="scale(0.015625)"/>
       <path id="DejaVuSans-70" d="M 1159 525 
L 1159 -1331 
L 581 -1331 
L 581 3500 
L 1159 3500 
L 1159 2969 
Q 1341 3281 1617 3432 
Q 1894 3584 2278 3584 
Q 2916 3584 3314 3078 
Q 3713 2572 3713 1747 
Q 3713 922 3314 415 
Q 2916 -91 2278 -91 
Q 1894 -91 1617 61 
Q 1341 213 1159 525 
z
M 3116 1747 
Q 3116 2381 2855 2742 
Q 2594 3103 2138 3103 
Q 1681 3103 1420 2742 
Q 1159 2381 1159 1747 
Q 1159 1113 1420 752 
Q 1681 391 2138 391 
Q 2594 391 2855 752 
Q 3116 1113 3116 1747 
z
" transform="scale(0.015625)"/>
       <path id="DejaVuSans-63" d="M 3122 3366 
L 3122 2828 
Q 2878 2963 2633 3030 
Q 2388 3097 2138 3097 
Q 1578 3097 1268 2742 
Q 959 2388 959 1747 
Q 959 1106 1268 751 
Q 1578 397 2138 397 
Q 2388 397 2633 464 
Q 2878 531 3122 666 
L 3122 134 
Q 2881 22 2623 -34 
Q 2366 -91 2075 -91 
Q 1284 -91 818 406 
Q 353 903 353 1747 
Q 353 2603 823 3093 
Q 1294 3584 2113 3584 
Q 2378 3584 2631 3529 
Q 2884 3475 3122 3366 
z
" transform="scale(0.015625)"/>
       <path id="DejaVuSans-6e" d="M 3513 2113 
L 3513 0 
L 2938 0 
L 2938 2094 
Q 2938 2591 2744 2837 
Q 2550 3084 2163 3084 
Q 1697 3084 1428 2787 
Q 1159 2491 1159 1978 
L 1159 0 
L 581 0 
L 581 3500 
L 1159 3500 
L 1159 2956 
Q 1366 3272 1645 3428 
Q 1925 3584 2291 3584 
Q 2894 3584 3203 3211 
Q 3513 2838 3513 2113 
z
" transform="scale(0.015625)"/>
       <path id="DejaVuSans-74" d="M 1172 4494 
L 1172 3500 
L 2356 3500 
L 2356 3053 
L 1172 3053 
L 1172 1153 
Q 1172 725 1289 603 
Q 1406 481 1766 481 
L 2356 481 
L 2356 0 
L 1766 0 
Q 1100 0 847 248 
Q 594 497 594 1153 
L 594 3053 
L 172 3053 
L 172 3500 
L 594 3500 
L 594 4494 
L 1172 4494 
z
" transform="scale(0.015625)"/>
      </defs>
      <use xlink:href="#DejaVuSans-50"/>
      <use xlink:href="#DejaVuSans-72" x="58.552734"/>
      <use xlink:href="#DejaVuSans-6f" x="97.416016"/>
      <use xlink:href="#DejaVuSans-67" x="158.597656"/>
      <use xlink:href="#DejaVuSans-72" x="222.074219"/>
      <use xlink:href="#DejaVuSans-65" x="260.9375"/>
      <use xlink:href="#DejaVuSans-73" x="322.460938"/>
      <use xlink:href="#DejaVuSans-73" x="374.560547"/>
      <use xlink:href="#DejaVuSans-20" x="426.660156"/>
      <use xlink:href="#DejaVuSans-70" x="458.447266"/>
      <use xlink:href="#DejaVuSans-65" x="521.923828"/>
      <use xlink:href="#DejaVuSans-72" x="583.447266"/>
      <use xlink:href="#DejaVuSans-63" x="622.310547"/>
      <use xlink:href="#DejaVuSans-65" x="677.291016"/>
      <use xlink:href="#DejaVuSans-6e" x="738.814453"/>
      <use xlink:href="#DejaVuSans-74" x="802.193359"/>
     </g>
    </g>
   </g>
   <g id="matplotlib.axis_2">
    <g id="ytick_1">
     <g id="line2d_6">
      <defs>
       <path id="ma341fbe36f" d="M 0 0 
L -3.5 0 
" style="stroke: #000000; stroke-width: 0.8"/>
      </defs>
      <g>
       <use xlink:href="#ma341fbe36f" x="96.240938" y="587.4" style="stroke: #000000; stroke-width: 0.8"/>
      </g>
     </g>
     <g id="text_7">
      <!-- 0.2 -->
      <g transform="translate(51.073438 596.518125)scale(0.24 -0.24)">
       <defs>
        <path id="DejaVuSans-2e" d="M 684 794 
L 1344 794 
L 1344 0 
L 684 0 
L 684 794 
z
" transform="scale(0.015625)"/>
       </defs>
       <use xlink:href="#DejaVuSans-30"/>
       <use xlink:href="#DejaVuSans-2e" x="63.623047"/>
       <use xlink:href="#DejaVuSans-32" x="95.410156"/>
      </g>
     </g>
    </g>
    <g id="ytick_2">
     <g id="line2d_7">
      <g>
       <use xlink:href="#ma341fbe36f" x="96.240938" y="486.6" style="stroke: #000000; stroke-width: 0.8"/>
      </g>
     </g>
     <g id="text_8">
      <!-- 0.4 -->
      <g transform="translate(51.073438 495.718125)scale(0.24 -0.24)">
       <defs>
        <path id="DejaVuSans-34" d="M 2419 4116 
L 825 1625 
L 2419 1625 
L 2419 4116 
z
M 2253 4666 
L 3047 4666 
L 3047 1625 
L 3713 1625 
L 3713 1100 
L 3047 1100 
L 3047 0 
L 2419 0 
L 2419 1100 
L 313 1100 
L 313 1709 
L 2253 4666 
z
" transform="scale(0.015625)"/>
       </defs>
       <use xlink:href="#DejaVuSans-30"/>
       <use xlink:href="#DejaVuSans-2e" x="63.623047"/>
       <use xlink:href="#DejaVuSans-34" x="95.410156"/>
      </g>
     </g>
    </g>
    <g id="ytick_3">
     <g id="line2d_8">
      <g>
       <use xlink:href="#ma341fbe36f" x="96.240938" y="385.8" style="stroke: #000000; stroke-width: 0.8"/>
      </g>
     </g>
     <g id="text_9">
      <!-- 0.6 -->
      <g transform="translate(51.073438 394.918125)scale(0.24 -0.24)">
       <defs>
        <path id="DejaVuSans-36" d="M 2113 2584 
Q 1688 2584 1439 2293 
Q 1191 2003 1191 1497 
Q 1191 994 1439 701 
Q 1688 409 2113 409 
Q 2538 409 2786 701 
Q 3034 994 3034 1497 
Q 3034 2003 2786 2293 
Q 2538 2584 2113 2584 
z
M 3366 4563 
L 3366 3988 
Q 3128 4100 2886 4159 
Q 2644 4219 2406 4219 
Q 1781 4219 1451 3797 
Q 1122 3375 1075 2522 
Q 1259 2794 1537 2939 
Q 1816 3084 2150 3084 
Q 2853 3084 3261 2657 
Q 3669 2231 3669 1497 
Q 3669 778 3244 343 
Q 2819 -91 2113 -91 
Q 1303 -91 875 529 
Q 447 1150 447 2328 
Q 447 3434 972 4092 
Q 1497 4750 2381 4750 
Q 2619 4750 2861 4703 
Q 3103 4656 3366 4563 
z
" transform="scale(0.015625)"/>
       </defs>
       <use xlink:href="#DejaVuSans-30"/>
       <use xlink:href="#DejaVuSans-2e" x="63.623047"/>
       <use xlink:href="#DejaVuSans-36" x="95.410156"/>
      </g>
     </g>
    </g>
    <g id="ytick_4">
     <g id="line2d_9">
      <g>
       <use xlink:href="#ma341fbe36f" x="96.240938" y="285" style="stroke: #000000; stroke-width: 0.8"/>
      </g>
     </g>
     <g id="text_10">
      <!-- 0.8 -->
      <g transform="translate(51.073438 294.118125)scale(0.24 -0.24)">
       <defs>
        <path id="DejaVuSans-38" d="M 2034 2216 
Q 1584 2216 1326 1975 
Q 1069 1734 1069 1313 
Q 1069 891 1326 650 
Q 1584 409 2034 409 
Q 2484 409 2743 651 
Q 3003 894 3003 1313 
Q 3003 1734 2745 1975 
Q 2488 2216 2034 2216 
z
M 1403 2484 
Q 997 2584 770 2862 
Q 544 3141 544 3541 
Q 544 4100 942 4425 
Q 1341 4750 2034 4750 
Q 2731 4750 3128 4425 
Q 3525 4100 3525 3541 
Q 3525 3141 3298 2862 
Q 3072 2584 2669 2484 
Q 3125 2378 3379 2068 
Q 3634 1759 3634 1313 
Q 3634 634 3220 271 
Q 2806 -91 2034 -91 
Q 1263 -91 848 271 
Q 434 634 434 1313 
Q 434 1759 690 2068 
Q 947 2378 1403 2484 
z
M 1172 3481 
Q 1172 3119 1398 2916 
Q 1625 2713 2034 2713 
Q 2441 2713 2670 2916 
Q 2900 3119 2900 3481 
Q 2900 3844 2670 4047 
Q 2441 4250 2034 4250 
Q 1625 4250 1398 4047 
Q 1172 3844 1172 3481 
z
" transform="scale(0.015625)"/>
       </defs>
       <use xlink:href="#DejaVuSans-30"/>
       <use xlink:href="#DejaVuSans-2e" x="63.623047"/>
       <use xlink:href="#DejaVuSans-38" x="95.410156"/>
      </g>
     </g>
    </g>
    <g id="ytick_5">
     <g id="line2d_10">
      <g>
       <use xlink:href="#ma341fbe36f" x="96.240938" y="184.2" style="stroke: #000000; stroke-width: 0.8"/>
      </g>
     </g>
     <g id="text_11">
      <!-- 1.0 -->
      <g transform="translate(51.073438 193.318125)scale(0.24 -0.24)">
       <use xlink:href="#DejaVuSans-31"/>
       <use xlink:href="#DejaVuSans-2e" x="63.623047"/>
       <use xlink:href="#DejaVuSans-30" x="95.410156"/>
      </g>
     </g>
    </g>
    <g id="text_12">
     <!-- Waypoint progress -->
     <g transform="translate(33.794531 573.990625)rotate(-90)scale(0.35 -0.35)">
      <defs>
       <path id="DejaVuSans-57" d="M 213 4666 
L 850 4666 
L 1831 722 
L 2809 4666 
L 3519 4666 
L 4500 722 
L 5478 4666 
L 6119 4666 
L 4947 0 
L 4153 0 
L 3169 4050 
L 2175 0 
L 1381 0 
L 213 4666 
z
" transform="scale(0.015625)"/>
       <path id="DejaVuSans-61" d="M 2194 1759 
Q 1497 1759 1228 1600 
Q 959 1441 959 1056 
Q 959 750 1161 570 
Q 1363 391 1709 391 
Q 2188 391 2477 730 
Q 2766 1069 2766 1631 
L 2766 1759 
L 2194 1759 
z
M 3341 1997 
L 3341 0 
L 2766 0 
L 2766 531 
Q 2569 213 2275 61 
Q 1981 -91 1556 -91 
Q 1019 -91 701 211 
Q 384 513 384 1019 
Q 384 1609 779 1909 
Q 1175 2209 1959 2209 
L 2766 2209 
L 2766 2266 
Q 2766 2663 2505 2880 
Q 2244 3097 1772 3097 
Q 1472 3097 1187 3025 
Q 903 2953 641 2809 
L 641 3341 
Q 956 3463 1253 3523 
Q 1550 3584 1831 3584 
Q 2591 3584 2966 3190 
Q 3341 2797 3341 1997 
z
" transform="scale(0.015625)"/>
       <path id="DejaVuSans-79" d="M 2059 -325 
Q 1816 -950 1584 -1140 
Q 1353 -1331 966 -1331 
L 506 -1331 
L 506 -850 
L 844 -850 
Q 1081 -850 1212 -737 
Q 1344 -625 1503 -206 
L 1606 56 
L 191 3500 
L 800 3500 
L 1894 763 
L 2988 3500 
L 3597 3500 
L 2059 -325 
z
" transform="scale(0.015625)"/>
       <path id="DejaVuSans-69" d="M 603 3500 
L 1178 3500 
L 1178 0 
L 603 0 
L 603 3500 
z
M 603 4863 
L 1178 4863 
L 1178 4134 
L 603 4134 
L 603 4863 
z
" transform="scale(0.015625)"/>
      </defs>
      <use xlink:href="#DejaVuSans-57"/>
      <use xlink:href="#DejaVuSans-61" x="92.501953"/>
      <use xlink:href="#DejaVuSans-79" x="153.78125"/>
      <use xlink:href="#DejaVuSans-70" x="212.960938"/>
      <use xlink:href="#DejaVuSans-6f" x="276.4375"/>
      <use xlink:href="#DejaVuSans-69" x="337.619141"/>
      <use xlink:href="#DejaVuSans-6e" x="365.402344"/>
      <use xlink:href="#DejaVuSans-74" x="428.78125"/>
      <use xlink:href="#DejaVuSans-20" x="467.990234"/>
      <use xlink:href="#DejaVuSans-70" x="499.777344"/>
      <use xlink:href="#DejaVuSans-72" x="563.253906"/>
      <use xlink:href="#DejaVuSans-6f" x="602.117188"/>
      <use xlink:href="#DejaVuSans-67" x="663.298828"/>
      <use xlink:href="#DejaVuSans-72" x="726.775391"/>
      <use xlink:href="#DejaVuSans-65" x="765.638672"/>
      <use xlink:href="#DejaVuSans-73" x="827.162109"/>
      <use xlink:href="#DejaVuSans-73" x="879.261719"/>
     </g>
    </g>
   </g>
   <g id="line2d_11">
    <path d="M 96.240938 504.646452 
L 99.030938 467.651585 
L 101.820937 419.717648 
L 104.610938 399.115454 
L 107.400937 389.738401 
L 110.190938 383.831126 
L 112.980938 382.867022 
L 115.770938 365.438455 
L 118.560937 352.365737 
L 121.350938 353.921448 
L 124.140938 357.488949 
L 126.930937 362.430978 
L 129.720937 368.477 
L 132.510938 372.353181 
L 135.300938 375.345816 
L 138.090937 378.873742 
L 140.880938 382.011695 
L 146.460938 382.833113 
L 149.250937 386.640323 
L 152.040937 385.907371 
L 154.830938 386.342065 
L 157.620937 384.697699 
L 160.410937 381.513635 
L 163.200938 379.944355 
L 165.990938 377.732967 
L 168.780937 376.140387 
L 171.570938 374.314946 
L 177.150937 370.178538 
L 179.940938 368.449747 
L 182.730937 368.741978 
L 185.520938 369.241733 
L 188.310938 367.910022 
L 191.100937 366.759339 
L 193.890938 366.073074 
L 196.680937 367.107049 
L 199.470937 369.036806 
L 202.260938 371.766942 
L 205.050938 374.123157 
L 207.840937 374.720219 
L 210.630938 374.748837 
L 213.420938 372.64237 
L 216.210938 372.339105 
L 219.000938 372.20329 
L 221.790937 373.672705 
L 224.580938 376.471755 
L 227.370937 377.629615 
L 230.160938 376.400671 
L 232.950938 376.317634 
L 235.740938 377.12003 
L 238.530937 378.763389 
L 241.320938 380.751239 
L 244.110938 381.395312 
L 246.900937 381.841634 
L 249.690937 380.677837 
L 252.480938 379.667006 
L 255.270938 376.834445 
L 258.060938 376.216353 
L 260.850937 377.923976 
L 263.640938 378.227084 
L 266.430938 379.153191 
L 269.220937 379.854071 
L 272.010938 379.611097 
L 274.800938 380.909123 
L 277.590937 381.279897 
L 280.380938 380.786359 
L 285.960938 381.047723 
L 288.750937 379.891277 
L 291.540938 379.732897 
L 294.330938 378.498097 
L 299.910938 378.351097 
L 302.700938 377.946 
L 305.490937 376.839865 
L 308.280937 376.967415 
L 311.070938 378.333981 
L 316.650937 384.307163 
L 319.440938 385.152116 
L 322.230937 385.440305 
L 325.020938 387.066955 
L 327.810938 390.485363 
L 330.600937 392.837845 
L 333.390938 393.652163 
L 336.180938 394.058961 
L 341.760938 396.136019 
L 344.550938 396.768458 
L 347.340937 397.649374 
L 350.130938 398.731529 
L 352.920938 398.383065 
L 355.710938 397.423402 
L 358.500937 396.132376 
L 361.290938 395.733587 
L 364.080938 397.748368 
L 369.660938 397.83011 
L 372.450938 397.392361 
L 375.240937 396.391948 
L 378.030938 395.828787 
L 380.820938 394.749673 
L 383.610937 392.563897 
L 386.400938 391.625174 
L 389.190938 390.485755 
L 391.980937 389.159548 
L 394.770938 387.092516 
L 397.560938 385.511058 
L 400.350937 383.059417 
L 405.930938 379.589645 
L 408.720937 378.678065 
L 411.510937 378.228544 
L 414.300938 377.296581 
L 419.880937 376.962538 
L 422.670938 377.31469 
L 425.460938 376.176355 
L 428.250937 375.744086 
L 431.040938 374.467918 
L 433.830938 372.745196 
L 436.620937 372.6162 
L 439.410938 372.372555 
L 442.200938 371.471 
L 444.990937 370.023626 
L 447.780938 369.137215 
L 450.570938 368.01729 
L 453.360937 368.468708 
L 456.150938 367.187602 
L 458.940938 365.640692 
L 461.730937 365.889065 
L 464.520938 366.406161 
L 467.310938 367.698452 
L 470.100937 367.078462 
L 472.890937 366.970301 
L 475.680938 367.017826 
L 478.470937 366.558731 
L 481.260937 366.585452 
L 484.050938 365.785645 
L 486.840937 365.703828 
L 489.630937 365.400946 
L 492.420938 365.728516 
L 495.210938 364.772753 
L 498.000937 365.214505 
L 500.790938 365.070065 
L 503.580938 364.193333 
L 506.370937 364.354333 
L 509.160938 365.642634 
L 511.950938 365.411168 
L 514.740937 364.988127 
L 517.530938 365.982684 
L 520.320938 366.672312 
L 523.110937 365.888161 
L 525.900938 365.919097 
L 528.690938 364.771247 
L 531.480937 365.587387 
L 534.270938 367.572406 
L 537.060938 369.273978 
L 539.850937 369.097849 
L 542.640937 368.060118 
L 545.430938 368.179194 
L 548.220937 367.700484 
L 551.010937 367.047346 
L 553.800938 368.458892 
L 556.590937 369.17357 
L 559.380937 368.452194 
L 562.170938 369.000301 
L 564.960938 368.741 
L 567.750937 368.043484 
L 570.540938 369.03086 
L 573.330938 370.288753 
L 576.120937 370.614591 
L 578.910938 371.312333 
L 581.700938 372.751097 
L 584.490937 374.329634 
L 587.280938 374.428839 
L 590.070938 374.237806 
L 592.860937 373.894806 
L 595.650938 373.893075 
L 598.440938 372.451753 
L 601.230937 370.670366 
L 604.020938 371.792247 
L 606.810938 372.357441 
L 609.600937 373.802527 
L 615.180938 373.307303 
L 617.970937 372.715645 
L 620.760937 371.921785 
L 623.550938 371.959931 
L 626.340937 373.158753 
L 631.920938 374.818581 
L 637.500937 374.892344 
L 640.290937 376.420753 
L 643.080938 378.472204 
L 645.870937 378.502763 
L 648.660937 378.906129 
L 651.450938 380.960817 
L 654.240937 380.443871 
L 654.240937 380.443871 
" clip-path="url(#pe7d152de76)" style="fill: none; stroke: #17becf; stroke-width: 4; stroke-linecap: square"/>
   </g>
   <g id="line2d_12">
    <path d="M 99.030938 505.395024 
L 101.820937 486.799907 
L 104.610938 464.872715 
L 112.980938 432.093999 
L 115.770938 421.477103 
L 118.560937 416.0038 
L 121.350938 410.915091 
L 124.140938 406.554256 
L 126.930937 402.63221 
L 129.720937 398.353453 
L 132.510938 393.156873 
L 135.300938 390.243716 
L 138.090937 385.845335 
L 140.880938 383.961429 
L 143.670938 380.993979 
L 149.250937 372.608651 
L 152.040937 367.113878 
L 154.830938 361.153527 
L 157.620937 357.86729 
L 160.410937 353.990344 
L 163.200938 351.057043 
L 165.990938 349.25729 
L 168.780937 349.078151 
L 171.570938 348.029806 
L 174.360938 347.404323 
L 179.940938 351.786699 
L 182.730937 351.503161 
L 185.520938 352.123527 
L 188.310938 353.084559 
L 191.100937 354.627871 
L 193.890938 355.532903 
L 196.680937 356.71914 
L 199.470937 358.338473 
L 202.260938 362.144742 
L 205.050938 364.440215 
L 207.840937 365.646172 
L 210.630938 368.480871 
L 213.420938 372.160086 
L 216.210938 374.444194 
L 219.000938 377.112323 
L 224.580938 383.614043 
L 227.370937 386.425785 
L 232.950938 389.870839 
L 235.740938 392.533548 
L 238.530937 394.590194 
L 241.320938 395.265957 
L 244.110938 395.730215 
L 246.900937 397.951097 
L 249.690937 399.593161 
L 252.480938 400.047484 
L 255.270938 403.002989 
L 260.850937 408.285054 
L 263.640938 410.587677 
L 266.430938 411.765183 
L 269.220937 413.698538 
L 272.010938 415.067828 
L 274.800938 415.135871 
L 277.590937 415.822473 
L 280.380938 417.282387 
L 283.170938 417.761097 
L 285.960938 418.101462 
L 288.750937 417.788946 
L 291.540938 419.093204 
L 294.330938 418.674409 
L 297.120937 418.503097 
L 299.910938 420.014645 
L 302.700938 421.280065 
L 305.490937 421.968323 
L 308.280937 421.733484 
L 311.070938 421.084065 
L 313.860937 421.878301 
L 316.650937 423.910559 
L 319.440938 424.180774 
L 322.230937 424.266731 
L 325.020938 422.868387 
L 327.810938 421.889591 
L 330.600937 421.341333 
L 333.390938 421.310323 
L 338.970937 417.68914 
L 341.760938 415.619548 
L 344.550938 414.34329 
L 347.340937 414.801527 
L 350.130938 414.165505 
L 352.920938 412.539398 
L 355.710938 411.39471 
L 358.500937 411.385376 
L 361.290938 411.763226 
L 364.080938 409.757914 
L 366.870937 408.430323 
L 369.660938 406.880839 
L 372.450938 404.80372 
L 375.240937 403.117097 
L 378.030938 401.977075 
L 380.820938 400.975097 
L 383.610937 399.786602 
L 386.400938 398.783269 
L 389.190938 396.924129 
L 391.980937 395.30314 
L 394.770938 394.912645 
L 397.560938 394.312151 
L 400.350937 393.872129 
L 403.140937 392.485527 
L 405.930938 391.54 
L 408.720937 391.073183 
L 411.510937 390.119226 
L 414.300938 389.803548 
L 417.090937 387.935376 
L 419.880937 386.702473 
L 425.460938 385.139742 
L 428.250937 383.259075 
L 433.830938 380.760452 
L 436.620937 379.274645 
L 439.410938 378.980796 
L 447.780938 375.538151 
L 450.570938 375.168129 
L 453.360937 374.090129 
L 456.150938 373.292129 
L 458.940938 372.895613 
L 461.730937 372.780452 
L 464.520938 372.801376 
L 467.310938 371.960323 
L 470.100937 370.594194 
L 472.890937 368.999548 
L 475.680938 367.746323 
L 478.470937 367.690022 
L 481.260937 366.368903 
L 484.050938 365.555548 
L 486.840937 364.43871 
L 489.630937 364.742194 
L 495.210938 363.544215 
L 498.000937 362.671097 
L 500.790938 362.701355 
L 503.580938 362.010839 
L 506.370937 361.068774 
L 509.160938 361.006903 
L 511.950938 360.673161 
L 514.740937 361.56871 
L 517.530938 361.193419 
L 520.320938 360.95 
L 523.110937 360.253161 
L 525.900938 360.300581 
L 528.690938 359.16071 
L 537.060938 357.175871 
L 539.850937 357.770194 
L 542.640937 356.749097 
L 545.430938 356.996581 
L 548.220937 356.53729 
L 551.010937 355.732968 
L 553.800938 354.49329 
L 556.590937 353.959032 
L 559.380937 353.978 
L 564.960938 352.380946 
L 567.750937 351.678839 
L 570.540938 350.679419 
L 573.330938 349.815484 
L 576.120937 349.342194 
L 578.910938 348.325161 
L 581.700938 348.279097 
L 584.490937 347.474774 
L 587.280938 346.43471 
L 590.070938 346.035032 
L 592.860937 344.817032 
L 595.650938 343.841548 
L 598.440938 343.148774 
L 601.230937 342.664194 
L 604.020938 343.487935 
L 606.810938 343.359226 
L 609.600937 342.723355 
L 617.970937 339.724194 
L 626.340937 337.840516 
L 629.130937 338.148968 
L 631.920938 337.337871 
L 634.710938 337.200129 
L 637.500937 336.944516 
L 640.290937 336.141548 
L 643.080938 335.660129 
L 645.870937 335.329097 
L 648.660937 334.769548 
L 654.240937 332.208903 
L 654.240937 332.208903 
" clip-path="url(#pe7d152de76)" style="fill: none; stroke: #36128b; stroke-width: 4; stroke-linecap: square"/>
   </g>
   <g id="line2d_13">
    <path d="M 99.030938 639.531279 
L 101.820937 630.578764 
L 104.610938 614.684873 
L 107.400937 596.157689 
L 110.190938 575.081097 
L 112.980938 559.884356 
L 115.770938 548.76174 
L 118.560937 538.134328 
L 121.350938 529.768294 
L 124.140938 520.125063 
L 132.510938 494.255787 
L 135.300938 483.581543 
L 138.090937 468.928204 
L 143.670938 435.379555 
L 149.250937 399.327297 
L 152.040937 383.968981 
L 154.830938 372.202839 
L 157.620937 364.885099 
L 160.410937 358.618277 
L 163.200938 352.007026 
L 165.990938 346.632065 
L 168.780937 340.647245 
L 174.360938 327.229148 
L 177.150937 322.495884 
L 179.940938 320.535312 
L 182.730937 316.477194 
L 185.520938 312.946845 
L 188.310938 309.674774 
L 191.100937 305.06772 
L 193.890938 302.108903 
L 196.680937 298.798355 
L 199.470937 296.792516 
L 202.260938 296.536602 
L 205.050938 294.040989 
L 207.840937 291.073667 
L 210.630938 287.604226 
L 213.420938 287.897097 
L 216.210938 287.697108 
L 219.000938 287.337247 
L 221.790937 286.38728 
L 227.370937 282.735839 
L 230.160938 282.105989 
L 232.950938 281.351194 
L 238.530937 277.785183 
L 241.320938 277.021054 
L 244.110938 276.413634 
L 246.900937 276.060323 
L 249.690937 274.957258 
L 252.480938 274.087828 
L 258.060938 271.599591 
L 260.850937 270.717215 
L 263.640938 270.40357 
L 266.430938 268.637914 
L 269.220937 268.476387 
L 272.010938 268.57228 
L 274.800938 267.699613 
L 277.590937 265.803892 
L 280.380938 263.61071 
L 283.170938 262.267613 
L 285.960938 262.694839 
L 288.750937 262.690548 
L 291.540938 262.139054 
L 294.330938 262.091032 
L 297.120937 261.427011 
L 299.910938 259.847194 
L 302.700938 259.407699 
L 305.490937 258.191806 
L 308.280937 257.578516 
L 311.070938 256.543269 
L 313.860937 255.740753 
L 316.650937 255.094645 
L 319.440938 255.500043 
L 322.230937 255.524581 
L 325.020938 254.506194 
L 327.810938 252.683333 
L 336.180938 251.442903 
L 338.970937 249.736258 
L 341.760938 248.403699 
L 350.130938 246.319355 
L 352.920938 244.442301 
L 355.710938 243.972323 
L 358.500937 241.930882 
L 361.290938 240.937484 
L 364.080938 240.511613 
L 366.870937 239.789785 
L 372.450938 239.072925 
L 375.240937 239.011505 
L 378.030938 238.27929 
L 380.820938 238.958366 
L 386.400938 237.281828 
L 389.190938 238.60972 
L 391.980937 238.665871 
L 394.770938 237.526602 
L 397.560938 238.176323 
L 400.350937 238.091871 
L 403.140937 238.983957 
L 405.930938 238.997054 
L 408.720937 239.575419 
L 411.510937 240.318323 
L 417.090937 240.616538 
L 419.880937 240.788151 
L 422.670938 242.053419 
L 425.460938 242.819204 
L 428.250937 242.807763 
L 431.040938 242.988409 
L 433.830938 243.817419 
L 436.620937 243.260731 
L 439.410938 243.373484 
L 442.200938 243.927763 
L 444.990937 243.320645 
L 447.780938 243.508215 
L 450.570938 242.17129 
L 453.360937 241.434559 
L 456.150938 240.994237 
L 458.940938 242.223075 
L 461.730937 242.244903 
L 464.520938 243.440473 
L 467.310938 243.647161 
L 470.100937 244.886387 
L 475.680938 243.299269 
L 478.470937 242.845699 
L 481.260937 243.091677 
L 486.840937 243.183355 
L 489.630937 242.654065 
L 492.420938 241.890688 
L 495.210938 241.337613 
L 498.000937 241.070559 
L 500.790938 241.223054 
L 503.580938 241.060473 
L 509.160938 241.102323 
L 511.950938 239.052 
L 514.740937 238.492602 
L 517.530938 238.450753 
L 520.320938 238.280946 
L 523.110937 237.72471 
L 528.690938 236.834882 
L 531.480937 235.682215 
L 534.270938 236.023484 
L 537.060938 234.376452 
L 539.850937 233.181183 
L 542.640937 232.856774 
L 545.430938 232.764194 
L 551.010937 229.976688 
L 559.380937 227.036839 
L 562.170938 226.088 
L 567.750937 225.22557 
L 570.540938 224.057398 
L 573.330938 223.127226 
L 576.120937 222.62714 
L 578.910938 222.329527 
L 581.700938 221.863613 
L 584.490937 221.153075 
L 587.280938 220.841613 
L 590.070938 220.169914 
L 592.860937 220.018774 
L 595.650938 220.184065 
L 598.440938 219.49671 
L 601.230937 219.403677 
L 604.020938 218.736645 
L 609.600937 218.219548 
L 612.390937 218.979462 
L 615.180938 220.279806 
L 617.970937 221.201097 
L 620.760937 220.352667 
L 623.550938 220.147032 
L 626.340937 220.299226 
L 629.130937 220.129269 
L 634.710938 219.254194 
L 637.500937 218.228129 
L 640.290937 218.150452 
L 643.080938 217.264387 
L 645.870937 216.630172 
L 648.660937 216.60729 
L 651.450938 216.283935 
L 654.240937 216.190452 
L 654.240937 216.190452 
" clip-path="url(#pe7d152de76)" style="fill: none; stroke: #d95f02; stroke-width: 4; stroke-linecap: square"/>
   </g>
   <g id="line2d_14">
    <path d="M 99.030938 659.020427 
L 101.820937 650.910935 
L 104.610938 643.245501 
L 107.400937 633.129983 
L 110.190938 625.337393 
L 112.980938 614.365402 
L 115.770938 601.169225 
L 118.560937 586.292594 
L 121.350938 573.453577 
L 124.140938 562.338711 
L 126.930937 550.535628 
L 132.510938 522.145118 
L 138.090937 491.144315 
L 140.880938 476.094605 
L 143.670938 460.362893 
L 146.460938 446.142429 
L 149.250937 433.61123 
L 152.040937 422.831684 
L 157.620937 402.772394 
L 160.410937 396.48362 
L 163.200938 391.59766 
L 165.990938 385.826768 
L 168.780937 378.794034 
L 171.570938 372.742155 
L 174.360938 368.123254 
L 177.150937 364.513858 
L 179.940938 360.642151 
L 182.730937 357.052129 
L 185.520938 355.668884 
L 188.310938 354.534613 
L 191.100937 352.871082 
L 193.890938 349.637458 
L 199.470937 345.913082 
L 202.260938 346.437284 
L 205.050938 345.513329 
L 207.840937 344.831484 
L 210.630938 343.011755 
L 213.420938 341.819075 
L 216.210938 340.485191 
L 219.000938 338.142419 
L 221.790937 337.247488 
L 224.580938 334.878688 
L 227.370937 332.268892 
L 230.160938 330.100804 
L 232.950938 328.450505 
L 235.740938 326.977118 
L 238.530937 326.296508 
L 241.320938 326.181602 
L 246.900937 323.036419 
L 249.690937 322.672194 
L 252.480938 323.207204 
L 255.270938 322.283806 
L 258.060938 321.575963 
L 260.850937 319.444516 
L 263.640938 318.133785 
L 266.430938 317.865376 
L 269.220937 316.97886 
L 272.010938 315.747688 
L 274.800938 316.250258 
L 277.590937 315.338452 
L 280.380938 313.444989 
L 283.170938 312.857065 
L 285.960938 311.625441 
L 291.540938 311.985226 
L 294.330938 311.88286 
L 297.120937 311.153355 
L 299.910938 311.012978 
L 302.700938 311.594806 
L 305.490937 313.066237 
L 308.280937 313.76729 
L 311.070938 313.174247 
L 313.860937 313.973301 
L 316.650937 312.957398 
L 319.440938 310.956376 
L 322.230937 310.514022 
L 325.020938 309.515656 
L 327.810938 310.028688 
L 330.600937 308.516688 
L 333.390938 306.753892 
L 336.180938 306.644903 
L 338.970937 306.756753 
L 341.760938 305.950849 
L 344.550938 306.676667 
L 347.340937 307.709355 
L 350.130938 307.575075 
L 352.920938 308.095559 
L 355.710938 307.945699 
L 358.500937 307.431462 
L 361.290938 307.034946 
L 364.080938 307.148828 
L 366.870937 306.940409 
L 369.660938 306.340817 
L 372.450938 306.854075 
L 375.240937 309.307613 
L 378.030938 309.916086 
L 380.820938 309.584452 
L 383.610937 310.043892 
L 389.190938 310.620753 
L 391.980937 311.357032 
L 394.770938 312.898538 
L 397.560938 315.058301 
L 400.350937 315.695376 
L 403.140937 318.17872 
L 405.930938 320.479763 
L 408.720937 320.927914 
L 411.510937 321.18443 
L 414.300938 322.525344 
L 417.090937 323.031226 
L 419.880937 323.666946 
L 422.670938 323.70729 
L 425.460938 324.604796 
L 428.250937 325.748054 
L 431.040938 325.849742 
L 433.830938 325.758065 
L 436.620937 327.96314 
L 439.410938 328.066409 
L 442.200938 329.295624 
L 444.990937 329.455419 
L 450.570938 329.330624 
L 453.360937 329.666473 
L 456.150938 329.746258 
L 458.940938 330.549226 
L 461.730937 330.276602 
L 464.520938 329.583075 
L 467.310938 329.492602 
L 470.100937 328.031785 
L 472.890937 327.728753 
L 475.680938 327.15957 
L 478.470937 325.522624 
L 484.050938 325.04828 
L 486.840937 325.489957 
L 489.630937 325.041505 
L 492.420938 324.32043 
L 498.000937 323.824559 
L 500.790938 323.173333 
L 503.580938 323.28172 
L 506.370937 322.969505 
L 509.160938 322.465957 
L 511.950938 322.712989 
L 514.740937 321.096968 
L 517.530938 320.354215 
L 520.320938 321.274301 
L 525.900938 320.836538 
L 528.690938 320.467118 
L 531.480937 319.790452 
L 534.270938 320.352559 
L 537.060938 321.182774 
L 542.640937 321.055118 
L 545.430938 320.333742 
L 548.220937 319.237828 
L 551.010937 319.004194 
L 553.800938 317.27286 
L 556.590937 317.109677 
L 559.380937 317.548796 
L 562.170938 317.266538 
L 564.960938 316.184925 
L 567.750937 315.291785 
L 570.540938 315.355763 
L 573.330938 314.224925 
L 576.120937 313.370323 
L 578.910938 312.919914 
L 581.700938 313.584086 
L 587.280938 312.137118 
L 590.070938 311.223806 
L 595.650938 310.003548 
L 598.440938 309.744172 
L 601.230937 309.163247 
L 604.020938 308.745505 
L 606.810938 308.840645 
L 609.600937 307.885935 
L 615.180938 307.611204 
L 617.970937 308.011032 
L 620.760937 308.956409 
L 623.550938 310.620602 
L 626.340937 310.940645 
L 631.920938 312.944452 
L 634.710938 312.986301 
L 637.500937 313.158968 
L 640.290937 313.579269 
L 643.080938 313.87628 
L 648.660937 313.108839 
L 651.450938 313.808839 
L 654.240937 314.158387 
L 654.240937 314.158387 
" clip-path="url(#pe7d152de76)" style="fill: none; stroke: #3ccd10; stroke-width: 4; stroke-linecap: square"/>
   </g>
   <g id="line2d_15">
    <path d="M 96.240938 184.2 
L 654.240937 184.2 
" clip-path="url(#pe7d152de76)" style="fill: none; stroke-dasharray: 5.55,2.4; stroke-dashoffset: 0; stroke: #ff0000; stroke-width: 1.5"/>
   </g>
   <g id="patch_3">
    <path d="M 96.240938 688.2 
L 96.240938 133.8 
" style="fill: none; stroke: #000000; stroke-width: 0.8; stroke-linejoin: miter; stroke-linecap: square"/>
   </g>
   <g id="patch_4">
    <path d="M 654.240937 688.2 
L 654.240937 133.8 
" style="fill: none; stroke: #000000; stroke-width: 0.8; stroke-linejoin: miter; stroke-linecap: square"/>
   </g>
   <g id="patch_5">
    <path d="M 96.240938 688.2 
L 654.240937 688.2 
" style="fill: none; stroke: #000000; stroke-width: 0.8; stroke-linejoin: miter; stroke-linecap: square"/>
   </g>
   <g id="patch_6">
    <path d="M 96.240938 133.8 
L 654.240937 133.8 
" style="fill: none; stroke: #000000; stroke-width: 0.8; stroke-linejoin: miter; stroke-linecap: square"/>
   </g>
   <g id="text_13">
    <!-- Final Waypoint Reached -->
    <g transform="translate(166.427656 123.8)scale(0.35 -0.35)">
     <defs>
      <path id="DejaVuSans-46" d="M 628 4666 
L 3309 4666 
L 3309 4134 
L 1259 4134 
L 1259 2759 
L 3109 2759 
L 3109 2228 
L 1259 2228 
L 1259 0 
L 628 0 
L 628 4666 
z
" transform="scale(0.015625)"/>
      <path id="DejaVuSans-6c" d="M 603 4863 
L 1178 4863 
L 1178 0 
L 603 0 
L 603 4863 
z
" transform="scale(0.015625)"/>
      <path id="DejaVuSans-52" d="M 2841 2188 
Q 3044 2119 3236 1894 
Q 3428 1669 3622 1275 
L 4263 0 
L 3584 0 
L 2988 1197 
Q 2756 1666 2539 1819 
Q 2322 1972 1947 1972 
L 1259 1972 
L 1259 0 
L 628 0 
L 628 4666 
L 2053 4666 
Q 2853 4666 3247 4331 
Q 3641 3997 3641 3322 
Q 3641 2881 3436 2590 
Q 3231 2300 2841 2188 
z
M 1259 4147 
L 1259 2491 
L 2053 2491 
Q 2509 2491 2742 2702 
Q 2975 2913 2975 3322 
Q 2975 3731 2742 3939 
Q 2509 4147 2053 4147 
L 1259 4147 
z
" transform="scale(0.015625)"/>
      <path id="DejaVuSans-68" d="M 3513 2113 
L 3513 0 
L 2938 0 
L 2938 2094 
Q 2938 2591 2744 2837 
Q 2550 3084 2163 3084 
Q 1697 3084 1428 2787 
Q 1159 2491 1159 1978 
L 1159 0 
L 581 0 
L 581 4863 
L 1159 4863 
L 1159 2956 
Q 1366 3272 1645 3428 
Q 1925 3584 2291 3584 
Q 2894 3584 3203 3211 
Q 3513 2838 3513 2113 
z
" transform="scale(0.015625)"/>
      <path id="DejaVuSans-64" d="M 2906 2969 
L 2906 4863 
L 3481 4863 
L 3481 0 
L 2906 0 
L 2906 525 
Q 2725 213 2448 61 
Q 2172 -91 1784 -91 
Q 1150 -91 751 415 
Q 353 922 353 1747 
Q 353 2572 751 3078 
Q 1150 3584 1784 3584 
Q 2172 3584 2448 3432 
Q 2725 3281 2906 2969 
z
M 947 1747 
Q 947 1113 1208 752 
Q 1469 391 1925 391 
Q 2381 391 2643 752 
Q 2906 1113 2906 1747 
Q 2906 2381 2643 2742 
Q 2381 3103 1925 3103 
Q 1469 3103 1208 2742 
Q 947 2381 947 1747 
z
" transform="scale(0.015625)"/>
     </defs>
     <use xlink:href="#DejaVuSans-46"/>
     <use xlink:href="#DejaVuSans-69" x="50.269531"/>
     <use xlink:href="#DejaVuSans-6e" x="78.052734"/>
     <use xlink:href="#DejaVuSans-61" x="141.431641"/>
     <use xlink:href="#DejaVuSans-6c" x="202.710938"/>
     <use xlink:href="#DejaVuSans-20" x="230.494141"/>
     <use xlink:href="#DejaVuSans-57" x="262.28125"/>
     <use xlink:href="#DejaVuSans-61" x="354.783203"/>
     <use xlink:href="#DejaVuSans-79" x="416.0625"/>
     <use xlink:href="#DejaVuSans-70" x="475.242188"/>
     <use xlink:href="#DejaVuSans-6f" x="538.71875"/>
     <use xlink:href="#DejaVuSans-69" x="599.900391"/>
     <use xlink:href="#DejaVuSans-6e" x="627.683594"/>
     <use xlink:href="#DejaVuSans-74" x="691.0625"/>
     <use xlink:href="#DejaVuSans-20" x="730.271484"/>
     <use xlink:href="#DejaVuSans-52" x="762.058594"/>
     <use xlink:href="#DejaVuSans-65" x="827.041016"/>
     <use xlink:href="#DejaVuSans-61" x="888.564453"/>
     <use xlink:href="#DejaVuSans-63" x="949.84375"/>
     <use xlink:href="#DejaVuSans-68" x="1004.824219"/>
     <use xlink:href="#DejaVuSans-65" x="1068.203125"/>
     <use xlink:href="#DejaVuSans-64" x="1129.726562"/>
    </g>
   </g>
   <g id="legend_1">
    <g id="line2d_16">
     <path d="M 32.695312 26.63625 
L 56.695312 26.63625 
L 80.695312 26.63625 
" style="fill: none; stroke: #17becf; stroke-width: 4; stroke-linecap: square"/>
    </g>
    <g id="text_14">
     <!-- AWAC(0.61  0.08) -->
     <g transform="translate(99.895312 35.03625)scale(0.24 -0.24)">
      <defs>
       <path id="DejaVuSans-41" d="M 2188 4044 
L 1331 1722 
L 3047 1722 
L 2188 4044 
z
M 1831 4666 
L 2547 4666 
L 4325 0 
L 3669 0 
L 3244 1197 
L 1141 1197 
L 716 0 
L 50 0 
L 1831 4666 
z
" transform="scale(0.015625)"/>
       <path id="DejaVuSans-43" d="M 4122 4306 
L 4122 3641 
Q 3803 3938 3442 4084 
Q 3081 4231 2675 4231 
Q 1875 4231 1450 3742 
Q 1025 3253 1025 2328 
Q 1025 1406 1450 917 
Q 1875 428 2675 428 
Q 3081 428 3442 575 
Q 3803 722 4122 1019 
L 4122 359 
Q 3791 134 3420 21 
Q 3050 -91 2638 -91 
Q 1578 -91 968 557 
Q 359 1206 359 2328 
Q 359 3453 968 4101 
Q 1578 4750 2638 4750 
Q 3056 4750 3426 4639 
Q 3797 4528 4122 4306 
z
" transform="scale(0.015625)"/>
       <path id="DejaVuSans-28" d="M 1984 4856 
Q 1566 4138 1362 3434 
Q 1159 2731 1159 2009 
Q 1159 1288 1364 580 
Q 1569 -128 1984 -844 
L 1484 -844 
Q 1016 -109 783 600 
Q 550 1309 550 2009 
Q 550 2706 781 3412 
Q 1013 4119 1484 4856 
L 1984 4856 
z
" transform="scale(0.015625)"/>
       <path id="DejaVuSans-b1" d="M 2944 4013 
L 2944 2803 
L 4684 2803 
L 4684 2272 
L 2944 2272 
L 2944 1063 
L 2419 1063 
L 2419 2272 
L 678 2272 
L 678 2803 
L 2419 2803 
L 2419 4013 
L 2944 4013 
z
M 678 531 
L 4684 531 
L 4684 0 
L 678 0 
L 678 531 
z
" transform="scale(0.015625)"/>
       <path id="DejaVuSans-29" d="M 513 4856 
L 1013 4856 
Q 1481 4119 1714 3412 
Q 1947 2706 1947 2009 
Q 1947 1309 1714 600 
Q 1481 -109 1013 -844 
L 513 -844 
Q 928 -128 1133 580 
Q 1338 1288 1338 2009 
Q 1338 2731 1133 3434 
Q 928 4138 513 4856 
z
" transform="scale(0.015625)"/>
      </defs>
      <use xlink:href="#DejaVuSans-41"/>
      <use xlink:href="#DejaVuSans-57" x="62.908203"/>
      <use xlink:href="#DejaVuSans-41" x="156.285156"/>
      <use xlink:href="#DejaVuSans-43" x="222.943359"/>
      <use xlink:href="#DejaVuSans-28" x="292.767578"/>
      <use xlink:href="#DejaVuSans-30" x="331.78125"/>
      <use xlink:href="#DejaVuSans-2e" x="395.404297"/>
      <use xlink:href="#DejaVuSans-36" x="427.191406"/>
      <use xlink:href="#DejaVuSans-31" x="490.814453"/>
      <use xlink:href="#DejaVuSans-20" x="554.4375"/>
      <use xlink:href="#DejaVuSans-b1" x="586.224609"/>
      <use xlink:href="#DejaVuSans-20" x="670.013672"/>
      <use xlink:href="#DejaVuSans-30" x="701.800781"/>
      <use xlink:href="#DejaVuSans-2e" x="765.423828"/>
      <use xlink:href="#DejaVuSans-30" x="797.210938"/>
      <use xlink:href="#DejaVuSans-38" x="860.833984"/>
      <use xlink:href="#DejaVuSans-29" x="924.457031"/>
     </g>
    </g>
    <g id="line2d_17">
     <path d="M 32.695312 61.86375 
L 56.695312 61.86375 
L 80.695312 61.86375 
" style="fill: none; stroke: #36128b; stroke-width: 4; stroke-linecap: square"/>
    </g>
    <g id="text_15">
     <!-- CQL(0.71  0.11) -->
     <g transform="translate(99.895312 70.26375)scale(0.24 -0.24)">
      <defs>
       <path id="DejaVuSans-51" d="M 2522 4238 
Q 1834 4238 1429 3725 
Q 1025 3213 1025 2328 
Q 1025 1447 1429 934 
Q 1834 422 2522 422 
Q 3209 422 3611 934 
Q 4013 1447 4013 2328 
Q 4013 3213 3611 3725 
Q 3209 4238 2522 4238 
z
M 3406 84 
L 4238 -825 
L 3475 -825 
L 2784 -78 
Q 2681 -84 2626 -87 
Q 2572 -91 2522 -91 
Q 1538 -91 948 567 
Q 359 1225 359 2328 
Q 359 3434 948 4092 
Q 1538 4750 2522 4750 
Q 3503 4750 4090 4092 
Q 4678 3434 4678 2328 
Q 4678 1516 4351 937 
Q 4025 359 3406 84 
z
" transform="scale(0.015625)"/>
       <path id="DejaVuSans-4c" d="M 628 4666 
L 1259 4666 
L 1259 531 
L 3531 531 
L 3531 0 
L 628 0 
L 628 4666 
z
" transform="scale(0.015625)"/>
      </defs>
      <use xlink:href="#DejaVuSans-43"/>
      <use xlink:href="#DejaVuSans-51" x="69.824219"/>
      <use xlink:href="#DejaVuSans-4c" x="148.535156"/>
      <use xlink:href="#DejaVuSans-28" x="204.248047"/>
      <use xlink:href="#DejaVuSans-30" x="243.261719"/>
      <use xlink:href="#DejaVuSans-2e" x="306.884766"/>
      <use xlink:href="#DejaVuSans-37" x="338.671875"/>
      <use xlink:href="#DejaVuSans-31" x="402.294922"/>
      <use xlink:href="#DejaVuSans-20" x="465.917969"/>
      <use xlink:href="#DejaVuSans-b1" x="497.705078"/>
      <use xlink:href="#DejaVuSans-20" x="581.494141"/>
      <use xlink:href="#DejaVuSans-30" x="613.28125"/>
      <use xlink:href="#DejaVuSans-2e" x="676.904297"/>
      <use xlink:href="#DejaVuSans-31" x="708.691406"/>
      <use xlink:href="#DejaVuSans-31" x="772.314453"/>
      <use xlink:href="#DejaVuSans-29" x="835.9375"/>
     </g>
    </g>
    <g id="line2d_18">
     <path d="M 379.127813 26.63625 
L 403.127813 26.63625 
L 427.127813 26.63625 
" style="fill: none; stroke: #d95f02; stroke-width: 4; stroke-linecap: square"/>
    </g>
    <g id="text_16">
     <!-- Proposed(0.94  0.03) -->
     <g transform="translate(446.327812 35.03625)scale(0.24 -0.24)">
      <defs>
       <path id="DejaVuSans-39" d="M 703 97 
L 703 672 
Q 941 559 1184 500 
Q 1428 441 1663 441 
Q 2288 441 2617 861 
Q 2947 1281 2994 2138 
Q 2813 1869 2534 1725 
Q 2256 1581 1919 1581 
Q 1219 1581 811 2004 
Q 403 2428 403 3163 
Q 403 3881 828 4315 
Q 1253 4750 1959 4750 
Q 2769 4750 3195 4129 
Q 3622 3509 3622 2328 
Q 3622 1225 3098 567 
Q 2575 -91 1691 -91 
Q 1453 -91 1209 -44 
Q 966 3 703 97 
z
M 1959 2075 
Q 2384 2075 2632 2365 
Q 2881 2656 2881 3163 
Q 2881 3666 2632 3958 
Q 2384 4250 1959 4250 
Q 1534 4250 1286 3958 
Q 1038 3666 1038 3163 
Q 1038 2656 1286 2365 
Q 1534 2075 1959 2075 
z
" transform="scale(0.015625)"/>
       <path id="DejaVuSans-33" d="M 2597 2516 
Q 3050 2419 3304 2112 
Q 3559 1806 3559 1356 
Q 3559 666 3084 287 
Q 2609 -91 1734 -91 
Q 1441 -91 1130 -33 
Q 819 25 488 141 
L 488 750 
Q 750 597 1062 519 
Q 1375 441 1716 441 
Q 2309 441 2620 675 
Q 2931 909 2931 1356 
Q 2931 1769 2642 2001 
Q 2353 2234 1838 2234 
L 1294 2234 
L 1294 2753 
L 1863 2753 
Q 2328 2753 2575 2939 
Q 2822 3125 2822 3475 
Q 2822 3834 2567 4026 
Q 2313 4219 1838 4219 
Q 1578 4219 1281 4162 
Q 984 4106 628 3988 
L 628 4550 
Q 988 4650 1302 4700 
Q 1616 4750 1894 4750 
Q 2613 4750 3031 4423 
Q 3450 4097 3450 3541 
Q 3450 3153 3228 2886 
Q 3006 2619 2597 2516 
z
" transform="scale(0.015625)"/>
      </defs>
      <use xlink:href="#DejaVuSans-50"/>
      <use xlink:href="#DejaVuSans-72" x="58.552734"/>
      <use xlink:href="#DejaVuSans-6f" x="97.416016"/>
      <use xlink:href="#DejaVuSans-70" x="158.597656"/>
      <use xlink:href="#DejaVuSans-6f" x="222.074219"/>
      <use xlink:href="#DejaVuSans-73" x="283.255859"/>
      <use xlink:href="#DejaVuSans-65" x="335.355469"/>
      <use xlink:href="#DejaVuSans-64" x="396.878906"/>
      <use xlink:href="#DejaVuSans-28" x="460.355469"/>
      <use xlink:href="#DejaVuSans-30" x="499.369141"/>
      <use xlink:href="#DejaVuSans-2e" x="562.992188"/>
      <use xlink:href="#DejaVuSans-39" x="594.779297"/>
      <use xlink:href="#DejaVuSans-34" x="658.402344"/>
      <use xlink:href="#DejaVuSans-20" x="722.025391"/>
      <use xlink:href="#DejaVuSans-b1" x="753.8125"/>
      <use xlink:href="#DejaVuSans-20" x="837.601562"/>
      <use xlink:href="#DejaVuSans-30" x="869.388672"/>
      <use xlink:href="#DejaVuSans-2e" x="933.011719"/>
      <use xlink:href="#DejaVuSans-30" x="964.798828"/>
      <use xlink:href="#DejaVuSans-33" x="1028.421875"/>
      <use xlink:href="#DejaVuSans-29" x="1092.044922"/>
     </g>
    </g>
    <g id="line2d_19">
     <path d="M 379.127813 61.86375 
L 403.127813 61.86375 
L 427.127813 61.86375 
" style="fill: none; stroke: #3ccd10; stroke-width: 4; stroke-linecap: square"/>
    </g>
    <g id="text_17">
     <!-- SAC(0.74  0.08) -->
     <g transform="translate(446.327812 70.26375)scale(0.24 -0.24)">
      <defs>
       <path id="DejaVuSans-53" d="M 3425 4513 
L 3425 3897 
Q 3066 4069 2747 4153 
Q 2428 4238 2131 4238 
Q 1616 4238 1336 4038 
Q 1056 3838 1056 3469 
Q 1056 3159 1242 3001 
Q 1428 2844 1947 2747 
L 2328 2669 
Q 3034 2534 3370 2195 
Q 3706 1856 3706 1288 
Q 3706 609 3251 259 
Q 2797 -91 1919 -91 
Q 1588 -91 1214 -16 
Q 841 59 441 206 
L 441 856 
Q 825 641 1194 531 
Q 1563 422 1919 422 
Q 2459 422 2753 634 
Q 3047 847 3047 1241 
Q 3047 1584 2836 1778 
Q 2625 1972 2144 2069 
L 1759 2144 
Q 1053 2284 737 2584 
Q 422 2884 422 3419 
Q 422 4038 858 4394 
Q 1294 4750 2059 4750 
Q 2388 4750 2728 4690 
Q 3069 4631 3425 4513 
z
" transform="scale(0.015625)"/>
      </defs>
      <use xlink:href="#DejaVuSans-53"/>
      <use xlink:href="#DejaVuSans-41" x="65.351562"/>
      <use xlink:href="#DejaVuSans-43" x="132.009766"/>
      <use xlink:href="#DejaVuSans-28" x="201.833984"/>
      <use xlink:href="#DejaVuSans-30" x="240.847656"/>
      <use xlink:href="#DejaVuSans-2e" x="304.470703"/>
      <use xlink:href="#DejaVuSans-37" x="336.257812"/>
      <use xlink:href="#DejaVuSans-34" x="399.880859"/>
      <use xlink:href="#DejaVuSans-20" x="463.503906"/>
      <use xlink:href="#DejaVuSans-b1" x="495.291016"/>
      <use xlink:href="#DejaVuSans-20" x="579.080078"/>
      <use xlink:href="#DejaVuSans-30" x="610.867188"/>
      <use xlink:href="#DejaVuSans-2e" x="674.490234"/>
      <use xlink:href="#DejaVuSans-30" x="706.277344"/>
      <use xlink:href="#DejaVuSans-38" x="769.900391"/>
      <use xlink:href="#DejaVuSans-29" x="833.523438"/>
     </g>
    </g>
   </g>
  </g>
 </g>
 <defs>
  <clipPath id="pe7d152de76">
   <rect x="96.240938" y="133.8" width="558" height="554.4"/>
  </clipPath>
 </defs>
</svg>
