<?xml version="1.0" encoding="utf-8" standalone="no"?>
<!DOCTYPE svg PUBLIC "-//W3C//DTD SVG 1.1//EN"
  "http://www.w3.org/Graphics/SVG/1.1/DTD/svg11.dtd">
<svg xmlns:xlink="http://www.w3.org/1999/xlink" width="642.632031pt" height="724.3925pt" viewBox="0 0 642.632031 724.3925" xmlns="http://www.w3.org/2000/svg" version="1.1">
 <metadata>
  <rdf:RDF xmlns:dc="http://purl.org/dc/elements/1.1/" xmlns:cc="http://creativecommons.org/ns#" xmlns:rdf="http://www.w3.org/1999/02/22-rdf-syntax-ns#">
   <cc:Work>
    <dc:type rdf:resource="http://purl.org/dc/dcmitype/StillImage"/>
    <dc:date>2025-12-12T14:18:45.383848</dc:date>
    <dc:format>image/svg+xml</dc:format>
    <dc:creator>
     <cc:Agent>
      <dc:title>Matplotlib v3.5.3, https://matplotlib.org/</dc:title>
     </cc:Agent>
    </dc:creator>
   </cc:Work>
  </rdf:RDF>
 </metadata>
 <defs>
  <style type="text/css">*{stroke-linejoin: round; stroke-linecap: butt}</style>
 </defs>
 <g id="figure_1">
  <g id="patch_1">
   <path d="M 0 724.3925 
L 642.632031 724.3925 
L 642.632031 0 
L 0 0 
z
" style="fill: #ffffff"/>
  </g>
  <g id="axes_1">
   <g id="patch_2">
    <path d="M 63.1375 667.48 
L 621.1375 667.48 
L 621.1375 113.08 
L 63.1375 113.08 
z
" style="fill: #ffffff"/>
   </g>
   <g id="PolyCollection_1">
    <defs>
     <path id="m78496b1bed" d="M 63.1375 -533.995671 
L 63.1375 -394.574923 
L 65.9275 -465.425362 
L 68.7175 -489.84743 
L 71.5075 -469.270312 
L 74.2975 -447.153285 
L 77.0875 -429.315572 
L 79.8775 -411.576526 
L 82.6675 -393.002333 
L 85.4575 -377.229367 
L 88.2475 -359.836734 
L 91.0375 -344.020382 
L 93.8275 -337.974932 
L 96.6175 -347.203373 
L 99.4075 -347.642798 
L 102.1975 -347.177405 
L 104.9875 -350.577311 
L 107.7775 -347.524227 
L 110.5675 -354.325608 
L 113.3575 -359.507252 
L 116.1475 -361.475193 
L 118.9375 -367.143155 
L 121.7275 -365.705385 
L 124.5175 -361.060006 
L 127.3075 -361.116957 
L 130.0975 -360.4007 
L 132.8875 -353.480862 
L 135.6775 -353.508568 
L 138.4675 -353.240121 
L 141.2575 -355.563213 
L 144.0475 -353.241229 
L 146.8375 -357.272204 
L 149.6275 -358.126242 
L 152.4175 -357.007823 
L 155.2075 -353.453941 
L 157.9975 -357.3634 
L 160.7875 -354.753681 
L 163.5775 -354.207208 
L 166.3675 -353.792081 
L 169.1575 -358.72139 
L 171.9475 -355.90238 
L 174.7375 -355.547954 
L 177.5275 -348.067061 
L 180.3175 -348.561091 
L 183.1075 -346.401228 
L 185.8975 -342.410475 
L 188.6875 -339.926042 
L 191.4775 -338.085507 
L 194.2675 -337.795364 
L 197.0575 -337.242506 
L 199.8475 -338.038402 
L 202.6375 -336.148073 
L 205.4275 -326.93931 
L 208.2175 -320.880404 
L 211.0075 -320.341421 
L 213.7975 -320.076748 
L 216.5875 -314.076537 
L 219.3775 -311.805475 
L 222.1675 -310.452695 
L 224.9575 -307.353709 
L 227.7475 -306.910936 
L 230.5375 -302.570915 
L 233.3275 -292.158913 
L 236.1175 -303.547377 
L 238.9075 -307.631517 
L 241.6975 -308.567546 
L 244.4875 -303.881691 
L 247.2775 -303.049641 
L 250.0675 -300.909904 
L 252.8575 -306.858374 
L 255.6475 -311.347338 
L 258.4375 -300.497326 
L 261.2275 -298.330592 
L 264.0175 -293.18534 
L 266.8075 -294.622934 
L 269.5975 -288.058631 
L 272.3875 -289.312939 
L 275.1775 -275.75186 
L 277.9675 -281.179938 
L 280.7575 -275.944594 
L 283.5475 -278.697904 
L 286.3375 -280.353598 
L 289.1275 -279.446769 
L 291.9175 -277.982041 
L 294.7075 -274.355877 
L 297.4975 -274.478537 
L 300.2875 -271.642181 
L 303.0775 -276.139562 
L 305.8675 -276.551901 
L 308.6575 -273.088159 
L 311.4475 -269.16372 
L 314.2375 -267.745019 
L 317.0275 -266.712478 
L 319.8175 -274.945869 
L 322.6075 -277.632686 
L 325.3975 -275.057155 
L 328.1875 -279.568769 
L 330.9775 -279.705927 
L 333.7675 -279.380069 
L 336.5575 -282.357919 
L 339.3475 -286.055917 
L 342.1375 -288.824762 
L 344.9275 -286.616333 
L 347.7175 -286.566069 
L 350.5075 -290.3214 
L 353.2975 -286.046794 
L 356.0875 -287.903587 
L 358.8775 -290.346679 
L 361.6675 -290.458767 
L 364.4575 -285.005783 
L 367.2475 -283.64364 
L 370.0375 -284.867797 
L 372.8275 -283.223065 
L 375.6175 -280.019547 
L 378.4075 -274.54313 
L 381.1975 -278.486758 
L 383.9875 -280.240782 
L 386.7775 -275.846058 
L 389.5675 -273.028772 
L 392.3575 -267.934685 
L 395.1475 -266.527376 
L 397.9375 -265.939824 
L 400.7275 -261.175149 
L 403.5175 -261.652618 
L 406.3075 -259.144359 
L 409.0975 -265.218667 
L 411.8875 -271.56626 
L 414.6775 -269.154381 
L 417.4675 -266.726212 
L 420.2575 -269.804267 
L 423.0475 -265.912862 
L 425.8375 -268.091832 
L 428.6275 -272.455473 
L 431.4175 -270.853265 
L 434.2075 -272.665309 
L 436.9975 -278.176423 
L 439.7875 -282.612269 
L 442.5775 -285.954715 
L 445.3675 -286.180668 
L 448.1575 -291.186454 
L 450.9475 -294.662733 
L 453.7375 -294.299625 
L 456.5275 -295.600304 
L 459.3175 -292.906932 
L 462.1075 -294.363527 
L 464.8975 -299.744661 
L 467.6875 -295.761245 
L 470.4775 -294.681722 
L 473.2675 -291.60327 
L 476.0575 -293.582272 
L 478.8475 -295.891519 
L 481.6375 -292.964084 
L 484.4275 -289.014473 
L 487.2175 -287.094009 
L 490.0075 -286.161557 
L 492.7975 -283.245863 
L 495.5875 -284.540267 
L 498.3775 -279.890335 
L 501.1675 -279.489922 
L 503.9575 -281.966197 
L 506.7475 -282.451557 
L 509.5375 -277.606995 
L 512.3275 -266.733309 
L 515.1175 -260.134733 
L 517.9075 -251.216327 
L 520.6975 -248.316905 
L 523.4875 -240.154956 
L 526.2775 -251.674616 
L 529.0675 -254.790389 
L 531.8575 -256.038746 
L 534.6475 -248.513694 
L 537.4375 -250.542974 
L 540.2275 -243.098252 
L 543.0175 -251.313486 
L 545.8075 -252.49706 
L 548.5975 -253.33873 
L 551.3875 -247.918425 
L 554.1775 -245.509613 
L 556.9675 -248.000545 
L 559.7575 -249.790335 
L 562.5475 -246.784539 
L 565.3375 -242.127019 
L 568.1275 -244.428002 
L 570.9175 -252.785691 
L 573.7075 -256.678354 
L 576.4975 -254.966063 
L 579.2875 -253.394443 
L 582.0775 -256.280872 
L 584.8675 -261.861635 
L 587.6575 -267.034036 
L 590.4475 -273.415441 
L 593.2375 -281.699804 
L 596.0275 -276.559144 
L 598.8175 -277.951173 
L 601.6075 -279.761106 
L 604.3975 -280.053008 
L 607.1875 -276.16882 
L 609.9775 -280.833126 
L 612.7675 -283.443545 
L 615.5575 -287.142939 
L 618.3475 -288.276839 
L 621.1375 -287.625331 
L 621.1375 -386.747271 
L 621.1375 -386.747271 
L 618.3475 -388.656482 
L 615.5575 -390.229578 
L 612.7675 -385.828234 
L 609.9775 -388.998297 
L 607.1875 -392.356289 
L 604.3975 -392.467429 
L 601.6075 -395.049263 
L 598.8175 -395.510355 
L 596.0275 -397.549777 
L 593.2375 -406.051395 
L 590.4475 -393.725009 
L 587.6575 -396.984077 
L 584.8675 -394.543319 
L 582.0775 -392.027763 
L 579.2875 -387.529578 
L 576.4975 -382.387691 
L 573.7075 -382.592332 
L 570.9175 -381.246029 
L 568.1275 -381.59003 
L 565.3375 -379.31668 
L 562.5475 -375.536537 
L 559.7575 -375.267792 
L 556.9675 -374.157076 
L 554.1775 -377.460416 
L 551.3875 -377.661922 
L 548.5975 -373.137677 
L 545.8075 -370.617923 
L 543.0175 -366.360872 
L 540.2275 -365.667761 
L 537.4375 -361.672872 
L 534.6475 -357.347179 
L 531.8575 -347.302839 
L 529.0675 -350.87812 
L 526.2775 -347.851545 
L 523.4875 -338.742593 
L 520.6975 -346.447306 
L 517.9075 -348.007003 
L 515.1175 -344.811512 
L 512.3275 -341.117883 
L 509.5375 -340.165517 
L 506.7475 -338.483519 
L 503.9575 -340.829234 
L 501.1675 -346.562154 
L 498.3775 -342.50919 
L 495.5875 -345.457009 
L 492.7975 -342.487227 
L 490.0075 -336.119021 
L 487.2175 -331.73864 
L 484.4275 -325.414906 
L 481.6375 -328.046886 
L 478.8475 -331.295298 
L 476.0575 -328.05265 
L 473.2675 -323.431697 
L 470.4775 -326.936869 
L 467.6875 -329.40591 
L 464.8975 -337.006974 
L 462.1075 -334.188499 
L 459.3175 -333.533008 
L 456.5275 -335.710348 
L 453.7375 -330.902179 
L 450.9475 -339.963834 
L 448.1575 -341.324083 
L 445.3675 -342.446554 
L 442.5775 -344.565794 
L 439.7875 -347.370401 
L 436.9975 -344.903048 
L 434.2075 -349.911631 
L 431.4175 -355.514328 
L 428.6275 -353.454017 
L 425.8375 -358.717057 
L 423.0475 -358.04004 
L 420.2575 -358.337393 
L 417.4675 -355.437946 
L 414.6775 -356.611135 
L 411.8875 -357.440036 
L 409.0975 -360.03939 
L 406.3075 -357.806703 
L 403.5175 -353.215238 
L 400.7275 -349.115656 
L 397.9375 -346.001323 
L 395.1475 -347.214251 
L 392.3575 -350.020049 
L 389.5675 -350.001351 
L 386.7775 -352.45468 
L 383.9875 -353.242505 
L 381.1975 -356.894842 
L 378.4075 -354.475554 
L 375.6175 -345.948108 
L 372.8275 -349.654255 
L 370.0375 -349.393998 
L 367.2475 -350.008431 
L 364.4575 -350.652369 
L 361.6675 -347.06852 
L 358.8775 -346.320168 
L 356.0875 -345.02577 
L 353.2975 -345.627278 
L 350.5075 -344.926915 
L 347.7175 -345.157198 
L 344.9275 -349.047918 
L 342.1375 -353.830359 
L 339.3475 -360.609829 
L 336.5575 -367.070372 
L 333.7675 -369.892783 
L 330.9775 -376.080568 
L 328.1875 -379.484457 
L 325.3975 -383.857693 
L 322.6075 -390.19458 
L 319.8175 -391.656748 
L 317.0275 -396.277596 
L 314.2375 -402.857448 
L 311.4475 -398.376169 
L 308.6575 -398.108886 
L 305.8675 -399.279074 
L 303.0775 -404.021862 
L 300.2875 -403.100663 
L 297.4975 -405.474975 
L 294.7075 -406.621343 
L 291.9175 -405.504752 
L 289.1275 -409.7473 
L 286.3375 -410.67427 
L 283.5475 -411.319472 
L 280.7575 -410.464211 
L 277.9675 -411.936124 
L 275.1775 -416.170588 
L 272.3875 -427.917845 
L 269.5975 -415.71088 
L 266.8075 -415.018199 
L 264.0175 -418.621096 
L 261.2275 -422.822427 
L 258.4375 -423.154119 
L 255.6475 -434.660673 
L 252.8575 -428.825389 
L 250.0675 -435.075576 
L 247.2775 -439.146984 
L 244.4875 -442.648957 
L 241.6975 -446.38248 
L 238.9075 -449.667231 
L 236.1175 -448.83644 
L 233.3275 -456.929117 
L 230.5375 -457.722991 
L 227.7475 -462.220196 
L 224.9575 -466.207443 
L 222.1675 -471.713038 
L 219.3775 -475.088241 
L 216.5875 -475.468424 
L 213.7975 -476.375178 
L 211.0075 -477.467799 
L 208.2175 -477.692783 
L 205.4275 -477.439144 
L 202.6375 -481.660292 
L 199.8475 -479.540676 
L 197.0575 -479.377825 
L 194.2675 -477.486538 
L 191.4775 -477.556438 
L 188.6875 -482.638518 
L 185.8975 -485.409771 
L 183.1075 -486.724 
L 180.3175 -481.827161 
L 177.5275 -481.723204 
L 174.7375 -475.443928 
L 171.9475 -472.228916 
L 169.1575 -468.589397 
L 166.3675 -467.482635 
L 163.5775 -473.039758 
L 160.7875 -474.05406 
L 157.9975 -476.214369 
L 155.2075 -482.522289 
L 152.4175 -489.039137 
L 149.6275 -488.250894 
L 146.8375 -485.788531 
L 144.0475 -485.733268 
L 141.2575 -487.791195 
L 138.4675 -489.655066 
L 135.6775 -495.795555 
L 132.8875 -499.353166 
L 130.0975 -502.698462 
L 127.3075 -508.662089 
L 124.5175 -508.881067 
L 121.7275 -506.892709 
L 118.9375 -500.778565 
L 116.1475 -501.908899 
L 113.3575 -509.050277 
L 110.5675 -509.797927 
L 107.7775 -508.572535 
L 104.9875 -509.804113 
L 102.1975 -508.842678 
L 99.4075 -507.533136 
L 96.6175 -508.812084 
L 93.8275 -509.97629 
L 91.0375 -512.893075 
L 88.2475 -521.188713 
L 85.4575 -526.279128 
L 82.6675 -524.008821 
L 79.8775 -521.768649 
L 77.0875 -521.053139 
L 74.2975 -520.868287 
L 71.5075 -520.128861 
L 68.7175 -534.764564 
L 65.9275 -543.146841 
L 63.1375 -533.995671 
z
"/>
    </defs>
    <g clip-path="url(#pb39a924207)">
     <use xlink:href="#m78496b1bed" x="0" y="724.3925" style="fill: #17becf; fill-opacity: 0.1"/>
    </g>
   </g>
   <g id="PolyCollection_2">
    <path d="M 88.2475 650.913136 
L 88.2475 650.913136 
L 91.0375 651.873529 
L 93.8275 652.205866 
L 96.6175 652.860543 
L 99.4075 653.295523 
L 102.1975 653.965032 
L 104.9875 654.742304 
L 107.7775 654.678015 
L 110.5675 654.761692 
L 113.3575 655.060292 
L 116.1475 655.416956 
L 118.9375 655.770883 
L 121.7275 655.949666 
L 124.5175 656.171963 
L 127.3075 656.395279 
L 130.0975 656.747959 
L 132.8875 656.522287 
L 135.6775 655.143463 
L 138.4675 655.248191 
L 141.2575 655.477908 
L 144.0475 646.591259 
L 146.8375 650.922595 
L 149.6275 655.894189 
L 152.4175 651.500417 
L 155.2075 648.382088 
L 157.9975 643.874457 
L 160.7875 648.423598 
L 163.5775 639.461977 
L 166.3675 630.340618 
L 169.1575 636.637075 
L 171.9475 626.545254 
L 174.7375 632.581567 
L 177.5275 631.74868 
L 180.3175 593.823589 
L 183.1075 627.401736 
L 185.8975 595.870235 
L 188.6875 652.851186 
L 191.4775 589.531225 
L 194.2675 613.222851 
L 197.0575 604.038558 
L 199.8475 587.797785 
L 202.6375 619.573404 
L 205.4275 552.677861 
L 208.2175 591.187855 
L 211.0075 562.47805 
L 213.7975 587.991581 
L 216.5875 568.671243 
L 219.3775 582.443797 
L 222.1675 534.199569 
L 224.9575 578.05251 
L 227.7475 563.720143 
L 230.5375 572.453947 
L 233.3275 548.377513 
L 236.1175 578.64844 
L 238.9075 504.685977 
L 241.6975 575.31374 
L 244.4875 512.141307 
L 247.2775 593.116921 
L 250.0675 533.381646 
L 252.8575 554.815482 
L 255.6475 526.340568 
L 258.4375 584.255522 
L 261.2275 520.931083 
L 264.0175 544.046131 
L 266.8075 472.190169 
L 269.5975 545.684109 
L 272.3875 481.562848 
L 275.1775 545.817285 
L 277.9675 462.691395 
L 280.7575 544.007369 
L 283.5475 501.537731 
L 286.3375 571.90471 
L 289.1275 496.950784 
L 291.9175 528.954229 
L 294.7075 514.959542 
L 297.4975 472.157445 
L 300.2875 538.427325 
L 303.0775 505.329965 
L 305.8675 538.688223 
L 308.6575 482.987537 
L 311.4475 567.996366 
L 314.2375 479.024821 
L 317.0275 526.48332 
L 319.8175 491.835888 
L 322.6075 521.166636 
L 325.3975 487.571525 
L 328.1875 444.840925 
L 330.9775 505.836736 
L 333.7675 479.366677 
L 336.5575 500.103693 
L 339.3475 462.909061 
L 342.1375 537.351186 
L 344.9275 459.379018 
L 347.7175 433.540989 
L 350.5075 539.126066 
L 353.2975 430.89726 
L 356.0875 540.385508 
L 358.8775 428.304168 
L 361.6675 501.493229 
L 364.4575 403.599774 
L 367.2475 451.940393 
L 370.0375 542.852881 
L 372.8275 447.927906 
L 375.6175 488.519735 
L 378.4075 461.011093 
L 381.1975 483.948371 
L 383.9875 438.473605 
L 386.7775 402.719202 
L 389.5675 488.809254 
L 392.3575 403.865849 
L 395.1475 484.471525 
L 397.9375 395.899821 
L 400.7275 447.932803 
L 403.5175 469.161502 
L 406.3075 444.840925 
L 409.0975 465.532799 
L 411.8875 441.815539 
L 414.6775 391.937371 
L 417.4675 469.321029 
L 420.2575 399.836193 
L 423.0475 465.226576 
L 425.8375 401.145991 
L 428.6275 408.329557 
L 431.4175 505.520935 
L 434.2075 409.015958 
L 436.9975 451.682096 
L 439.7875 427.614746 
L 442.5775 339.871458 
L 445.3675 481.848604 
L 448.1575 334.860288 
L 450.9475 478.086203 
L 453.7375 333.998576 
L 456.5275 399.767038 
L 459.3175 489.037035 
L 462.1075 328.128898 
L 464.8975 412.283017 
L 467.6875 435.113279 
L 470.4775 407.251559 
L 473.2675 430.976167 
L 476.0575 402.222237 
L 478.8475 317.371915 
L 481.6375 428.344429 
L 481.6375 305.521239 
L 481.6375 305.521239 
L 478.8475 317.371915 
L 476.0575 394.42839 
L 473.2675 293.278887 
L 470.4775 396.536857 
L 467.6875 298.37939 
L 464.8975 395.374915 
L 462.1075 328.128898 
L 459.3175 489.037035 
L 456.5275 325.932993 
L 453.7375 333.998576 
L 450.9475 398.587359 
L 448.1575 334.860288 
L 445.3675 400.787842 
L 442.5775 339.871458 
L 439.7875 400.768262 
L 436.9975 316.272565 
L 434.2075 342.570193 
L 431.4175 505.520935 
L 428.6275 340.607491 
L 425.8375 401.145991 
L 423.0475 345.039337 
L 420.2575 399.836193 
L 417.4675 349.910969 
L 414.6775 364.064197 
L 411.8875 441.815539 
L 409.0975 353.76277 
L 406.3075 444.840925 
L 403.5175 357.14407 
L 400.7275 447.932803 
L 397.9375 380.960748 
L 395.1475 373.956812 
L 392.3575 403.865849 
L 389.5675 377.633074 
L 386.7775 402.719202 
L 383.9875 386.137203 
L 381.1975 374.270788 
L 378.4075 461.011093 
L 375.6175 376.979539 
L 372.8275 402.731998 
L 370.0375 400.796494 
L 367.2475 408.032426 
L 364.4575 403.599774 
L 361.6675 408.40876 
L 358.8775 412.416545 
L 356.0875 464.143222 
L 353.2975 415.364237 
L 350.5075 467.809847 
L 347.7175 418.383263 
L 344.9275 426.080815 
L 342.1375 416.073529 
L 339.3475 428.73375 
L 336.5575 411.521805 
L 333.7675 479.366677 
L 330.9775 421.065643 
L 328.1875 444.840925 
L 325.3975 426.313807 
L 322.6075 428.309857 
L 319.8175 429.91427 
L 317.0275 430.892719 
L 314.2375 438.096665 
L 311.4475 567.996366 
L 308.6575 441.420465 
L 305.8675 440.197569 
L 303.0775 441.332881 
L 300.2875 452.488676 
L 297.4975 452.540159 
L 294.7075 514.959542 
L 291.9175 439.331222 
L 289.1275 449.517239 
L 286.3375 571.90471 
L 283.5475 453.156183 
L 280.7575 462.404825 
L 277.9675 462.691395 
L 275.1775 466.975535 
L 272.3875 471.170454 
L 269.5975 475.564023 
L 266.8075 472.190169 
L 264.0175 472.939906 
L 261.2275 484.039853 
L 258.4375 482.311814 
L 255.6475 488.141567 
L 252.8575 478.089644 
L 250.0675 497.81354 
L 247.2775 504.805796 
L 244.4875 502.377073 
L 241.6975 506.533473 
L 238.9075 504.685977 
L 236.1175 512.280854 
L 233.3275 512.032485 
L 230.5375 511.715907 
L 227.7475 563.720143 
L 224.9575 523.515702 
L 222.1675 534.199569 
L 219.3775 523.093383 
L 216.5875 537.494244 
L 213.7975 520.083557 
L 211.0075 534.366485 
L 208.2175 539.119056 
L 205.4275 552.677861 
L 202.6375 566.199101 
L 199.8475 551.492224 
L 197.0575 554.063259 
L 194.2675 557.739413 
L 191.4775 556.804084 
L 188.6875 586.27871 
L 185.8975 568.213482 
L 183.1075 559.807419 
L 180.3175 561.931692 
L 177.5275 572.67772 
L 174.7375 576.16781 
L 171.9475 626.545254 
L 169.1575 589.216603 
L 166.3675 597.51386 
L 163.5775 595.132229 
L 160.7875 596.758085 
L 157.9975 597.21625 
L 155.2075 597.706245 
L 152.4175 608.139871 
L 149.6275 612.842707 
L 146.8375 611.376578 
L 144.0475 620.177851 
L 141.2575 628.971617 
L 138.4675 640.603286 
L 135.6775 652.616441 
L 132.8875 654.649561 
L 130.0975 654.526909 
L 127.3075 654.971583 
L 124.5175 654.01437 
L 121.7275 653.70642 
L 118.9375 653.328748 
L 116.1475 653.964593 
L 113.3575 652.887133 
L 110.5675 652.384563 
L 107.7775 651.836013 
L 104.9875 652.885502 
L 102.1975 652.344118 
L 99.4075 651.757874 
L 96.6175 651.109864 
L 93.8275 652.205866 
L 91.0375 651.873529 
L 88.2475 650.913136 
z
" clip-path="url(#pb39a924207)" style="fill: #36128b; fill-opacity: 0.1"/>
    <path d="M 487.2175 291.729028 
L 487.2175 365.656362 
L 490.0075 474.068895 
L 492.7975 361.380059 
L 495.5875 470.539476 
L 498.3775 297.341119 
L 501.1675 384.117746 
L 503.9575 411.7047 
L 506.7475 379.787831 
L 509.5375 287.428763 
L 512.3275 410.463131 
L 515.1175 372.950729 
L 517.9075 406.421289 
L 520.6975 372.535356 
L 523.4875 336.857956 
L 526.2775 457.189064 
L 529.0675 271.357356 
L 531.8575 359.934288 
L 534.6475 398.919864 
L 537.4375 354.918847 
L 540.2275 328.37607 
L 543.0175 450.939935 
L 545.8075 325.809496 
L 548.5975 447.914041 
L 551.3875 251.464305 
L 554.1775 322.145005 
L 556.9675 444.951186 
L 559.7575 318.925063 
L 562.5475 334.860288 
L 565.3375 384.45712 
L 568.1275 333.998576 
L 570.9175 244.582356 
L 573.7075 439.206877 
L 576.4975 305.071315 
L 579.2875 337.797797 
L 582.0775 377.347347 
L 582.0775 219.560092 
L 582.0775 219.560092 
L 579.2875 337.797797 
L 576.4975 228.374388 
L 573.7075 342.445915 
L 570.9175 244.582356 
L 568.1275 333.998576 
L 565.3375 228.681544 
L 562.5475 334.860288 
L 559.7575 228.849937 
L 556.9675 339.871458 
L 554.1775 227.987156 
L 551.3875 251.464305 
L 548.5975 344.887966 
L 545.8075 237.733656 
L 543.0175 349.909814 
L 540.2275 243.376836 
L 537.4375 354.918847 
L 534.6475 247.947826 
L 531.8575 359.934288 
L 529.0675 271.357356 
L 526.2775 368.171271 
L 523.4875 260.136061 
L 520.6975 372.535356 
L 517.9075 263.366138 
L 515.1175 372.950729 
L 512.3275 268.626008 
L 509.5375 287.428763 
L 506.7475 377.184542 
L 503.9575 260.390968 
L 501.1675 378.646356 
L 498.3775 297.341119 
L 495.5875 380.107102 
L 492.7975 286.51689 
L 490.0075 384.863068 
L 487.2175 291.729028 
z
" clip-path="url(#pb39a924207)" style="fill: #36128b; fill-opacity: 0.1"/>
    <path d="M 587.6575 227.773966 
L 587.6575 376.396 
L 587.6575 227.773966 
L 587.6575 227.773966 
z
" clip-path="url(#pb39a924207)" style="fill: #36128b; fill-opacity: 0.1"/>
    <path d="M 593.2375 219.484984 
L 593.2375 301.669312 
L 596.0275 433.288712 
L 598.8175 232.666814 
L 601.6075 327.109153 
L 604.3975 364.934277 
L 607.1875 322.495203 
L 609.9775 224.563305 
L 612.7675 423.229 
L 615.5575 302.505717 
L 615.5575 211.486975 
L 615.5575 211.486975 
L 612.7675 423.229 
L 609.9775 224.563305 
L 607.1875 312.366085 
L 604.3975 191.923935 
L 601.6075 317.371915 
L 598.8175 232.666814 
L 596.0275 322.377746 
L 593.2375 219.484984 
z
" clip-path="url(#pb39a924207)" style="fill: #36128b; fill-opacity: 0.1"/>
    <path d="M 621.1375 210.104661 
L 621.1375 355.474424 
L 621.1375 210.104661 
L 621.1375 210.104661 
z
" clip-path="url(#pb39a924207)" style="fill: #36128b; fill-opacity: 0.1"/>
   </g>
   <g id="PolyCollection_3">
    <defs>
     <path id="m3d8def1406" d="M 74.2975 -85.038263 
L 74.2975 -60.031653 
L 77.0875 -65.433726 
L 79.8775 -63.295615 
L 82.6675 -60.760274 
L 85.4575 -60.416778 
L 88.2475 -60.748856 
L 91.0375 -67.883949 
L 93.8275 -83.256015 
L 96.6175 -95.981984 
L 99.4075 -106.110706 
L 102.1975 -112.99933 
L 104.9875 -117.958002 
L 107.7775 -121.180864 
L 110.5675 -123.666873 
L 113.3575 -126.464379 
L 116.1475 -127.801353 
L 118.9375 -129.042086 
L 121.7275 -129.801396 
L 124.5175 -129.797821 
L 127.3075 -129.720532 
L 130.0975 -129.356851 
L 132.8875 -128.975054 
L 135.6775 -129.358539 
L 138.4675 -130.756601 
L 141.2575 -131.436544 
L 144.0475 -134.096387 
L 146.8375 -136.231157 
L 149.6275 -136.48642 
L 152.4175 -143.934031 
L 155.2075 -149.707522 
L 157.9975 -155.42561 
L 160.7875 -160.175798 
L 163.5775 -161.626119 
L 166.3675 -162.84738 
L 169.1575 -166.704298 
L 171.9475 -173.975937 
L 174.7375 -179.517391 
L 177.5275 -185.527483 
L 180.3175 -190.274988 
L 183.1075 -195.550659 
L 185.8975 -200.946378 
L 188.6875 -206.109901 
L 191.4775 -210.598757 
L 194.2675 -214.982199 
L 197.0575 -219.296212 
L 199.8475 -220.113444 
L 202.6375 -220.794571 
L 205.4275 -224.394659 
L 208.2175 -226.575145 
L 211.0075 -229.442635 
L 213.7975 -232.678561 
L 216.5875 -237.141911 
L 219.3775 -241.41866 
L 222.1675 -244.69138 
L 224.9575 -248.453043 
L 227.7475 -250.940329 
L 230.5375 -255.108025 
L 233.3275 -303.32737 
L 236.1175 -261.043565 
L 238.9075 -269.262906 
L 241.6975 -262.70757 
L 244.4875 -268.861995 
L 247.2775 -272.429222 
L 250.0675 -275.922289 
L 252.8575 -275.873302 
L 255.6475 -323.036843 
L 258.4375 -278.743128 
L 261.2275 -281.645196 
L 264.0175 -284.410361 
L 266.8075 -297.864389 
L 269.5975 -287.309314 
L 272.3875 -290.31394 
L 275.1775 -339.373509 
L 277.9675 -295.425073 
L 280.7575 -298.903622 
L 283.5475 -302.587687 
L 286.3375 -305.618404 
L 289.1275 -315.998272 
L 291.9175 -357.600565 
L 294.7075 -313.709973 
L 297.4975 -318.309943 
L 300.2875 -320.800366 
L 303.0775 -321.187722 
L 305.8675 -398.380208 
L 308.6575 -326.523095 
L 311.4475 -327.651113 
L 314.2375 -328.670872 
L 317.0275 -332.697253 
L 319.8175 -383.737126 
L 322.6075 -337.79807 
L 325.3975 -339.828806 
L 328.1875 -343.621824 
L 330.9775 -389.843392 
L 333.7675 -341.900218 
L 336.5575 -351.956268 
L 339.3475 -355.281629 
L 342.1375 -358.844068 
L 344.9275 -391.440831 
L 347.7175 -360.865341 
L 350.5075 -365.921787 
L 353.2975 -369.87202 
L 356.0875 -412.495428 
L 358.8775 -371.289908 
L 361.6675 -378.472248 
L 364.4575 -380.958052 
L 367.2475 -417.23163 
L 370.0375 -377.787233 
L 372.8275 -382.192001 
L 375.6175 -381.997352 
L 378.4075 -411.435247 
L 381.1975 -375.350849 
L 383.9875 -381.866125 
L 386.7775 -423.039605 
L 389.5675 -383.258069 
L 392.3575 -370.348385 
L 395.1475 -389.272889 
L 397.9375 -423.659461 
L 400.7275 -391.045627 
L 403.5175 -391.768392 
L 406.3075 -412.905296 
L 409.0975 -389.084107 
L 411.8875 -393.24977 
L 414.6775 -399.750012 
L 417.4675 -411.876113 
L 420.2575 -389.24561 
L 423.0475 -403.879581 
L 425.8375 -407.171035 
L 428.6275 -388.251603 
L 431.4175 -393.25146 
L 434.2075 -405.096104 
L 436.9975 -395.530442 
L 439.7875 -383.581175 
L 442.5775 -405.962244 
L 445.3675 -398.337689 
L 448.1575 -382.809712 
L 450.9475 -392.345239 
L 453.7375 -415.209333 
L 456.5275 -393.827346 
L 459.3175 -384.375784 
L 462.1075 -415.827768 
L 464.8975 -387.158082 
L 467.6875 -385.999208 
L 470.4775 -414.413765 
L 473.2675 -409.483537 
L 476.0575 -384.796024 
L 478.8475 -386.183101 
L 481.6375 -417.868304 
L 484.4275 -381.457188 
L 487.2175 -371.833315 
L 490.0075 -413.406803 
L 492.7975 -387.577348 
L 495.5875 -384.828908 
L 498.3775 -407.02007 
L 501.1675 -368.883625 
L 503.9575 -354.731844 
L 506.7475 -397.513173 
L 509.5375 -374.211223 
L 512.3275 -349.34176 
L 515.1175 -453.371396 
L 517.9075 -360.353511 
L 520.6975 -343.747271 
L 523.4875 -385.266798 
L 526.2775 -365.218957 
L 529.0675 -341.481678 
L 531.8575 -381.542513 
L 534.6475 -382.157925 
L 537.4375 -357.381032 
L 540.2275 -380.836315 
L 543.0175 -358.070473 
L 545.8075 -358.795635 
L 548.5975 -366.674813 
L 551.3875 -400.448951 
L 554.1775 -360.875306 
L 556.9675 -379.080361 
L 559.7575 -362.101205 
L 562.5475 -355.805129 
L 565.3375 -352.023288 
L 568.1275 -413.467015 
L 570.9175 -375.370434 
L 573.7075 -365.179872 
L 576.4975 -360.705902 
L 579.2875 -372.912286 
L 582.0775 -360.837036 
L 584.8675 -413.802262 
L 587.6575 -353.209469 
L 590.4475 -359.486923 
L 593.2375 -365.61965 
L 596.0275 -360.764212 
L 598.8175 -410.975903 
L 601.6075 -350.381119 
L 604.3975 -344.153023 
L 607.1875 -366.604187 
L 609.9775 -349.856804 
L 612.7675 -407.27656 
L 615.5575 -350.495964 
L 618.3475 -353.195727 
L 621.1375 -361.228707 
L 621.1375 -485.926259 
L 621.1375 -485.926259 
L 618.3475 -513.316968 
L 615.5575 -473.255748 
L 612.7675 -488.98922 
L 609.9775 -513.886027 
L 607.1875 -488.810186 
L 604.3975 -462.935189 
L 601.6075 -501.707067 
L 598.8175 -489.084399 
L 596.0275 -499.325686 
L 593.2375 -494.703242 
L 590.4475 -479.360871 
L 587.6575 -510.747633 
L 584.8675 -489.571627 
L 582.0775 -490.137937 
L 579.2875 -511.353062 
L 576.4975 -483.029837 
L 573.7075 -491.383521 
L 570.9175 -509.072701 
L 568.1275 -489.761653 
L 565.3375 -459.765365 
L 562.5475 -501.472549 
L 559.7575 -489.210765 
L 556.9675 -502.333649 
L 554.1775 -494.781742 
L 551.3875 -496.218855 
L 548.5975 -498.27356 
L 545.8075 -492.984029 
L 543.0175 -492.468838 
L 540.2275 -503.952359 
L 537.4375 -494.408883 
L 534.6475 -496.311956 
L 531.8575 -504.844866 
L 529.0675 -492.89728 
L 526.2775 -493.27245 
L 523.4875 -506.035863 
L 520.6975 -492.69467 
L 517.9075 -484.286866 
L 515.1175 -491.085647 
L 512.3275 -490.191452 
L 509.5375 -492.109268 
L 506.7475 -501.7198 
L 503.9575 -489.827486 
L 501.1675 -487.230439 
L 498.3775 -498.641038 
L 495.5875 -505.397414 
L 492.7975 -492.228347 
L 490.0075 -497.958047 
L 487.2175 -488.011524 
L 484.4275 -484.580551 
L 481.6375 -495.684248 
L 478.8475 -494.028143 
L 476.0575 -484.5852 
L 473.2675 -495.94052 
L 470.4775 -499.009905 
L 467.6875 -481.766653 
L 464.8975 -478.821995 
L 462.1075 -502.313427 
L 459.3175 -479.701054 
L 456.5275 -486.205789 
L 453.7375 -500.715116 
L 450.9475 -482.907371 
L 448.1575 -477.218895 
L 445.3675 -494.232802 
L 442.5775 -486.476553 
L 439.7875 -474.612957 
L 436.9975 -484.243432 
L 434.2075 -481.999865 
L 431.4175 -474.210507 
L 428.6275 -477.301784 
L 425.8375 -482.684121 
L 423.0475 -484.937249 
L 420.2575 -469.574679 
L 417.4675 -491.49265 
L 414.6775 -485.207801 
L 411.8875 -477.628077 
L 409.0975 -493.838754 
L 406.3075 -486.994409 
L 403.5175 -490.669421 
L 400.7275 -485.490475 
L 397.9375 -500.595403 
L 395.1475 -488.956738 
L 392.3575 -492.479344 
L 389.5675 -490.472931 
L 386.7775 -504.194946 
L 383.9875 -490.657553 
L 381.1975 -497.555812 
L 378.4075 -500.93077 
L 375.6175 -507.399079 
L 372.8275 -497.79166 
L 370.0375 -504.031685 
L 367.2475 -501.172563 
L 364.4575 -498.490643 
L 361.6675 -508.481491 
L 358.8775 -506.218956 
L 356.0875 -504.031152 
L 353.2975 -498.300387 
L 350.5075 -507.169816 
L 347.7175 -494.525896 
L 344.9275 -519.900813 
L 342.1375 -494.19944 
L 339.3475 -493.016947 
L 336.5575 -503.684549 
L 333.7675 -499.597419 
L 330.9775 -497.587865 
L 328.1875 -491.666362 
L 325.3975 -492.083364 
L 322.6075 -504.405595 
L 319.8175 -509.676569 
L 317.0275 -492.220849 
L 314.2375 -491.519383 
L 311.4475 -493.963582 
L 308.6575 -493.366396 
L 305.8675 -512.848072 
L 303.0775 -505.018214 
L 300.2875 -493.377125 
L 297.4975 -493.760074 
L 294.7075 -493.328231 
L 291.9175 -500.741777 
L 289.1275 -504.133182 
L 286.3375 -502.376901 
L 283.5475 -487.212443 
L 280.7575 -488.035649 
L 277.9675 -485.684262 
L 275.1775 -494.839637 
L 272.3875 -483.044997 
L 269.5975 -478.95288 
L 266.8075 -514.069302 
L 264.0175 -478.298008 
L 261.2275 -475.81342 
L 258.4375 -470.077547 
L 255.6475 -474.410842 
L 252.8575 -458.178877 
L 250.0675 -455.856923 
L 247.2775 -451.806479 
L 244.4875 -445.636058 
L 241.6975 -451.741359 
L 238.9075 -449.680057 
L 236.1175 -430.970737 
L 233.3275 -433.951028 
L 230.5375 -419.157432 
L 227.7475 -412.426472 
L 224.9575 -407.914172 
L 222.1675 -402.271316 
L 219.3775 -398.319741 
L 216.5875 -393.198581 
L 213.7975 -387.829126 
L 211.0075 -383.887846 
L 208.2175 -380.763642 
L 205.4275 -379.106283 
L 202.6375 -376.075677 
L 199.8475 -371.998392 
L 197.0575 -368.986294 
L 194.2675 -367.063461 
L 191.4775 -365.851306 
L 188.6875 -363.356153 
L 185.8975 -360.77475 
L 183.1075 -359.73502 
L 180.3175 -359.067362 
L 177.5275 -358.848506 
L 174.7375 -355.831152 
L 171.9475 -354.596327 
L 169.1575 -353.432844 
L 166.3675 -348.178581 
L 163.5775 -347.284019 
L 160.7875 -345.93218 
L 157.9975 -344.422997 
L 155.2075 -344.828802 
L 152.4175 -342.125101 
L 149.6275 -343.157123 
L 146.8375 -340.506283 
L 144.0475 -337.072392 
L 141.2575 -332.563634 
L 138.4675 -331.790529 
L 135.6775 -325.528112 
L 132.8875 -319.790078 
L 130.0975 -316.103658 
L 127.3075 -312.66876 
L 124.5175 -309.933039 
L 121.7275 -306.264477 
L 118.9375 -302.584109 
L 116.1475 -300.563445 
L 113.3575 -297.252823 
L 110.5675 -291.473073 
L 107.7775 -280.87217 
L 104.9875 -268.64888 
L 102.1975 -256.730488 
L 99.4075 -241.397478 
L 96.6175 -224.154866 
L 93.8275 -211.261074 
L 91.0375 -190.138887 
L 88.2475 -168.011568 
L 85.4575 -139.662681 
L 82.6675 -116.047585 
L 79.8775 -112.225622 
L 77.0875 -84.889487 
L 74.2975 -85.038263 
z
"/>
    </defs>
    <g clip-path="url(#pb39a924207)">
     <use xlink:href="#m3d8def1406" x="0" y="724.3925" style="fill: #d95f02; fill-opacity: 0.1"/>
    </g>
   </g>
   <g id="PolyCollection_4">
    <defs>
     <path id="m07fd553e90" d="M 68.7175 -60.536968 
L 68.7175 -60.536968 
L 71.5075 -58.42106 
L 74.2975 -53.712029 
L 77.0875 -67.967608 
L 79.8775 -79.035793 
L 82.6675 -61.173558 
L 85.4575 -55.075887 
L 88.2475 -50.715363 
L 91.0375 -51.100148 
L 93.8275 -50.892896 
L 96.6175 -47.798523 
L 99.4075 -45.748641 
L 102.1975 -45.985577 
L 104.9875 -46.318883 
L 107.7775 -46.845332 
L 110.5675 -47.206715 
L 113.3575 -48.475603 
L 116.1475 -49.463196 
L 118.9375 -53.011893 
L 121.7275 -56.523362 
L 124.5175 -63.459372 
L 127.3075 -67.294876 
L 130.0975 -74.806411 
L 132.8875 -83.968253 
L 135.6775 -94.729345 
L 138.4675 -102.682265 
L 141.2575 -108.127835 
L 144.0475 -112.870078 
L 146.8375 -117.654578 
L 149.6275 -121.899556 
L 152.4175 -126.635946 
L 155.2075 -128.944075 
L 157.9975 -131.873217 
L 160.7875 -134.518868 
L 163.5775 -136.844175 
L 166.3675 -137.553113 
L 169.1575 -139.075725 
L 171.9475 -140.69317 
L 174.7375 -142.052965 
L 177.5275 -144.126788 
L 180.3175 -145.425408 
L 183.1075 -145.907045 
L 185.8975 -144.952135 
L 188.6875 -144.425711 
L 191.4775 -143.290498 
L 194.2675 -142.701041 
L 197.0575 -143.168161 
L 199.8475 -142.535651 
L 202.6375 -141.152125 
L 205.4275 -139.830827 
L 208.2175 -136.842154 
L 211.0075 -136.008736 
L 213.7975 -134.680361 
L 216.5875 -133.390484 
L 219.3775 -130.524551 
L 222.1675 -127.549692 
L 224.9575 -125.44734 
L 227.7475 -121.937143 
L 230.5375 -119.354784 
L 233.3275 -103.474469 
L 236.1175 -113.444389 
L 238.9075 -112.333105 
L 241.6975 -111.378907 
L 244.4875 -111.280452 
L 247.2775 -111.848034 
L 250.0675 -111.378876 
L 252.8575 -112.423496 
L 255.6475 -100.956734 
L 258.4375 -115.299768 
L 261.2275 -116.96686 
L 264.0175 -117.458639 
L 266.8075 -115.402929 
L 269.5975 -116.04211 
L 272.3875 -116.944454 
L 275.1775 -106.330605 
L 277.9675 -120.977574 
L 280.7575 -123.311027 
L 283.5475 -124.411234 
L 286.3375 -124.001791 
L 289.1275 -122.895245 
L 291.9175 -111.793762 
L 294.7075 -122.564479 
L 297.4975 -122.207614 
L 300.2875 -122.663167 
L 303.0775 -123.044244 
L 305.8675 -111.082 
L 308.6575 -121.691116 
L 311.4475 -123.409546 
L 314.2375 -124.884668 
L 317.0275 -127.005192 
L 319.8175 -118.032628 
L 322.6075 -128.842921 
L 325.3975 -129.773359 
L 328.1875 -130.910114 
L 330.9775 -146.333341 
L 333.7675 -132.077979 
L 336.5575 -133.615117 
L 339.3475 -135.63628 
L 342.1375 -135.584924 
L 344.9275 -127.104415 
L 347.7175 -135.719052 
L 350.5075 -136.007474 
L 353.2975 -137.148338 
L 356.0875 -127.437685 
L 358.8775 -138.141349 
L 361.6675 -136.95186 
L 364.4575 -136.512223 
L 367.2475 -134.833051 
L 370.0375 -138.320065 
L 372.8275 -139.069573 
L 375.6175 -139.133448 
L 378.4075 -127.304898 
L 381.1975 -139.304244 
L 383.9875 -140.423364 
L 386.7775 -127.240988 
L 389.5675 -140.364305 
L 392.3575 -134.488764 
L 395.1475 -140.068657 
L 397.9375 -126.925628 
L 400.7275 -140.415983 
L 403.5175 -140.66118 
L 406.3075 -127.812848 
L 409.0975 -141.498953 
L 411.8875 -131.701413 
L 414.6775 -142.340342 
L 417.4675 -129.91802 
L 420.2575 -143.053738 
L 423.0475 -143.287732 
L 425.8375 -130.709272 
L 428.6275 -143.133687 
L 431.4175 -129.66266 
L 434.2075 -142.631177 
L 436.9975 -127.63717 
L 439.7875 -139.085786 
L 442.5775 -138.677342 
L 445.3675 -123.762057 
L 448.1575 -122.634026 
L 450.9475 -136.089784 
L 453.7375 -120.821885 
L 456.5275 -134.549311 
L 459.3175 -133.867865 
L 462.1075 -118.737015 
L 464.8975 -120.597943 
L 467.6875 -132.487597 
L 470.4775 -116.283424 
L 473.2675 -130.739378 
L 476.0575 -129.885604 
L 478.8475 -112.938681 
L 481.6375 -118.438394 
L 484.4275 -128.463149 
L 487.2175 -110.353532 
L 490.0075 -125.989546 
L 492.7975 -124.789477 
L 495.5875 -93.416917 
L 498.3775 -122.688002 
L 501.1675 -121.259887 
L 503.9575 -103.033439 
L 506.7475 -121.033948 
L 509.5375 -114.95727 
L 512.3275 -101.499049 
L 515.1175 -119.285454 
L 517.9075 -118.415159 
L 520.6975 -98.174045 
L 523.4875 -110.428719 
L 526.2775 -112.99714 
L 529.0675 -93.086424 
L 531.8575 -111.233394 
L 534.6475 -84.580082 
L 537.4375 -110.387286 
L 540.2275 -110.208848 
L 543.0175 -90.80941 
L 545.8075 -107.579011 
L 548.5975 -108.836425 
L 551.3875 -86.191325 
L 554.1775 -104.926239 
L 556.9675 -105.239754 
L 559.7575 -81.186572 
L 562.5475 -103.200587 
L 565.3375 -120.024591 
L 568.1275 -101.132649 
L 570.9175 -104.706218 
L 573.7075 -77.858557 
L 576.4975 -98.645421 
L 579.2875 -98.163626 
L 582.0775 -75.121475 
L 584.8675 -96.658049 
L 587.6575 -74.524514 
L 590.4475 -95.62322 
L 593.2375 -101.320887 
L 596.0275 -72.338842 
L 598.8175 -93.359356 
L 601.6075 -93.435793 
L 604.3975 -103.012548 
L 607.1875 -93.848799 
L 609.9775 -70.762211 
L 612.7675 -93.872529 
L 615.5575 -100.934034 
L 618.3475 -71.555687 
L 621.1375 -95.262807 
L 621.1375 -346.435549 
L 621.1375 -346.435549 
L 618.3475 -324.37776 
L 615.5575 -371.061982 
L 612.7675 -347.414725 
L 609.9775 -327.233792 
L 607.1875 -346.098726 
L 604.3975 -160.219622 
L 601.6075 -344.752359 
L 598.8175 -343.299533 
L 596.0275 -327.318226 
L 593.2375 -363.450631 
L 590.4475 -341.167186 
L 587.6575 -328.277215 
L 584.8675 -340.334884 
L 582.0775 -352.399478 
L 579.2875 -339.217273 
L 576.4975 -340.132155 
L 573.7075 -325.707928 
L 570.9175 -355.716806 
L 568.1275 -333.411114 
L 565.3375 -164.166825 
L 562.5475 -331.326447 
L 559.7575 -336.467407 
L 556.9675 -325.560847 
L 554.1775 -324.160905 
L 551.3875 -312.984807 
L 548.5975 -337.855375 
L 545.8075 -317.619395 
L 543.0175 -304.505783 
L 540.2275 -314.861779 
L 537.4375 -315.96879 
L 534.6475 -322.306503 
L 531.8575 -316.565809 
L 529.0675 -305.973531 
L 526.2775 -318.081267 
L 523.4875 -334.393583 
L 520.6975 -304.899758 
L 517.9075 -317.126637 
L 515.1175 -317.662809 
L 512.3275 -303.702873 
L 509.5375 -330.635554 
L 506.7475 -319.581129 
L 503.9575 -304.594517 
L 501.1675 -319.617511 
L 498.3775 -318.361312 
L 495.5875 -311.47796 
L 492.7975 -315.007845 
L 490.0075 -313.495801 
L 487.2175 -295.34278 
L 484.4275 -310.540801 
L 481.6375 -315.968192 
L 478.8475 -289.188627 
L 476.0575 -305.785218 
L 473.2675 -304.509486 
L 470.4775 -284.496112 
L 467.6875 -302.23075 
L 464.8975 -301.56486 
L 462.1075 -281.757206 
L 459.3175 -301.214245 
L 456.5275 -301.702392 
L 453.7375 -279.473299 
L 450.9475 -299.90636 
L 448.1575 -292.02473 
L 445.3675 -274.923529 
L 442.5775 -293.28876 
L 439.7875 -294.097604 
L 436.9975 -272.628115 
L 434.2075 -291.578899 
L 431.4175 -275.459391 
L 428.6275 -286.77655 
L 425.8375 -269.254467 
L 423.0475 -286.195565 
L 420.2575 -285.893168 
L 417.4675 -269.211342 
L 414.6775 -285.676336 
L 411.8875 -256.309838 
L 409.0975 -283.846988 
L 406.3075 -272.501769 
L 403.5175 -285.325439 
L 400.7275 -285.619221 
L 397.9375 -279.136511 
L 395.1475 -287.552403 
L 392.3575 -243.395931 
L 389.5675 -286.271178 
L 386.7775 -283.807974 
L 383.9875 -287.498636 
L 381.1975 -288.086349 
L 378.4075 -289.383526 
L 375.6175 -290.789069 
L 372.8275 -291.612326 
L 370.0375 -290.52024 
L 367.2475 -210.910699 
L 364.4575 -291.269184 
L 361.6675 -293.197742 
L 358.8775 -293.251702 
L 356.0875 -299.790532 
L 353.2975 -293.984526 
L 350.5075 -292.336662 
L 347.7175 -291.162737 
L 344.9275 -295.476537 
L 342.1375 -289.321796 
L 339.3475 -288.572457 
L 336.5575 -286.949943 
L 333.7675 -285.525902 
L 330.9775 -181.159363 
L 328.1875 -284.112903 
L 325.3975 -283.224403 
L 322.6075 -282.504384 
L 319.8175 -285.456335 
L 317.0275 -282.837232 
L 314.2375 -285.217942 
L 311.4475 -287.811047 
L 308.6575 -289.896087 
L 305.8675 -293.589227 
L 303.0775 -289.650086 
L 300.2875 -288.792341 
L 297.4975 -287.95764 
L 294.7075 -287.534928 
L 291.9175 -290.857407 
L 289.1275 -286.687704 
L 286.3375 -286.593785 
L 283.5475 -286.707376 
L 280.7575 -287.084399 
L 277.9675 -286.663314 
L 275.1775 -291.561822 
L 272.3875 -288.246084 
L 269.5975 -288.411996 
L 266.8075 -286.083566 
L 264.0175 -285.154046 
L 261.2275 -286.593685 
L 258.4375 -288.250928 
L 255.6475 -293.185378 
L 252.8575 -291.908464 
L 250.0675 -293.94743 
L 247.2775 -293.41419 
L 244.4875 -290.847448 
L 241.6975 -290.806844 
L 238.9075 -289.564061 
L 236.1175 -290.004475 
L 233.3275 -290.253765 
L 230.5375 -284.962232 
L 227.7475 -285.963013 
L 224.9575 -285.993513 
L 222.1675 -287.353604 
L 219.3775 -287.02106 
L 216.5875 -286.119762 
L 213.7975 -283.876546 
L 211.0075 -284.895148 
L 208.2175 -283.962363 
L 205.4275 -284.648278 
L 202.6375 -284.750776 
L 199.8475 -282.653429 
L 197.0575 -280.318645 
L 194.2675 -277.611813 
L 191.4775 -276.531558 
L 188.6875 -276.761308 
L 185.8975 -275.574296 
L 183.1075 -275.500844 
L 180.3175 -275.250378 
L 177.5275 -273.493284 
L 174.7375 -272.333013 
L 171.9475 -267.811165 
L 169.1575 -263.984771 
L 166.3675 -259.762888 
L 163.5775 -255.490825 
L 160.7875 -250.594194 
L 157.9975 -246.250766 
L 155.2075 -241.030165 
L 152.4175 -235.577724 
L 149.6275 -229.952963 
L 146.8375 -223.924558 
L 144.0475 -219.402379 
L 141.2575 -215.691426 
L 138.4675 -212.486705 
L 135.6775 -208.973827 
L 132.8875 -205.333233 
L 130.0975 -202.522121 
L 127.3075 -200.02319 
L 124.5175 -198.097532 
L 121.7275 -197.628026 
L 118.9375 -199.246998 
L 116.1475 -199.550942 
L 113.3575 -201.802839 
L 110.5675 -204.737604 
L 107.7775 -209.595627 
L 104.9875 -213.724216 
L 102.1975 -218.431639 
L 99.4075 -224.640571 
L 96.6175 -224.352334 
L 93.8275 -221.194599 
L 91.0375 -211.525288 
L 88.2475 -201.443061 
L 85.4575 -195.286717 
L 82.6675 -185.107386 
L 79.8775 -186.760952 
L 77.0875 -154.93173 
L 74.2975 -126.003888 
L 71.5075 -76.386785 
L 68.7175 -60.536968 
z
"/>
    </defs>
    <g clip-path="url(#pb39a924207)">
     <use xlink:href="#m07fd553e90" x="0" y="724.3925" style="fill: #3ccd10; fill-opacity: 0.1"/>
    </g>
   </g>
   <g id="matplotlib.axis_1">
    <g id="xtick_1">
     <g id="line2d_1">
      <defs>
       <path id="m4537dadd1a" d="M 0 0 
L 0 3.5 
" style="stroke: #000000; stroke-width: 0.8"/>
      </defs>
      <g>
       <use xlink:href="#m4537dadd1a" x="63.1375" y="667.48" style="stroke: #000000; stroke-width: 0.8"/>
      </g>
     </g>
     <g id="text_1">
      <!-- 0% -->
      <g transform="translate(55.205469 682.078437)scale(0.1 -0.1)">
       <defs>
        <path id="DejaVuSans-30" d="M 2034 4250 
Q 1547 4250 1301 3770 
Q 1056 3291 1056 2328 
Q 1056 1369 1301 889 
Q 1547 409 2034 409 
Q 2525 409 2770 889 
Q 3016 1369 3016 2328 
Q 3016 3291 2770 3770 
Q 2525 4250 2034 4250 
z
M 2034 4750 
Q 2819 4750 3233 4129 
Q 3647 3509 3647 2328 
Q 3647 1150 3233 529 
Q 2819 -91 2034 -91 
Q 1250 -91 836 529 
Q 422 1150 422 2328 
Q 422 3509 836 4129 
Q 1250 4750 2034 4750 
z
" transform="scale(0.015625)"/>
        <path id="DejaVuSans-25" d="M 4653 2053 
Q 4381 2053 4226 1822 
Q 4072 1591 4072 1178 
Q 4072 772 4226 539 
Q 4381 306 4653 306 
Q 4919 306 5073 539 
Q 5228 772 5228 1178 
Q 5228 1588 5073 1820 
Q 4919 2053 4653 2053 
z
M 4653 2450 
Q 5147 2450 5437 2106 
Q 5728 1763 5728 1178 
Q 5728 594 5436 251 
Q 5144 -91 4653 -91 
Q 4153 -91 3862 251 
Q 3572 594 3572 1178 
Q 3572 1766 3864 2108 
Q 4156 2450 4653 2450 
z
M 1428 4353 
Q 1159 4353 1004 4120 
Q 850 3888 850 3481 
Q 850 3069 1003 2837 
Q 1156 2606 1428 2606 
Q 1700 2606 1854 2837 
Q 2009 3069 2009 3481 
Q 2009 3884 1853 4118 
Q 1697 4353 1428 4353 
z
M 4250 4750 
L 4750 4750 
L 1831 -91 
L 1331 -91 
L 4250 4750 
z
M 1428 4750 
Q 1922 4750 2215 4408 
Q 2509 4066 2509 3481 
Q 2509 2891 2217 2550 
Q 1925 2209 1428 2209 
Q 931 2209 642 2551 
Q 353 2894 353 3481 
Q 353 4063 643 4406 
Q 934 4750 1428 4750 
z
" transform="scale(0.015625)"/>
       </defs>
       <use xlink:href="#DejaVuSans-30"/>
       <use xlink:href="#DejaVuSans-25" x="63.623047"/>
      </g>
     </g>
    </g>
    <g id="xtick_2">
     <g id="line2d_2">
      <g>
       <use xlink:href="#m4537dadd1a" x="132.8875" y="667.48" style="stroke: #000000; stroke-width: 0.8"/>
      </g>
     </g>
     <g id="text_2">
      <!-- 25% -->
      <g transform="translate(121.774219 682.078437)scale(0.1 -0.1)">
       <defs>
        <path id="DejaVuSans-32" d="M 1228 531 
L 3431 531 
L 3431 0 
L 469 0 
L 469 531 
Q 828 903 1448 1529 
Q 2069 2156 2228 2338 
Q 2531 2678 2651 2914 
Q 2772 3150 2772 3378 
Q 2772 3750 2511 3984 
Q 2250 4219 1831 4219 
Q 1534 4219 1204 4116 
Q 875 4013 500 3803 
L 500 4441 
Q 881 4594 1212 4672 
Q 1544 4750 1819 4750 
Q 2544 4750 2975 4387 
Q 3406 4025 3406 3419 
Q 3406 3131 3298 2873 
Q 3191 2616 2906 2266 
Q 2828 2175 2409 1742 
Q 1991 1309 1228 531 
z
" transform="scale(0.015625)"/>
        <path id="DejaVuSans-35" d="M 691 4666 
L 3169 4666 
L 3169 4134 
L 1269 4134 
L 1269 2991 
Q 1406 3038 1543 3061 
Q 1681 3084 1819 3084 
Q 2600 3084 3056 2656 
Q 3513 2228 3513 1497 
Q 3513 744 3044 326 
Q 2575 -91 1722 -91 
Q 1428 -91 1123 -41 
Q 819 9 494 109 
L 494 744 
Q 775 591 1075 516 
Q 1375 441 1709 441 
Q 2250 441 2565 725 
Q 2881 1009 2881 1497 
Q 2881 1984 2565 2268 
Q 2250 2553 1709 2553 
Q 1456 2553 1204 2497 
Q 953 2441 691 2322 
L 691 4666 
z
" transform="scale(0.015625)"/>
       </defs>
       <use xlink:href="#DejaVuSans-32"/>
       <use xlink:href="#DejaVuSans-35" x="63.623047"/>
       <use xlink:href="#DejaVuSans-25" x="127.246094"/>
      </g>
     </g>
    </g>
    <g id="xtick_3">
     <g id="line2d_3">
      <g>
       <use xlink:href="#m4537dadd1a" x="260.420292" y="667.48" style="stroke: #000000; stroke-width: 0.8"/>
      </g>
     </g>
     <g id="text_3">
      <!-- 50% -->
      <g transform="translate(249.307011 682.078437)scale(0.1 -0.1)">
       <use xlink:href="#DejaVuSans-35"/>
       <use xlink:href="#DejaVuSans-30" x="63.623047"/>
       <use xlink:href="#DejaVuSans-25" x="127.246094"/>
      </g>
     </g>
    </g>
    <g id="xtick_4">
     <g id="line2d_4">
      <g>
       <use xlink:href="#m4537dadd1a" x="425.569131" y="667.48" style="stroke: #000000; stroke-width: 0.8"/>
      </g>
     </g>
     <g id="text_4">
      <!-- 75% -->
      <g transform="translate(414.45585 682.078437)scale(0.1 -0.1)">
       <defs>
        <path id="DejaVuSans-37" d="M 525 4666 
L 3525 4666 
L 3525 4397 
L 1831 0 
L 1172 0 
L 2766 4134 
L 525 4134 
L 525 4666 
z
" transform="scale(0.015625)"/>
       </defs>
       <use xlink:href="#DejaVuSans-37"/>
       <use xlink:href="#DejaVuSans-35" x="63.623047"/>
       <use xlink:href="#DejaVuSans-25" x="127.246094"/>
      </g>
     </g>
    </g>
    <g id="xtick_5">
     <g id="line2d_5">
      <g>
       <use xlink:href="#m4537dadd1a" x="621.1375" y="667.48" style="stroke: #000000; stroke-width: 0.8"/>
      </g>
     </g>
     <g id="text_5">
      <!-- 100% -->
      <g transform="translate(606.842969 682.078437)scale(0.1 -0.1)">
       <defs>
        <path id="DejaVuSans-31" d="M 794 531 
L 1825 531 
L 1825 4091 
L 703 3866 
L 703 4441 
L 1819 4666 
L 2450 4666 
L 2450 531 
L 3481 531 
L 3481 0 
L 794 0 
L 794 531 
z
" transform="scale(0.015625)"/>
       </defs>
       <use xlink:href="#DejaVuSans-31"/>
       <use xlink:href="#DejaVuSans-30" x="63.623047"/>
       <use xlink:href="#DejaVuSans-30" x="127.246094"/>
       <use xlink:href="#DejaVuSans-25" x="190.869141"/>
      </g>
     </g>
    </g>
    <g id="text_6">
     <!-- Progress percent -->
     <g transform="translate(215.926563 710.953437)scale(0.3 -0.3)">
      <defs>
       <path id="DejaVuSans-50" d="M 1259 4147 
L 1259 2394 
L 2053 2394 
Q 2494 2394 2734 2622 
Q 2975 2850 2975 3272 
Q 2975 3691 2734 3919 
Q 2494 4147 2053 4147 
L 1259 4147 
z
M 628 4666 
L 2053 4666 
Q 2838 4666 3239 4311 
Q 3641 3956 3641 3272 
Q 3641 2581 3239 2228 
Q 2838 1875 2053 1875 
L 1259 1875 
L 1259 0 
L 628 0 
L 628 4666 
z
" transform="scale(0.015625)"/>
       <path id="DejaVuSans-72" d="M 2631 2963 
Q 2534 3019 2420 3045 
Q 2306 3072 2169 3072 
Q 1681 3072 1420 2755 
Q 1159 2438 1159 1844 
L 1159 0 
L 581 0 
L 581 3500 
L 1159 3500 
L 1159 2956 
Q 1341 3275 1631 3429 
Q 1922 3584 2338 3584 
Q 2397 3584 2469 3576 
Q 2541 3569 2628 3553 
L 2631 2963 
z
" transform="scale(0.015625)"/>
       <path id="DejaVuSans-6f" d="M 1959 3097 
Q 1497 3097 1228 2736 
Q 959 2375 959 1747 
Q 959 1119 1226 758 
Q 1494 397 1959 397 
Q 2419 397 2687 759 
Q 2956 1122 2956 1747 
Q 2956 2369 2687 2733 
Q 2419 3097 1959 3097 
z
M 1959 3584 
Q 2709 3584 3137 3096 
Q 3566 2609 3566 1747 
Q 3566 888 3137 398 
Q 2709 -91 1959 -91 
Q 1206 -91 779 398 
Q 353 888 353 1747 
Q 353 2609 779 3096 
Q 1206 3584 1959 3584 
z
" transform="scale(0.015625)"/>
       <path id="DejaVuSans-67" d="M 2906 1791 
Q 2906 2416 2648 2759 
Q 2391 3103 1925 3103 
Q 1463 3103 1205 2759 
Q 947 2416 947 1791 
Q 947 1169 1205 825 
Q 1463 481 1925 481 
Q 2391 481 2648 825 
Q 2906 1169 2906 1791 
z
M 3481 434 
Q 3481 -459 3084 -895 
Q 2688 -1331 1869 -1331 
Q 1566 -1331 1297 -1286 
Q 1028 -1241 775 -1147 
L 775 -588 
Q 1028 -725 1275 -790 
Q 1522 -856 1778 -856 
Q 2344 -856 2625 -561 
Q 2906 -266 2906 331 
L 2906 616 
Q 2728 306 2450 153 
Q 2172 0 1784 0 
Q 1141 0 747 490 
Q 353 981 353 1791 
Q 353 2603 747 3093 
Q 1141 3584 1784 3584 
Q 2172 3584 2450 3431 
Q 2728 3278 2906 2969 
L 2906 3500 
L 3481 3500 
L 3481 434 
z
" transform="scale(0.015625)"/>
       <path id="DejaVuSans-65" d="M 3597 1894 
L 3597 1613 
L 953 1613 
Q 991 1019 1311 708 
Q 1631 397 2203 397 
Q 2534 397 2845 478 
Q 3156 559 3463 722 
L 3463 178 
Q 3153 47 2828 -22 
Q 2503 -91 2169 -91 
Q 1331 -91 842 396 
Q 353 884 353 1716 
Q 353 2575 817 3079 
Q 1281 3584 2069 3584 
Q 2775 3584 3186 3129 
Q 3597 2675 3597 1894 
z
M 3022 2063 
Q 3016 2534 2758 2815 
Q 2500 3097 2075 3097 
Q 1594 3097 1305 2825 
Q 1016 2553 972 2059 
L 3022 2063 
z
" transform="scale(0.015625)"/>
       <path id="DejaVuSans-73" d="M 2834 3397 
L 2834 2853 
Q 2591 2978 2328 3040 
Q 2066 3103 1784 3103 
Q 1356 3103 1142 2972 
Q 928 2841 928 2578 
Q 928 2378 1081 2264 
Q 1234 2150 1697 2047 
L 1894 2003 
Q 2506 1872 2764 1633 
Q 3022 1394 3022 966 
Q 3022 478 2636 193 
Q 2250 -91 1575 -91 
Q 1294 -91 989 -36 
Q 684 19 347 128 
L 347 722 
Q 666 556 975 473 
Q 1284 391 1588 391 
Q 1994 391 2212 530 
Q 2431 669 2431 922 
Q 2431 1156 2273 1281 
Q 2116 1406 1581 1522 
L 1381 1569 
Q 847 1681 609 1914 
Q 372 2147 372 2553 
Q 372 3047 722 3315 
Q 1072 3584 1716 3584 
Q 2034 3584 2315 3537 
Q 2597 3491 2834 3397 
z
" transform="scale(0.015625)"/>
       <path id="DejaVuSans-20" transform="scale(0.015625)"/>
       <path id="DejaVuSans-70" d="M 1159 525 
L 1159 -1331 
L 581 -1331 
L 581 3500 
L 1159 3500 
L 1159 2969 
Q 1341 3281 1617 3432 
Q 1894 3584 2278 3584 
Q 2916 3584 3314 3078 
Q 3713 2572 3713 1747 
Q 3713 922 3314 415 
Q 2916 -91 2278 -91 
Q 1894 -91 1617 61 
Q 1341 213 1159 525 
z
M 3116 1747 
Q 3116 2381 2855 2742 
Q 2594 3103 2138 3103 
Q 1681 3103 1420 2742 
Q 1159 2381 1159 1747 
Q 1159 1113 1420 752 
Q 1681 391 2138 391 
Q 2594 391 2855 752 
Q 3116 1113 3116 1747 
z
" transform="scale(0.015625)"/>
       <path id="DejaVuSans-63" d="M 3122 3366 
L 3122 2828 
Q 2878 2963 2633 3030 
Q 2388 3097 2138 3097 
Q 1578 3097 1268 2742 
Q 959 2388 959 1747 
Q 959 1106 1268 751 
Q 1578 397 2138 397 
Q 2388 397 2633 464 
Q 2878 531 3122 666 
L 3122 134 
Q 2881 22 2623 -34 
Q 2366 -91 2075 -91 
Q 1284 -91 818 406 
Q 353 903 353 1747 
Q 353 2603 823 3093 
Q 1294 3584 2113 3584 
Q 2378 3584 2631 3529 
Q 2884 3475 3122 3366 
z
" transform="scale(0.015625)"/>
       <path id="DejaVuSans-6e" d="M 3513 2113 
L 3513 0 
L 2938 0 
L 2938 2094 
Q 2938 2591 2744 2837 
Q 2550 3084 2163 3084 
Q 1697 3084 1428 2787 
Q 1159 2491 1159 1978 
L 1159 0 
L 581 0 
L 581 3500 
L 1159 3500 
L 1159 2956 
Q 1366 3272 1645 3428 
Q 1925 3584 2291 3584 
Q 2894 3584 3203 3211 
Q 3513 2838 3513 2113 
z
" transform="scale(0.015625)"/>
       <path id="DejaVuSans-74" d="M 1172 4494 
L 1172 3500 
L 2356 3500 
L 2356 3053 
L 1172 3053 
L 1172 1153 
Q 1172 725 1289 603 
Q 1406 481 1766 481 
L 2356 481 
L 2356 0 
L 1766 0 
Q 1100 0 847 248 
Q 594 497 594 1153 
L 594 3053 
L 172 3053 
L 172 3500 
L 594 3500 
L 594 4494 
L 1172 4494 
z
" transform="scale(0.015625)"/>
      </defs>
      <use xlink:href="#DejaVuSans-50"/>
      <use xlink:href="#DejaVuSans-72" x="58.552734"/>
      <use xlink:href="#DejaVuSans-6f" x="97.416016"/>
      <use xlink:href="#DejaVuSans-67" x="158.597656"/>
      <use xlink:href="#DejaVuSans-72" x="222.074219"/>
      <use xlink:href="#DejaVuSans-65" x="260.9375"/>
      <use xlink:href="#DejaVuSans-73" x="322.460938"/>
      <use xlink:href="#DejaVuSans-73" x="374.560547"/>
      <use xlink:href="#DejaVuSans-20" x="426.660156"/>
      <use xlink:href="#DejaVuSans-70" x="458.447266"/>
      <use xlink:href="#DejaVuSans-65" x="521.923828"/>
      <use xlink:href="#DejaVuSans-72" x="583.447266"/>
      <use xlink:href="#DejaVuSans-63" x="622.310547"/>
      <use xlink:href="#DejaVuSans-65" x="677.291016"/>
      <use xlink:href="#DejaVuSans-6e" x="738.814453"/>
      <use xlink:href="#DejaVuSans-74" x="802.193359"/>
     </g>
    </g>
   </g>
   <g id="matplotlib.axis_2">
    <g id="ytick_1">
     <g id="line2d_6">
      <defs>
       <path id="m2c4d73b0a0" d="M 0 0 
L -3.5 0 
" style="stroke: #000000; stroke-width: 0.8"/>
      </defs>
      <g>
       <use xlink:href="#m2c4d73b0a0" x="63.1375" y="566.68" style="stroke: #000000; stroke-width: 0.8"/>
      </g>
     </g>
     <g id="text_7">
      <!-- 0.2 -->
      <g transform="translate(40.234375 570.479219)scale(0.1 -0.1)">
       <defs>
        <path id="DejaVuSans-2e" d="M 684 794 
L 1344 794 
L 1344 0 
L 684 0 
L 684 794 
z
" transform="scale(0.015625)"/>
       </defs>
       <use xlink:href="#DejaVuSans-30"/>
       <use xlink:href="#DejaVuSans-2e" x="63.623047"/>
       <use xlink:href="#DejaVuSans-32" x="95.410156"/>
      </g>
     </g>
    </g>
    <g id="ytick_2">
     <g id="line2d_7">
      <g>
       <use xlink:href="#m2c4d73b0a0" x="63.1375" y="465.88" style="stroke: #000000; stroke-width: 0.8"/>
      </g>
     </g>
     <g id="text_8">
      <!-- 0.4 -->
      <g transform="translate(40.234375 469.679219)scale(0.1 -0.1)">
       <defs>
        <path id="DejaVuSans-34" d="M 2419 4116 
L 825 1625 
L 2419 1625 
L 2419 4116 
z
M 2253 4666 
L 3047 4666 
L 3047 1625 
L 3713 1625 
L 3713 1100 
L 3047 1100 
L 3047 0 
L 2419 0 
L 2419 1100 
L 313 1100 
L 313 1709 
L 2253 4666 
z
" transform="scale(0.015625)"/>
       </defs>
       <use xlink:href="#DejaVuSans-30"/>
       <use xlink:href="#DejaVuSans-2e" x="63.623047"/>
       <use xlink:href="#DejaVuSans-34" x="95.410156"/>
      </g>
     </g>
    </g>
    <g id="ytick_3">
     <g id="line2d_8">
      <g>
       <use xlink:href="#m2c4d73b0a0" x="63.1375" y="365.08" style="stroke: #000000; stroke-width: 0.8"/>
      </g>
     </g>
     <g id="text_9">
      <!-- 0.6 -->
      <g transform="translate(40.234375 368.879219)scale(0.1 -0.1)">
       <defs>
        <path id="DejaVuSans-36" d="M 2113 2584 
Q 1688 2584 1439 2293 
Q 1191 2003 1191 1497 
Q 1191 994 1439 701 
Q 1688 409 2113 409 
Q 2538 409 2786 701 
Q 3034 994 3034 1497 
Q 3034 2003 2786 2293 
Q 2538 2584 2113 2584 
z
M 3366 4563 
L 3366 3988 
Q 3128 4100 2886 4159 
Q 2644 4219 2406 4219 
Q 1781 4219 1451 3797 
Q 1122 3375 1075 2522 
Q 1259 2794 1537 2939 
Q 1816 3084 2150 3084 
Q 2853 3084 3261 2657 
Q 3669 2231 3669 1497 
Q 3669 778 3244 343 
Q 2819 -91 2113 -91 
Q 1303 -91 875 529 
Q 447 1150 447 2328 
Q 447 3434 972 4092 
Q 1497 4750 2381 4750 
Q 2619 4750 2861 4703 
Q 3103 4656 3366 4563 
z
" transform="scale(0.015625)"/>
       </defs>
       <use xlink:href="#DejaVuSans-30"/>
       <use xlink:href="#DejaVuSans-2e" x="63.623047"/>
       <use xlink:href="#DejaVuSans-36" x="95.410156"/>
      </g>
     </g>
    </g>
    <g id="ytick_4">
     <g id="line2d_9">
      <g>
       <use xlink:href="#m2c4d73b0a0" x="63.1375" y="264.28" style="stroke: #000000; stroke-width: 0.8"/>
      </g>
     </g>
     <g id="text_10">
      <!-- 0.8 -->
      <g transform="translate(40.234375 268.079219)scale(0.1 -0.1)">
       <defs>
        <path id="DejaVuSans-38" d="M 2034 2216 
Q 1584 2216 1326 1975 
Q 1069 1734 1069 1313 
Q 1069 891 1326 650 
Q 1584 409 2034 409 
Q 2484 409 2743 651 
Q 3003 894 3003 1313 
Q 3003 1734 2745 1975 
Q 2488 2216 2034 2216 
z
M 1403 2484 
Q 997 2584 770 2862 
Q 544 3141 544 3541 
Q 544 4100 942 4425 
Q 1341 4750 2034 4750 
Q 2731 4750 3128 4425 
Q 3525 4100 3525 3541 
Q 3525 3141 3298 2862 
Q 3072 2584 2669 2484 
Q 3125 2378 3379 2068 
Q 3634 1759 3634 1313 
Q 3634 634 3220 271 
Q 2806 -91 2034 -91 
Q 1263 -91 848 271 
Q 434 634 434 1313 
Q 434 1759 690 2068 
Q 947 2378 1403 2484 
z
M 1172 3481 
Q 1172 3119 1398 2916 
Q 1625 2713 2034 2713 
Q 2441 2713 2670 2916 
Q 2900 3119 2900 3481 
Q 2900 3844 2670 4047 
Q 2441 4250 2034 4250 
Q 1625 4250 1398 4047 
Q 1172 3844 1172 3481 
z
" transform="scale(0.015625)"/>
       </defs>
       <use xlink:href="#DejaVuSans-30"/>
       <use xlink:href="#DejaVuSans-2e" x="63.623047"/>
       <use xlink:href="#DejaVuSans-38" x="95.410156"/>
      </g>
     </g>
    </g>
    <g id="ytick_5">
     <g id="line2d_10">
      <g>
       <use xlink:href="#m2c4d73b0a0" x="63.1375" y="163.48" style="stroke: #000000; stroke-width: 0.8"/>
      </g>
     </g>
     <g id="text_11">
      <!-- 1.0 -->
      <g transform="translate(40.234375 167.279219)scale(0.1 -0.1)">
       <use xlink:href="#DejaVuSans-31"/>
       <use xlink:href="#DejaVuSans-2e" x="63.623047"/>
       <use xlink:href="#DejaVuSans-30" x="95.410156"/>
      </g>
     </g>
    </g>
    <g id="text_12">
     <!-- Waypoint progress (0: start, 1: goal) -->
     <g transform="translate(29.995312 661.714375)rotate(-90)scale(0.3 -0.3)">
      <defs>
       <path id="DejaVuSans-57" d="M 213 4666 
L 850 4666 
L 1831 722 
L 2809 4666 
L 3519 4666 
L 4500 722 
L 5478 4666 
L 6119 4666 
L 4947 0 
L 4153 0 
L 3169 4050 
L 2175 0 
L 1381 0 
L 213 4666 
z
" transform="scale(0.015625)"/>
       <path id="DejaVuSans-61" d="M 2194 1759 
Q 1497 1759 1228 1600 
Q 959 1441 959 1056 
Q 959 750 1161 570 
Q 1363 391 1709 391 
Q 2188 391 2477 730 
Q 2766 1069 2766 1631 
L 2766 1759 
L 2194 1759 
z
M 3341 1997 
L 3341 0 
L 2766 0 
L 2766 531 
Q 2569 213 2275 61 
Q 1981 -91 1556 -91 
Q 1019 -91 701 211 
Q 384 513 384 1019 
Q 384 1609 779 1909 
Q 1175 2209 1959 2209 
L 2766 2209 
L 2766 2266 
Q 2766 2663 2505 2880 
Q 2244 3097 1772 3097 
Q 1472 3097 1187 3025 
Q 903 2953 641 2809 
L 641 3341 
Q 956 3463 1253 3523 
Q 1550 3584 1831 3584 
Q 2591 3584 2966 3190 
Q 3341 2797 3341 1997 
z
" transform="scale(0.015625)"/>
       <path id="DejaVuSans-79" d="M 2059 -325 
Q 1816 -950 1584 -1140 
Q 1353 -1331 966 -1331 
L 506 -1331 
L 506 -850 
L 844 -850 
Q 1081 -850 1212 -737 
Q 1344 -625 1503 -206 
L 1606 56 
L 191 3500 
L 800 3500 
L 1894 763 
L 2988 3500 
L 3597 3500 
L 2059 -325 
z
" transform="scale(0.015625)"/>
       <path id="DejaVuSans-69" d="M 603 3500 
L 1178 3500 
L 1178 0 
L 603 0 
L 603 3500 
z
M 603 4863 
L 1178 4863 
L 1178 4134 
L 603 4134 
L 603 4863 
z
" transform="scale(0.015625)"/>
       <path id="DejaVuSans-28" d="M 1984 4856 
Q 1566 4138 1362 3434 
Q 1159 2731 1159 2009 
Q 1159 1288 1364 580 
Q 1569 -128 1984 -844 
L 1484 -844 
Q 1016 -109 783 600 
Q 550 1309 550 2009 
Q 550 2706 781 3412 
Q 1013 4119 1484 4856 
L 1984 4856 
z
" transform="scale(0.015625)"/>
       <path id="DejaVuSans-3a" d="M 750 794 
L 1409 794 
L 1409 0 
L 750 0 
L 750 794 
z
M 750 3309 
L 1409 3309 
L 1409 2516 
L 750 2516 
L 750 3309 
z
" transform="scale(0.015625)"/>
       <path id="DejaVuSans-2c" d="M 750 794 
L 1409 794 
L 1409 256 
L 897 -744 
L 494 -744 
L 750 256 
L 750 794 
z
" transform="scale(0.015625)"/>
       <path id="DejaVuSans-6c" d="M 603 4863 
L 1178 4863 
L 1178 0 
L 603 0 
L 603 4863 
z
" transform="scale(0.015625)"/>
       <path id="DejaVuSans-29" d="M 513 4856 
L 1013 4856 
Q 1481 4119 1714 3412 
Q 1947 2706 1947 2009 
Q 1947 1309 1714 600 
Q 1481 -109 1013 -844 
L 513 -844 
Q 928 -128 1133 580 
Q 1338 1288 1338 2009 
Q 1338 2731 1133 3434 
Q 928 4138 513 4856 
z
" transform="scale(0.015625)"/>
      </defs>
      <use xlink:href="#DejaVuSans-57"/>
      <use xlink:href="#DejaVuSans-61" x="92.501953"/>
      <use xlink:href="#DejaVuSans-79" x="153.78125"/>
      <use xlink:href="#DejaVuSans-70" x="212.960938"/>
      <use xlink:href="#DejaVuSans-6f" x="276.4375"/>
      <use xlink:href="#DejaVuSans-69" x="337.619141"/>
      <use xlink:href="#DejaVuSans-6e" x="365.402344"/>
      <use xlink:href="#DejaVuSans-74" x="428.78125"/>
      <use xlink:href="#DejaVuSans-20" x="467.990234"/>
      <use xlink:href="#DejaVuSans-70" x="499.777344"/>
      <use xlink:href="#DejaVuSans-72" x="563.253906"/>
      <use xlink:href="#DejaVuSans-6f" x="602.117188"/>
      <use xlink:href="#DejaVuSans-67" x="663.298828"/>
      <use xlink:href="#DejaVuSans-72" x="726.775391"/>
      <use xlink:href="#DejaVuSans-65" x="765.638672"/>
      <use xlink:href="#DejaVuSans-73" x="827.162109"/>
      <use xlink:href="#DejaVuSans-73" x="879.261719"/>
      <use xlink:href="#DejaVuSans-20" x="931.361328"/>
      <use xlink:href="#DejaVuSans-28" x="963.148438"/>
      <use xlink:href="#DejaVuSans-30" x="1002.162109"/>
      <use xlink:href="#DejaVuSans-3a" x="1065.785156"/>
      <use xlink:href="#DejaVuSans-20" x="1099.476562"/>
      <use xlink:href="#DejaVuSans-73" x="1131.263672"/>
      <use xlink:href="#DejaVuSans-74" x="1183.363281"/>
      <use xlink:href="#DejaVuSans-61" x="1222.572266"/>
      <use xlink:href="#DejaVuSans-72" x="1283.851562"/>
      <use xlink:href="#DejaVuSans-74" x="1324.964844"/>
      <use xlink:href="#DejaVuSans-2c" x="1364.173828"/>
      <use xlink:href="#DejaVuSans-20" x="1395.960938"/>
      <use xlink:href="#DejaVuSans-31" x="1427.748047"/>
      <use xlink:href="#DejaVuSans-3a" x="1491.371094"/>
      <use xlink:href="#DejaVuSans-20" x="1525.0625"/>
      <use xlink:href="#DejaVuSans-67" x="1556.849609"/>
      <use xlink:href="#DejaVuSans-6f" x="1620.326172"/>
      <use xlink:href="#DejaVuSans-61" x="1681.507812"/>
      <use xlink:href="#DejaVuSans-6c" x="1742.787109"/>
      <use xlink:href="#DejaVuSans-29" x="1770.570312"/>
     </g>
    </g>
   </g>
   <g id="line2d_11">
    <path d="M 63.1375 260.107203 
L 65.9275 220.106398 
L 68.7175 212.086503 
L 71.5075 229.692913 
L 74.2975 240.381714 
L 79.8775 257.719912 
L 82.6675 265.886923 
L 85.4575 272.638253 
L 88.2475 283.879777 
L 91.0375 295.935771 
L 93.8275 300.416889 
L 96.6175 296.384771 
L 99.4075 296.804533 
L 102.1975 296.382458 
L 104.9875 294.201788 
L 107.7775 296.344119 
L 110.5675 292.330733 
L 113.3575 290.113736 
L 116.1475 292.700454 
L 121.7275 288.093453 
L 124.5175 289.421964 
L 127.3075 289.502977 
L 130.0975 292.842919 
L 132.8875 297.975486 
L 135.6775 299.740438 
L 138.4675 302.944906 
L 141.2575 302.715296 
L 144.0475 304.905251 
L 146.8375 302.862133 
L 149.6275 301.203932 
L 152.4175 301.36902 
L 155.2075 306.404385 
L 157.9975 307.603615 
L 160.7875 309.988629 
L 163.5775 310.769017 
L 166.3675 313.755142 
L 169.1575 310.737107 
L 171.9475 310.326852 
L 174.7375 308.896559 
L 177.5275 309.497368 
L 180.3175 309.198374 
L 183.1075 307.829886 
L 188.6875 313.11022 
L 191.4775 316.571528 
L 194.2675 316.751549 
L 197.0575 316.082335 
L 199.8475 315.602961 
L 202.6375 315.488318 
L 205.4275 322.203273 
L 208.2175 325.105907 
L 211.0075 325.48789 
L 213.7975 326.166537 
L 216.5875 329.620019 
L 219.3775 330.945642 
L 222.1675 333.309633 
L 224.9575 337.611924 
L 227.7475 339.826934 
L 230.5375 344.245547 
L 233.3275 349.848485 
L 236.1175 348.200592 
L 238.9075 345.743126 
L 241.6975 346.917487 
L 244.4875 351.127176 
L 247.2775 353.294187 
L 250.0675 356.39976 
L 252.8575 356.550619 
L 255.6475 351.388495 
L 258.4375 362.566778 
L 261.2275 363.815991 
L 264.0175 368.489282 
L 266.8075 369.571934 
L 269.5975 372.507744 
L 272.3875 365.777108 
L 275.1775 378.431276 
L 277.9675 377.834469 
L 280.7575 381.188097 
L 283.5475 379.383812 
L 286.3375 378.878566 
L 289.1275 379.795465 
L 291.9175 382.649103 
L 294.7075 383.90389 
L 297.4975 384.415744 
L 300.2875 387.021078 
L 303.0775 384.311788 
L 305.8675 386.477013 
L 308.6575 388.793977 
L 311.4475 390.622555 
L 314.2375 389.091267 
L 317.0275 392.897463 
L 319.8175 391.091192 
L 322.6075 390.478867 
L 325.3975 394.935076 
L 328.1875 394.865887 
L 330.9775 396.499253 
L 333.7675 399.756074 
L 336.5575 399.678354 
L 339.3475 401.059627 
L 342.1375 403.064939 
L 344.9275 406.560375 
L 347.7175 408.530867 
L 350.5075 406.768343 
L 353.2975 408.555464 
L 356.0875 407.927822 
L 358.8775 406.059077 
L 361.6675 405.628856 
L 367.2475 407.566464 
L 370.0375 407.261603 
L 372.8275 407.95384 
L 375.6175 411.408672 
L 378.4075 409.883158 
L 381.1975 406.7017 
L 383.9875 407.650856 
L 392.3575 415.415133 
L 395.1475 417.521686 
L 400.7275 419.247097 
L 403.5175 416.958572 
L 406.3075 415.916969 
L 409.0975 411.763472 
L 411.8875 409.889352 
L 414.6775 411.509742 
L 417.4675 413.310421 
L 420.2575 410.32167 
L 423.0475 412.416049 
L 425.8375 410.988056 
L 428.6275 411.437755 
L 431.4175 411.208704 
L 434.2075 413.10403 
L 436.9975 412.852764 
L 439.7875 409.401165 
L 442.5775 409.132246 
L 445.3675 410.078889 
L 448.1575 408.137231 
L 450.9475 407.079217 
L 453.7375 411.791598 
L 456.5275 408.737174 
L 459.3175 411.17253 
L 462.1075 410.116487 
L 464.8975 406.016682 
L 467.6875 411.808922 
L 470.4775 413.583205 
L 473.2675 416.875017 
L 476.0575 413.575039 
L 478.8475 410.799091 
L 481.6375 413.887015 
L 484.4275 417.177811 
L 487.2175 414.976175 
L 492.7975 411.525955 
L 495.5875 409.393862 
L 498.3775 413.192737 
L 501.1675 411.366462 
L 503.9575 412.994784 
L 506.7475 413.924962 
L 509.5375 415.506244 
L 512.3275 420.466904 
L 515.1175 421.919377 
L 517.9075 424.780835 
L 520.6975 427.010394 
L 523.4875 434.943725 
L 526.2775 424.629419 
L 529.0675 421.558245 
L 531.8575 422.721708 
L 534.6475 421.462064 
L 537.4375 418.284577 
L 540.2275 420.009494 
L 543.0175 415.555321 
L 545.8075 412.835008 
L 548.5975 411.154297 
L 551.3875 411.602326 
L 554.1775 412.907485 
L 556.9675 413.31369 
L 559.7575 411.863436 
L 562.5475 413.231962 
L 565.3375 413.67065 
L 568.1275 411.383484 
L 570.9175 407.37664 
L 573.7075 404.757157 
L 576.4975 405.715623 
L 579.2875 403.930489 
L 582.0775 400.238182 
L 584.8675 396.190023 
L 587.6575 392.383444 
L 590.4475 390.822275 
L 593.2375 380.516901 
L 596.0275 387.338039 
L 598.8175 387.661736 
L 601.6075 386.987316 
L 604.3975 388.132281 
L 607.1875 390.129945 
L 609.9775 389.476789 
L 612.7675 389.756611 
L 615.5575 385.706242 
L 618.3475 385.92584 
L 621.1375 387.206199 
L 621.1375 387.206199 
" clip-path="url(#pb39a924207)" style="fill: none; stroke: #17becf; stroke-width: 4; stroke-linecap: square"/>
   </g>
   <g id="line2d_12">
    <path d="M 88.2475 650.913136 
L 91.0375 651.873529 
L 93.8275 652.205866 
L 96.6175 651.985203 
L 102.1975 653.154575 
L 104.9875 653.813903 
L 107.7775 653.257014 
L 113.3575 653.973713 
L 116.1475 654.690774 
L 118.9375 654.549816 
L 124.5175 655.093167 
L 127.3075 655.683431 
L 132.8875 655.585924 
L 135.6775 653.879952 
L 141.2575 642.224763 
L 144.0475 633.384555 
L 146.8375 631.149586 
L 149.6275 634.368448 
L 152.4175 629.820144 
L 155.2075 623.044166 
L 157.9975 620.545353 
L 160.7875 622.590842 
L 163.5775 617.297103 
L 166.3675 613.927239 
L 169.1575 612.926839 
L 171.9475 626.545254 
L 174.7375 604.374689 
L 177.5275 602.2132 
L 180.3175 577.877641 
L 183.1075 593.604577 
L 185.8975 582.041859 
L 188.6875 619.564948 
L 191.4775 573.167655 
L 194.2675 585.481132 
L 197.0575 579.050909 
L 199.8475 569.645004 
L 202.6375 592.886253 
L 205.4275 552.677861 
L 208.2175 565.153456 
L 211.0075 548.422267 
L 213.7975 554.037569 
L 216.5875 553.082743 
L 219.3775 552.76859 
L 222.1675 534.199569 
L 224.9575 550.784106 
L 227.7475 563.720143 
L 230.5375 542.084927 
L 233.3275 530.204999 
L 236.1175 545.464647 
L 238.9075 504.685977 
L 241.6975 540.923606 
L 244.4875 507.25919 
L 247.2775 548.961358 
L 250.0675 515.597593 
L 252.8575 516.452563 
L 255.6475 507.241068 
L 258.4375 533.283668 
L 261.2275 502.485468 
L 264.0175 508.493019 
L 266.8075 472.190169 
L 269.5975 510.624066 
L 272.3875 476.366651 
L 275.1775 506.39641 
L 277.9675 462.691395 
L 280.7575 503.206097 
L 283.5475 477.346957 
L 286.3375 571.90471 
L 289.1275 473.234011 
L 291.9175 484.142726 
L 294.7075 514.959542 
L 297.4975 462.348802 
L 300.2875 495.458 
L 303.0775 473.331423 
L 305.8675 489.442896 
L 308.6575 462.204001 
L 311.4475 567.996366 
L 314.2375 458.560743 
L 317.0275 478.688019 
L 319.8175 460.875079 
L 322.6075 474.738246 
L 325.3975 456.942666 
L 328.1875 444.840925 
L 330.9775 463.45119 
L 333.7675 479.366677 
L 336.5575 455.812749 
L 339.3475 445.821406 
L 342.1375 476.712357 
L 344.9275 442.729916 
L 347.7175 425.962126 
L 350.5075 503.467957 
L 353.2975 423.130748 
L 356.0875 502.264365 
L 358.8775 420.360356 
L 361.6675 454.950995 
L 364.4575 403.599774 
L 367.2475 429.98641 
L 370.0375 471.824688 
L 372.8275 425.329952 
L 375.6175 432.749637 
L 378.4075 461.011093 
L 381.1975 429.10958 
L 383.9875 412.305404 
L 386.7775 402.719202 
L 389.5675 433.221164 
L 392.3575 403.865849 
L 395.1475 429.214169 
L 397.9375 388.430285 
L 400.7275 447.932803 
L 403.5175 413.152786 
L 406.3075 444.840925 
L 409.0975 409.647785 
L 411.8875 441.815539 
L 414.6775 378.000784 
L 417.4675 409.615999 
L 420.2575 399.836193 
L 423.0475 405.132957 
L 425.8375 401.145991 
L 428.6275 374.468524 
L 431.4175 505.520935 
L 434.2075 375.793075 
L 436.9975 383.977331 
L 439.7875 414.191504 
L 442.5775 339.871458 
L 445.3675 441.318223 
L 448.1575 334.860288 
L 450.9475 438.336781 
L 453.7375 333.998576 
L 456.5275 362.850016 
L 459.3175 489.037035 
L 462.1075 328.128898 
L 464.8975 403.828966 
L 467.6875 366.746335 
L 470.4775 401.894208 
L 473.2675 362.127527 
L 476.0575 398.325314 
L 478.8475 317.371915 
L 481.6375 366.932834 
M 487.2175 328.692695 
L 490.0075 429.465982 
L 492.7975 323.948475 
L 495.5875 425.323289 
L 498.3775 297.341119 
L 501.1675 381.382051 
L 503.9575 336.047834 
L 506.7475 378.486186 
L 509.5375 287.428763 
L 512.3275 339.544569 
L 515.1175 372.950729 
L 517.9075 334.893714 
L 520.6975 372.535356 
L 523.4875 298.497008 
L 526.2775 412.680168 
L 529.0675 271.357356 
L 531.8575 359.934288 
L 534.6475 323.433845 
L 537.4375 354.918847 
L 540.2275 285.876453 
L 543.0175 400.424874 
L 545.8075 281.771576 
L 548.5975 396.401004 
L 551.3875 251.464305 
L 554.1775 275.066081 
L 556.9675 392.411322 
L 559.7575 273.8875 
L 562.5475 334.860288 
L 565.3375 306.569332 
L 568.1275 333.998576 
L 570.9175 244.582356 
L 573.7075 390.826396 
L 576.4975 266.722852 
L 579.2875 337.797797 
L 582.0775 298.45372 
M 593.2375 260.577148 
L 596.0275 377.833229 
L 598.8175 232.666814 
L 601.6075 322.240534 
L 604.3975 278.429106 
L 607.1875 317.430644 
L 609.9775 224.563305 
L 612.7675 423.229 
L 615.5575 256.996346 
M 621.1375 282.789542 
" clip-path="url(#pb39a924207)" style="fill: none; stroke: #36128b; stroke-width: 4; stroke-linecap: square"/>
   </g>
   <g id="line2d_13">
    <path d="M 74.2975 651.857542 
L 77.0875 649.230893 
L 79.8775 636.631881 
L 82.6675 635.988571 
L 85.4575 624.35277 
L 91.0375 595.381082 
L 93.8275 577.133956 
L 96.6175 564.324075 
L 99.4075 550.638408 
L 102.1975 539.527591 
L 104.9875 531.089059 
L 107.7775 523.365983 
L 110.5675 516.822527 
L 113.3575 512.533899 
L 116.1475 510.210101 
L 118.9375 508.579402 
L 121.7275 506.359564 
L 124.5175 504.52707 
L 127.3075 503.197854 
L 132.8875 500.009934 
L 135.6775 496.949175 
L 138.4675 493.118935 
L 141.2575 492.392411 
L 144.0475 488.80811 
L 146.8375 486.02378 
L 149.6275 484.570728 
L 152.4175 481.362934 
L 155.2075 477.124338 
L 157.9975 474.468196 
L 160.7875 471.338511 
L 163.5775 469.937431 
L 166.3675 468.87952 
L 169.1575 464.323929 
L 171.9475 460.106368 
L 174.7375 456.718229 
L 177.5275 452.204506 
L 180.3175 449.721325 
L 183.1075 446.749661 
L 185.8975 443.531936 
L 188.6875 439.659473 
L 191.4775 436.167469 
L 194.2675 433.36967 
L 197.0575 430.251247 
L 199.8475 428.336582 
L 202.6375 425.957376 
L 205.4275 422.642029 
L 208.2175 420.723107 
L 211.0075 417.72726 
L 213.7975 414.138656 
L 219.3775 404.523299 
L 222.1675 400.911152 
L 224.9575 396.208893 
L 227.7475 392.7091 
L 230.5375 387.259772 
L 233.3275 355.753301 
L 236.1175 378.385349 
L 238.9075 364.921019 
L 241.6975 367.168035 
L 244.4875 367.143473 
L 247.2775 362.27465 
L 250.0675 358.502894 
L 252.8575 357.36641 
L 255.6475 325.668657 
L 258.4375 349.982162 
L 261.2275 345.663192 
L 264.0175 343.038316 
L 266.8075 318.425654 
L 269.5975 341.261403 
L 272.3875 337.713031 
L 275.1775 307.285927 
L 277.9675 333.837833 
L 280.7575 330.922864 
L 283.5475 329.492435 
L 286.3375 320.394847 
L 289.1275 314.326773 
L 291.9175 295.221329 
L 294.7075 320.873398 
L 297.4975 318.357492 
L 300.2875 317.303754 
L 303.0775 311.289532 
L 305.8675 268.77836 
L 308.6575 314.447754 
L 311.4475 313.585153 
L 314.2375 314.297373 
L 317.0275 311.933449 
L 319.8175 277.685653 
L 322.6075 303.290668 
L 325.3975 308.436415 
L 328.1875 306.748407 
L 330.9775 280.676871 
L 333.7675 303.643681 
L 336.5575 296.572092 
L 339.3475 300.243212 
L 342.1375 297.870746 
L 344.9275 268.721678 
L 347.7175 296.696881 
L 350.5075 287.846698 
L 353.2975 290.306297 
L 356.0875 266.12921 
L 358.8775 285.638068 
L 361.6675 280.915631 
L 364.4575 284.668153 
L 367.2475 265.190403 
L 370.0375 283.483041 
L 372.8275 284.400669 
L 375.6175 279.694285 
L 378.4075 268.209492 
L 381.1975 287.939169 
L 383.9875 288.130661 
L 386.7775 260.775225 
L 389.5675 287.527 
L 392.3575 292.978636 
L 395.1475 285.277686 
L 397.9375 262.265068 
L 400.7275 286.124449 
L 403.5175 283.173593 
L 406.3075 274.442647 
L 409.0975 282.93107 
L 411.8875 288.953576 
L 414.6775 281.913593 
L 417.4675 272.708119 
L 420.2575 294.982356 
L 423.0475 279.984085 
L 425.8375 279.464922 
L 428.6275 291.615807 
L 431.4175 290.661517 
L 434.2075 280.844515 
L 436.9975 284.505563 
L 439.7875 295.295434 
L 442.5775 278.173102 
L 445.3675 278.107254 
L 448.1575 294.378197 
L 450.9475 286.766195 
L 453.7375 266.430275 
L 456.5275 284.375932 
L 459.3175 292.354081 
L 462.1075 265.321903 
L 464.8975 291.402461 
L 467.6875 290.509569 
L 470.4775 267.680665 
L 473.2675 271.680471 
L 476.0575 289.701888 
L 478.8475 284.286878 
L 481.6375 267.616224 
L 484.4275 291.373631 
L 487.2175 294.470081 
L 490.0075 268.710075 
L 492.7975 284.489653 
L 495.5875 279.279339 
L 498.3775 271.561946 
L 501.1675 296.335468 
L 503.9575 302.112835 
L 506.7475 274.776014 
L 509.5375 291.232254 
L 512.3275 304.625894 
L 515.1175 252.163979 
L 517.9075 302.072312 
L 520.6975 306.17153 
L 523.4875 278.741169 
L 526.2775 295.146797 
L 529.0675 307.203021 
L 531.8575 281.19881 
L 534.6475 285.157559 
L 537.4375 298.497542 
L 540.2275 281.998163 
L 543.0175 299.122844 
L 545.8075 298.502668 
L 548.5975 291.918314 
L 551.3875 276.058597 
L 554.1775 296.563976 
L 556.9675 283.685495 
L 559.7575 298.736515 
L 562.5475 295.753661 
L 565.3375 318.498174 
L 568.1275 272.778166 
L 570.9175 282.170932 
L 573.7075 296.110803 
L 576.4975 302.524631 
L 579.2875 282.259826 
L 582.0775 298.905014 
L 584.8675 272.705556 
L 587.6575 292.413949 
L 590.4475 304.968603 
L 593.2375 294.231054 
L 596.0275 294.347551 
L 598.8175 274.362349 
L 601.6075 298.348407 
L 604.3975 320.848394 
L 607.1875 296.685314 
L 609.9775 292.521085 
L 612.7675 276.25961 
L 615.5575 312.516644 
L 618.3475 291.136153 
L 621.1375 300.815017 
L 621.1375 300.815017 
" clip-path="url(#pb39a924207)" style="fill: none; stroke: #d95f02; stroke-width: 4; stroke-linecap: square"/>
   </g>
   <g id="line2d_14">
    <path d="M 68.7175 663.855532 
L 71.5075 656.988578 
L 77.0875 612.942831 
L 79.8775 591.494128 
L 82.6675 601.252028 
L 85.4575 599.211198 
L 88.2475 598.313288 
L 91.0375 593.079782 
L 93.8275 588.348753 
L 96.6175 588.317071 
L 99.4075 589.197894 
L 102.1975 592.183892 
L 104.9875 594.370951 
L 107.7775 596.17202 
L 110.5675 598.420341 
L 113.3575 599.253279 
L 116.1475 599.885431 
L 118.9375 598.263054 
L 121.7275 597.316806 
L 124.5175 593.614048 
L 127.3075 590.733467 
L 130.0975 585.728234 
L 132.8875 579.741757 
L 135.6775 572.540914 
L 138.4675 566.808015 
L 144.0475 558.256272 
L 146.8375 553.602932 
L 152.4175 543.285665 
L 155.2075 539.40538 
L 157.9975 535.330509 
L 163.5775 528.225 
L 166.3675 525.7345 
L 174.7375 517.199511 
L 180.3175 514.054607 
L 183.1075 513.688556 
L 185.8975 514.129285 
L 188.6875 513.798991 
L 191.4775 514.481472 
L 194.2675 514.236073 
L 197.0575 512.649097 
L 199.8475 511.79796 
L 202.6375 511.44105 
L 205.4275 512.152947 
L 208.2175 513.990242 
L 211.0075 513.940558 
L 213.7975 515.114047 
L 216.5875 514.637377 
L 219.3775 515.619695 
L 222.1675 516.940852 
L 230.5375 522.233992 
L 233.3275 527.528383 
L 236.1175 522.668068 
L 238.9075 523.443917 
L 241.6975 523.299625 
L 244.4875 523.32855 
L 247.2775 521.761388 
L 250.0675 521.729347 
L 252.8575 522.22652 
L 255.6475 527.321444 
L 258.4375 522.617152 
L 261.2275 522.612227 
L 266.8075 523.649253 
L 269.5975 522.165447 
L 272.3875 521.797231 
L 275.1775 525.446286 
L 277.9675 520.572056 
L 280.7575 519.194787 
L 283.5475 518.833195 
L 286.3375 519.094712 
L 289.1275 519.601025 
L 291.9175 523.066915 
L 294.7075 519.342797 
L 297.4975 519.309873 
L 303.0775 518.045335 
L 305.8675 522.056886 
L 308.6575 518.598898 
L 311.4475 518.782203 
L 314.2375 519.341195 
L 317.0275 519.471288 
L 319.8175 522.648019 
L 322.6075 518.718847 
L 325.3975 517.893619 
L 328.1875 516.880992 
L 330.9775 560.646148 
L 333.7675 515.590559 
L 336.5575 514.10997 
L 339.3475 512.288131 
L 342.1375 511.93914 
L 344.9275 513.102024 
L 347.7175 510.951606 
L 350.5075 510.220432 
L 353.2975 508.826068 
L 356.0875 510.778392 
L 358.8775 508.695975 
L 361.6675 509.317699 
L 364.4575 510.501797 
L 367.2475 551.520625 
L 370.0375 509.972347 
L 372.8275 509.051551 
L 375.6175 509.431242 
L 378.4075 516.048288 
L 381.1975 510.697203 
L 383.9875 510.4315 
L 386.7775 518.868019 
L 389.5675 511.074758 
L 392.3575 535.450153 
L 395.1475 510.58197 
L 397.9375 521.361431 
L 400.7275 511.374898 
L 403.5175 511.399191 
L 406.3075 524.235192 
L 409.0975 511.71953 
L 411.8875 530.386875 
L 414.6775 510.384161 
L 417.4675 524.827819 
L 420.2575 509.919047 
L 423.0475 509.650852 
L 425.8375 524.410631 
L 428.6275 509.437381 
L 431.4175 521.831475 
L 434.2075 507.287462 
L 436.9975 524.259858 
L 439.7875 507.800805 
L 442.5775 508.409449 
L 445.3675 525.049707 
L 448.1575 517.063122 
L 450.9475 506.394428 
L 453.7375 524.244908 
L 456.5275 506.266648 
L 459.3175 506.851445 
L 462.1075 524.14539 
L 464.8975 513.311098 
L 467.6875 507.033326 
L 470.4775 524.002732 
L 473.2675 506.768068 
L 476.0575 506.557089 
L 478.8475 523.328846 
L 481.6375 507.189207 
L 484.4275 504.890525 
L 487.2175 521.544344 
L 490.0075 504.649826 
L 492.7975 504.493839 
L 495.5875 521.945061 
L 498.3775 503.867843 
L 501.1675 503.953801 
L 503.9575 520.578522 
L 506.7475 504.084962 
L 509.5375 501.596088 
L 512.3275 521.791539 
L 515.1175 505.918369 
L 517.9075 506.621602 
L 520.6975 522.855598 
L 523.4875 501.981349 
L 526.2775 508.853297 
L 529.0675 524.862522 
L 531.8575 510.492898 
L 534.6475 520.949208 
L 537.4375 511.214462 
L 540.2275 511.857186 
L 543.0175 526.734903 
L 545.8075 511.793297 
L 548.5975 501.0466 
L 551.3875 524.804434 
L 554.1775 509.848928 
L 556.9675 508.992199 
L 559.7575 515.565511 
L 562.5475 507.128983 
L 565.3375 582.296792 
L 568.1275 507.120619 
L 570.9175 494.180988 
L 573.7075 522.609258 
L 576.4975 505.003712 
L 579.2875 505.702051 
L 582.0775 510.632023 
L 584.8675 505.896034 
L 587.6575 522.991636 
L 590.4475 505.997297 
L 593.2375 492.006741 
L 596.0275 524.563966 
L 598.8175 506.063055 
L 601.6075 505.298424 
L 604.3975 592.776415 
L 607.1875 504.418737 
L 609.9775 525.394498 
L 612.7675 503.748873 
L 615.5575 488.394492 
L 618.3475 526.425776 
L 621.1375 503.543322 
L 621.1375 503.543322 
" clip-path="url(#pb39a924207)" style="fill: none; stroke: #3ccd10; stroke-width: 4; stroke-linecap: square"/>
   </g>
   <g id="line2d_15">
    <path d="M 63.1375 163.48 
L 621.1375 163.48 
" clip-path="url(#pb39a924207)" style="fill: none; stroke-dasharray: 5.55,2.4; stroke-dashoffset: 0; stroke: #ff0000; stroke-width: 1.5"/>
   </g>
   <g id="patch_3">
    <path d="M 63.1375 667.48 
L 63.1375 113.08 
" style="fill: none; stroke: #000000; stroke-width: 0.8; stroke-linejoin: miter; stroke-linecap: square"/>
   </g>
   <g id="patch_4">
    <path d="M 621.1375 667.48 
L 621.1375 113.08 
" style="fill: none; stroke: #000000; stroke-width: 0.8; stroke-linejoin: miter; stroke-linecap: square"/>
   </g>
   <g id="patch_5">
    <path d="M 63.1375 667.48 
L 621.1375 667.48 
" style="fill: none; stroke: #000000; stroke-width: 0.8; stroke-linejoin: miter; stroke-linecap: square"/>
   </g>
   <g id="patch_6">
    <path d="M 63.1375 113.08 
L 621.1375 113.08 
" style="fill: none; stroke: #000000; stroke-width: 0.8; stroke-linejoin: miter; stroke-linecap: square"/>
   </g>
   <g id="text_13">
    <!-- Final Waypoint Reached(Town04) -->
    <g transform="translate(94.799219 106.840937)scale(0.3 -0.3)">
     <defs>
      <path id="DejaVuSans-46" d="M 628 4666 
L 3309 4666 
L 3309 4134 
L 1259 4134 
L 1259 2759 
L 3109 2759 
L 3109 2228 
L 1259 2228 
L 1259 0 
L 628 0 
L 628 4666 
z
" transform="scale(0.015625)"/>
      <path id="DejaVuSans-52" d="M 2841 2188 
Q 3044 2119 3236 1894 
Q 3428 1669 3622 1275 
L 4263 0 
L 3584 0 
L 2988 1197 
Q 2756 1666 2539 1819 
Q 2322 1972 1947 1972 
L 1259 1972 
L 1259 0 
L 628 0 
L 628 4666 
L 2053 4666 
Q 2853 4666 3247 4331 
Q 3641 3997 3641 3322 
Q 3641 2881 3436 2590 
Q 3231 2300 2841 2188 
z
M 1259 4147 
L 1259 2491 
L 2053 2491 
Q 2509 2491 2742 2702 
Q 2975 2913 2975 3322 
Q 2975 3731 2742 3939 
Q 2509 4147 2053 4147 
L 1259 4147 
z
" transform="scale(0.015625)"/>
      <path id="DejaVuSans-68" d="M 3513 2113 
L 3513 0 
L 2938 0 
L 2938 2094 
Q 2938 2591 2744 2837 
Q 2550 3084 2163 3084 
Q 1697 3084 1428 2787 
Q 1159 2491 1159 1978 
L 1159 0 
L 581 0 
L 581 4863 
L 1159 4863 
L 1159 2956 
Q 1366 3272 1645 3428 
Q 1925 3584 2291 3584 
Q 2894 3584 3203 3211 
Q 3513 2838 3513 2113 
z
" transform="scale(0.015625)"/>
      <path id="DejaVuSans-64" d="M 2906 2969 
L 2906 4863 
L 3481 4863 
L 3481 0 
L 2906 0 
L 2906 525 
Q 2725 213 2448 61 
Q 2172 -91 1784 -91 
Q 1150 -91 751 415 
Q 353 922 353 1747 
Q 353 2572 751 3078 
Q 1150 3584 1784 3584 
Q 2172 3584 2448 3432 
Q 2725 3281 2906 2969 
z
M 947 1747 
Q 947 1113 1208 752 
Q 1469 391 1925 391 
Q 2381 391 2643 752 
Q 2906 1113 2906 1747 
Q 2906 2381 2643 2742 
Q 2381 3103 1925 3103 
Q 1469 3103 1208 2742 
Q 947 2381 947 1747 
z
" transform="scale(0.015625)"/>
      <path id="DejaVuSans-54" d="M -19 4666 
L 3928 4666 
L 3928 4134 
L 2272 4134 
L 2272 0 
L 1638 0 
L 1638 4134 
L -19 4134 
L -19 4666 
z
" transform="scale(0.015625)"/>
      <path id="DejaVuSans-77" d="M 269 3500 
L 844 3500 
L 1563 769 
L 2278 3500 
L 2956 3500 
L 3675 769 
L 4391 3500 
L 4966 3500 
L 4050 0 
L 3372 0 
L 2619 2869 
L 1863 0 
L 1184 0 
L 269 3500 
z
" transform="scale(0.015625)"/>
     </defs>
     <use xlink:href="#DejaVuSans-46"/>
     <use xlink:href="#DejaVuSans-69" x="50.269531"/>
     <use xlink:href="#DejaVuSans-6e" x="78.052734"/>
     <use xlink:href="#DejaVuSans-61" x="141.431641"/>
     <use xlink:href="#DejaVuSans-6c" x="202.710938"/>
     <use xlink:href="#DejaVuSans-20" x="230.494141"/>
     <use xlink:href="#DejaVuSans-57" x="262.28125"/>
     <use xlink:href="#DejaVuSans-61" x="354.783203"/>
     <use xlink:href="#DejaVuSans-79" x="416.0625"/>
     <use xlink:href="#DejaVuSans-70" x="475.242188"/>
     <use xlink:href="#DejaVuSans-6f" x="538.71875"/>
     <use xlink:href="#DejaVuSans-69" x="599.900391"/>
     <use xlink:href="#DejaVuSans-6e" x="627.683594"/>
     <use xlink:href="#DejaVuSans-74" x="691.0625"/>
     <use xlink:href="#DejaVuSans-20" x="730.271484"/>
     <use xlink:href="#DejaVuSans-52" x="762.058594"/>
     <use xlink:href="#DejaVuSans-65" x="827.041016"/>
     <use xlink:href="#DejaVuSans-61" x="888.564453"/>
     <use xlink:href="#DejaVuSans-63" x="949.84375"/>
     <use xlink:href="#DejaVuSans-68" x="1004.824219"/>
     <use xlink:href="#DejaVuSans-65" x="1068.203125"/>
     <use xlink:href="#DejaVuSans-64" x="1129.726562"/>
     <use xlink:href="#DejaVuSans-28" x="1193.203125"/>
     <use xlink:href="#DejaVuSans-54" x="1232.216797"/>
     <use xlink:href="#DejaVuSans-6f" x="1276.300781"/>
     <use xlink:href="#DejaVuSans-77" x="1337.482422"/>
     <use xlink:href="#DejaVuSans-6e" x="1419.269531"/>
     <use xlink:href="#DejaVuSans-30" x="1482.648438"/>
     <use xlink:href="#DejaVuSans-34" x="1546.271484"/>
     <use xlink:href="#DejaVuSans-29" x="1609.894531"/>
    </g>
   </g>
   <g id="legend_1">
    <g id="line2d_16">
     <path d="M 199.410156 15.298437 
L 209.410156 15.298437 
L 219.410156 15.298437 
" style="fill: none; stroke: #17becf; stroke-width: 4; stroke-linecap: square"/>
    </g>
    <g id="text_14">
     <!-- AWAC(0.56  0.10) -->
     <g transform="translate(227.410156 18.798437)scale(0.1 -0.1)">
      <defs>
       <path id="DejaVuSans-41" d="M 2188 4044 
L 1331 1722 
L 3047 1722 
L 2188 4044 
z
M 1831 4666 
L 2547 4666 
L 4325 0 
L 3669 0 
L 3244 1197 
L 1141 1197 
L 716 0 
L 50 0 
L 1831 4666 
z
" transform="scale(0.015625)"/>
       <path id="DejaVuSans-43" d="M 4122 4306 
L 4122 3641 
Q 3803 3938 3442 4084 
Q 3081 4231 2675 4231 
Q 1875 4231 1450 3742 
Q 1025 3253 1025 2328 
Q 1025 1406 1450 917 
Q 1875 428 2675 428 
Q 3081 428 3442 575 
Q 3803 722 4122 1019 
L 4122 359 
Q 3791 134 3420 21 
Q 3050 -91 2638 -91 
Q 1578 -91 968 557 
Q 359 1206 359 2328 
Q 359 3453 968 4101 
Q 1578 4750 2638 4750 
Q 3056 4750 3426 4639 
Q 3797 4528 4122 4306 
z
" transform="scale(0.015625)"/>
       <path id="DejaVuSans-b1" d="M 2944 4013 
L 2944 2803 
L 4684 2803 
L 4684 2272 
L 2944 2272 
L 2944 1063 
L 2419 1063 
L 2419 2272 
L 678 2272 
L 678 2803 
L 2419 2803 
L 2419 4013 
L 2944 4013 
z
M 678 531 
L 4684 531 
L 4684 0 
L 678 0 
L 678 531 
z
" transform="scale(0.015625)"/>
      </defs>
      <use xlink:href="#DejaVuSans-41"/>
      <use xlink:href="#DejaVuSans-57" x="62.908203"/>
      <use xlink:href="#DejaVuSans-41" x="156.285156"/>
      <use xlink:href="#DejaVuSans-43" x="222.943359"/>
      <use xlink:href="#DejaVuSans-28" x="292.767578"/>
      <use xlink:href="#DejaVuSans-30" x="331.78125"/>
      <use xlink:href="#DejaVuSans-2e" x="395.404297"/>
      <use xlink:href="#DejaVuSans-35" x="427.191406"/>
      <use xlink:href="#DejaVuSans-36" x="490.814453"/>
      <use xlink:href="#DejaVuSans-20" x="554.4375"/>
      <use xlink:href="#DejaVuSans-b1" x="586.224609"/>
      <use xlink:href="#DejaVuSans-20" x="670.013672"/>
      <use xlink:href="#DejaVuSans-30" x="701.800781"/>
      <use xlink:href="#DejaVuSans-2e" x="765.423828"/>
      <use xlink:href="#DejaVuSans-31" x="797.210938"/>
      <use xlink:href="#DejaVuSans-30" x="860.833984"/>
      <use xlink:href="#DejaVuSans-29" x="924.457031"/>
     </g>
    </g>
    <g id="line2d_17">
     <path d="M 199.410156 29.976562 
L 209.410156 29.976562 
L 219.410156 29.976562 
" style="fill: none; stroke: #36128b; stroke-width: 4; stroke-linecap: square"/>
    </g>
    <g id="text_15">
     <!-- CQL(0.76  0.14) -->
     <g transform="translate(227.410156 33.476562)scale(0.1 -0.1)">
      <defs>
       <path id="DejaVuSans-51" d="M 2522 4238 
Q 1834 4238 1429 3725 
Q 1025 3213 1025 2328 
Q 1025 1447 1429 934 
Q 1834 422 2522 422 
Q 3209 422 3611 934 
Q 4013 1447 4013 2328 
Q 4013 3213 3611 3725 
Q 3209 4238 2522 4238 
z
M 3406 84 
L 4238 -825 
L 3475 -825 
L 2784 -78 
Q 2681 -84 2626 -87 
Q 2572 -91 2522 -91 
Q 1538 -91 948 567 
Q 359 1225 359 2328 
Q 359 3434 948 4092 
Q 1538 4750 2522 4750 
Q 3503 4750 4090 4092 
Q 4678 3434 4678 2328 
Q 4678 1516 4351 937 
Q 4025 359 3406 84 
z
" transform="scale(0.015625)"/>
       <path id="DejaVuSans-4c" d="M 628 4666 
L 1259 4666 
L 1259 531 
L 3531 531 
L 3531 0 
L 628 0 
L 628 4666 
z
" transform="scale(0.015625)"/>
      </defs>
      <use xlink:href="#DejaVuSans-43"/>
      <use xlink:href="#DejaVuSans-51" x="69.824219"/>
      <use xlink:href="#DejaVuSans-4c" x="148.535156"/>
      <use xlink:href="#DejaVuSans-28" x="204.248047"/>
      <use xlink:href="#DejaVuSans-30" x="243.261719"/>
      <use xlink:href="#DejaVuSans-2e" x="306.884766"/>
      <use xlink:href="#DejaVuSans-37" x="338.671875"/>
      <use xlink:href="#DejaVuSans-36" x="402.294922"/>
      <use xlink:href="#DejaVuSans-20" x="465.917969"/>
      <use xlink:href="#DejaVuSans-b1" x="497.705078"/>
      <use xlink:href="#DejaVuSans-20" x="581.494141"/>
      <use xlink:href="#DejaVuSans-30" x="613.28125"/>
      <use xlink:href="#DejaVuSans-2e" x="676.904297"/>
      <use xlink:href="#DejaVuSans-31" x="708.691406"/>
      <use xlink:href="#DejaVuSans-34" x="772.314453"/>
      <use xlink:href="#DejaVuSans-29" x="835.9375"/>
     </g>
    </g>
    <g id="line2d_18">
     <path d="M 343.757031 15.298437 
L 353.757031 15.298437 
L 363.757031 15.298437 
" style="fill: none; stroke: #d95f02; stroke-width: 4; stroke-linecap: square"/>
    </g>
    <g id="text_16">
     <!-- Proposed(0.73  0.12) -->
     <g transform="translate(371.757031 18.798437)scale(0.1 -0.1)">
      <defs>
       <path id="DejaVuSans-33" d="M 2597 2516 
Q 3050 2419 3304 2112 
Q 3559 1806 3559 1356 
Q 3559 666 3084 287 
Q 2609 -91 1734 -91 
Q 1441 -91 1130 -33 
Q 819 25 488 141 
L 488 750 
Q 750 597 1062 519 
Q 1375 441 1716 441 
Q 2309 441 2620 675 
Q 2931 909 2931 1356 
Q 2931 1769 2642 2001 
Q 2353 2234 1838 2234 
L 1294 2234 
L 1294 2753 
L 1863 2753 
Q 2328 2753 2575 2939 
Q 2822 3125 2822 3475 
Q 2822 3834 2567 4026 
Q 2313 4219 1838 4219 
Q 1578 4219 1281 4162 
Q 984 4106 628 3988 
L 628 4550 
Q 988 4650 1302 4700 
Q 1616 4750 1894 4750 
Q 2613 4750 3031 4423 
Q 3450 4097 3450 3541 
Q 3450 3153 3228 2886 
Q 3006 2619 2597 2516 
z
" transform="scale(0.015625)"/>
      </defs>
      <use xlink:href="#DejaVuSans-50"/>
      <use xlink:href="#DejaVuSans-72" x="58.552734"/>
      <use xlink:href="#DejaVuSans-6f" x="97.416016"/>
      <use xlink:href="#DejaVuSans-70" x="158.597656"/>
      <use xlink:href="#DejaVuSans-6f" x="222.074219"/>
      <use xlink:href="#DejaVuSans-73" x="283.255859"/>
      <use xlink:href="#DejaVuSans-65" x="335.355469"/>
      <use xlink:href="#DejaVuSans-64" x="396.878906"/>
      <use xlink:href="#DejaVuSans-28" x="460.355469"/>
      <use xlink:href="#DejaVuSans-30" x="499.369141"/>
      <use xlink:href="#DejaVuSans-2e" x="562.992188"/>
      <use xlink:href="#DejaVuSans-37" x="594.779297"/>
      <use xlink:href="#DejaVuSans-33" x="658.402344"/>
      <use xlink:href="#DejaVuSans-20" x="722.025391"/>
      <use xlink:href="#DejaVuSans-b1" x="753.8125"/>
      <use xlink:href="#DejaVuSans-20" x="837.601562"/>
      <use xlink:href="#DejaVuSans-30" x="869.388672"/>
      <use xlink:href="#DejaVuSans-2e" x="933.011719"/>
      <use xlink:href="#DejaVuSans-31" x="964.798828"/>
      <use xlink:href="#DejaVuSans-32" x="1028.421875"/>
      <use xlink:href="#DejaVuSans-29" x="1092.044922"/>
     </g>
    </g>
    <g id="line2d_19">
     <path d="M 343.757031 29.976562 
L 353.757031 29.976562 
L 363.757031 29.976562 
" style="fill: none; stroke: #3ccd10; stroke-width: 4; stroke-linecap: square"/>
    </g>
    <g id="text_17">
     <!-- SAC(0.33  0.25) -->
     <g transform="translate(371.757031 33.476562)scale(0.1 -0.1)">
      <defs>
       <path id="DejaVuSans-53" d="M 3425 4513 
L 3425 3897 
Q 3066 4069 2747 4153 
Q 2428 4238 2131 4238 
Q 1616 4238 1336 4038 
Q 1056 3838 1056 3469 
Q 1056 3159 1242 3001 
Q 1428 2844 1947 2747 
L 2328 2669 
Q 3034 2534 3370 2195 
Q 3706 1856 3706 1288 
Q 3706 609 3251 259 
Q 2797 -91 1919 -91 
Q 1588 -91 1214 -16 
Q 841 59 441 206 
L 441 856 
Q 825 641 1194 531 
Q 1563 422 1919 422 
Q 2459 422 2753 634 
Q 3047 847 3047 1241 
Q 3047 1584 2836 1778 
Q 2625 1972 2144 2069 
L 1759 2144 
Q 1053 2284 737 2584 
Q 422 2884 422 3419 
Q 422 4038 858 4394 
Q 1294 4750 2059 4750 
Q 2388 4750 2728 4690 
Q 3069 4631 3425 4513 
z
" transform="scale(0.015625)"/>
      </defs>
      <use xlink:href="#DejaVuSans-53"/>
      <use xlink:href="#DejaVuSans-41" x="65.351562"/>
      <use xlink:href="#DejaVuSans-43" x="132.009766"/>
      <use xlink:href="#DejaVuSans-28" x="201.833984"/>
      <use xlink:href="#DejaVuSans-30" x="240.847656"/>
      <use xlink:href="#DejaVuSans-2e" x="304.470703"/>
      <use xlink:href="#DejaVuSans-33" x="336.257812"/>
      <use xlink:href="#DejaVuSans-33" x="399.880859"/>
      <use xlink:href="#DejaVuSans-20" x="463.503906"/>
      <use xlink:href="#DejaVuSans-b1" x="495.291016"/>
      <use xlink:href="#DejaVuSans-20" x="579.080078"/>
      <use xlink:href="#DejaVuSans-30" x="610.867188"/>
      <use xlink:href="#DejaVuSans-2e" x="674.490234"/>
      <use xlink:href="#DejaVuSans-32" x="706.277344"/>
      <use xlink:href="#DejaVuSans-35" x="769.900391"/>
      <use xlink:href="#DejaVuSans-29" x="833.523438"/>
     </g>
    </g>
   </g>
  </g>
 </g>
 <defs>
  <clipPath id="pb39a924207">
   <rect x="63.1375" y="113.08" width="558" height="554.4"/>
  </clipPath>
 </defs>
</svg>
